<svg width="368" height="477" viewBox="0 0 368 477" fill="none" xmlns="http://www.w3.org/2000/svg">
<g clip-path="url(#clip0_139_17216)">
<g opacity="0.1">
<path d="M184 1.07092C184 88.0367 76.1425 110.458 3.67096 110.797C3.50111 110.797 3.27463 110.797 3.10478 110.797C2.70845 110.797 2.31212 110.797 1.97241 110.797H1.34961V28.2477C1.34961 13.2439 13.5226 1.07092 28.5264 1.07092H184Z" fill="#DC5341"/>
<path d="M184 220.241H1.34961V110.797H3.10478C3.27463 110.797 3.50111 110.797 3.67096 110.797C76.0292 111.137 183.774 133.501 184 220.241Z" fill="#DC5341"/>
<path d="M366.651 1.07092V110.797H366.028C365.462 110.797 364.896 110.797 364.329 110.797C291.858 110.458 184 88.0367 184 1.07092H366.651Z" fill="#DC5341"/>
<path d="M366.651 110.797V193.064C366.651 208.068 354.478 220.241 339.474 220.241H184C184.226 133.501 291.971 111.137 364.329 110.797H366.651Z" fill="#DC5341"/>
</g>
<path opacity="0.1" d="M366.651 283.936V333.308C366.651 346.217 357.592 357.314 344.966 359.918L85.1448 413.762L73.8777 359.352L300.748 312.302H56.9488V420.33H366.651V475.929H28.5264C13.5226 475.929 1.34961 463.756 1.34961 448.752V283.936C1.34961 268.932 13.5226 256.76 28.5264 256.76H339.474C354.478 256.76 366.651 268.932 366.651 283.936Z" fill="#DC5341"/>
<g opacity="0.7">
<path d="M184 1.07092C184 88.0367 76.1425 110.458 3.67096 110.797C3.50111 110.797 3.27463 110.797 3.10478 110.797C2.70845 110.797 2.31212 110.797 1.97241 110.797H1.34961V28.2477C1.34961 13.2439 13.5226 1.07092 28.5264 1.07092H184Z" stroke="#DC5341" stroke-width="1.69855" stroke-miterlimit="10"/>
<path d="M184 220.241H1.34961V110.797H3.10478C3.27463 110.797 3.50111 110.797 3.67096 110.797C76.0292 111.137 183.774 133.501 184 220.241Z" stroke="#DC5341" stroke-width="1.69855" stroke-miterlimit="10"/>
<path d="M366.651 1.07092V110.797H366.028C365.462 110.797 364.896 110.797 364.329 110.797C291.858 110.458 184 88.0367 184 1.07092H366.651Z" stroke="#DC5341" stroke-width="1.69855" stroke-miterlimit="10"/>
<path d="M366.651 110.797V193.064C366.651 208.068 354.478 220.241 339.474 220.241H184C184.226 133.501 291.971 111.137 364.329 110.797H366.651Z" stroke="#DC5341" stroke-width="1.69855" stroke-miterlimit="10"/>
</g>
<path opacity="0.7" d="M366.651 283.936V333.308C366.651 346.217 357.592 357.314 344.966 359.918L85.1448 413.762L73.8777 359.352L300.748 312.302H56.9488V420.33H366.651V475.929H28.5264C13.5226 475.929 1.34961 463.756 1.34961 448.752V283.936C1.34961 268.932 13.5226 256.76 28.5264 256.76H339.474C354.478 256.76 366.651 268.932 366.651 283.936Z" stroke="#DC5341" stroke-width="1.69855" stroke-miterlimit="10"/>
</g>
<defs>
<clipPath id="clip0_139_17216">
<rect width="367" height="476.557" fill="white" transform="translate(0.5 0.22168)"/>
</clipPath>
</defs>
</svg>
