<svg width="58" height="32" viewBox="0 0 58 32" fill="none" xmlns="http://www.w3.org/2000/svg">
<g clip-path="url(#clip0)">
<path d="M52.1893 28.3846C48.964 31.0376 44.8082 32.3173 40.6318 31.9436C36.4554 31.5699 32.5988 29.5733 29.9064 26.3908C31.2885 24.5398 32.2858 22.4356 32.8403 20.2002C33.6291 21.9746 34.9212 23.4843 36.5599 24.5461C38.1985 25.6078 40.1132 26.1759 42.0717 26.1815C44.4155 26.1826 46.6856 25.3701 48.4867 23.8853L52.1893 28.3846Z" fill="#FF0000"/>
<path d="M58 15.9999C58.0002 16.9738 57.9126 17.9458 57.7382 18.9042H33.8104C33.4882 17.9818 33.3247 17.0125 33.327 16.0365C33.3254 15.0337 33.4968 14.038 33.8339 13.0924H51.6958C51.1208 11.1239 49.9469 9.37866 48.334 8.09423C46.7211 6.80981 44.7475 6.04859 42.682 5.91422C40.6164 5.77984 38.5591 6.27883 36.7903 7.34326C35.0215 8.40768 33.627 9.98584 32.7966 11.8629C32.617 12.2626 32.4634 12.6732 32.3367 13.0924C32.1324 13.7601 31.9996 14.4473 31.9406 15.1426C31.9138 15.4384 31.9003 15.7341 31.9003 16.0365C31.9003 16.3389 31.9003 16.6147 31.9373 16.8971C31.7717 19.9081 30.7538 22.8122 29 25.2776C28.7315 25.6564 28.4495 26.0186 28.1474 26.3709C26.6585 28.1323 24.7976 29.5492 22.6958 30.5218C20.5939 31.4943 18.3022 31.9989 15.9821 31.9999C7.15685 31.9999 0 24.8357 0 15.9999C0 7.16423 7.15685 -4.88244e-05 15.9821 -4.88244e-05C18.3019 0.000579918 20.5935 0.50463 22.6953 1.47661C24.7971 2.44859 26.6582 3.86486 28.1474 5.6257C26.7376 7.50698 25.727 9.65124 25.1765 11.9293C24.3635 10.0296 22.975 8.42639 21.2026 7.34081C19.4302 6.25523 17.3612 5.74077 15.2809 5.86838C13.2006 5.99599 11.2116 6.75938 9.58817 8.05327C7.96472 9.34716 6.78682 11.1078 6.21692 13.0924C5.95597 13.9625 5.81372 14.8632 5.79396 15.7707V16.2292C5.81522 17.13 5.95746 18.024 6.21692 18.8876C6.83104 20.9615 8.10742 22.7825 9.85485 24.078C11.6023 25.3735 13.7267 26.0737 15.9099 26.0737C18.0931 26.0737 20.2175 25.3735 21.9649 24.078C23.7124 22.7825 24.9887 20.9615 25.6028 18.8876C25.8846 17.9448 26.027 16.9665 26.0258 15.9833C26.0239 12.6602 27.0591 9.41754 28.9899 6.69902C29.2585 6.32352 29.5405 5.96132 29.8426 5.60909C31.3344 3.84999 33.1978 2.43609 35.3014 1.46697C37.405 0.497852 39.6977 -0.00291222 42.0179 -4.88244e-05C45.7718 0.0162422 49.401 1.33541 52.2735 3.72774C55.146 6.12007 57.0798 9.43398 57.7382 13.0924C57.9124 14.052 58 15.025 58 15.9999Z" fill="white"/>
</g>
<defs>
<clipPath id="clip0">
<rect width="58" height="32" fill="white"/>
</clipPath>
</defs>
</svg>
