<svg width="313" height="90" viewBox="0 0 313 90" fill="none" xmlns="http://www.w3.org/2000/svg">
<path d="M75.4861 0.256653C75.4861 35.789 31.3945 44.9497 1.83048 45.0885C1.73794 45.0885 1.69168 45.0885 1.59915 45.0885C1.46035 45.0885 1.27528 45.0885 1.13649 45.0885H0.858887V11.3605C0.858887 5.20712 5.80936 0.256653 11.9627 0.256653H75.4861Z" fill="#DC5341"/>
<path d="M75.4861 89.7815H0.858887V45.0884H1.59915C1.69168 45.0884 1.73794 45.0884 1.83048 45.0884C31.3945 45.2272 75.3935 54.3417 75.4861 89.7815Z" fill="#DC5341"/>
<path d="M150.113 0.256653V45.0885H149.882C149.65 45.0885 149.419 45.0885 149.188 45.0885C119.578 44.9497 75.5322 35.789 75.5322 0.256653H150.113Z" fill="#DC5341"/>
<path d="M150.113 45.0884V78.6776C150.113 84.831 145.163 89.7815 139.009 89.7815H75.4858C75.5784 54.3417 119.577 45.2272 149.141 45.0884H150.113Z" fill="#DC5341"/>
<path d="M312.897 11.3143V31.4863C312.897 36.7606 309.196 41.2947 304.061 42.3588L197.88 64.3815L193.253 42.1275L285.971 22.9271H186.36V67.0649H312.897V89.7816H174.747C168.594 89.7816 163.643 84.8311 163.643 78.6777V11.3143C163.643 5.16092 168.594 0.210449 174.747 0.210449H301.794C307.947 0.210449 312.897 5.16092 312.897 11.3143Z" fill="#DC5341"/>
</svg>
