<svg width="118" height="70" viewBox="0 0 118 70" fill="none" xmlns="http://www.w3.org/2000/svg">
<path d="M34.5219 24.0017C34.7574 24.069 35.0014 24.2121 35.2538 24.4308C35.5062 24.6495 35.6912 24.8851 35.809 25.1374C35.9941 25.5412 36.1623 26.0881 36.3138 26.7779C36.482 27.4677 36.6503 28.3847 36.8185 29.5288C36.9026 30.0335 36.9952 30.6392 37.0961 31.3459C37.1803 32.0357 37.2644 32.7844 37.3485 33.592C37.5168 35.0558 37.6598 36.5533 37.7775 38.0843C37.9121 39.6323 38.0047 40.9025 38.0552 41.8952C38.0552 42.1308 38.0552 42.3327 38.0552 42.5009C38.0552 42.8206 38.0383 43.0393 38.0047 43.1571C37.9542 43.3254 37.7944 43.502 37.5252 43.6871C37.4242 43.7544 37.3233 43.8049 37.2223 43.8385C37.1214 43.8722 36.9868 43.889 36.8185 43.889C36.768 43.889 36.726 43.889 36.6923 43.889C36.6082 43.889 36.5325 43.889 36.4652 43.889C36.3306 43.8722 36.238 43.8553 36.1876 43.8385C36.0698 43.8049 35.9352 43.7292 35.7838 43.6114C35.6323 43.4936 35.523 43.3758 35.4557 43.2581C35.422 43.1908 35.3884 43.0141 35.3547 42.7281C35.3211 42.442 35.2874 41.9962 35.2538 41.3905C35.1697 39.994 35.1108 39.1107 35.0771 38.7405C35.0435 38.3535 35.0098 38.118 34.9762 38.0339C34.9425 37.9666 34.8668 37.9245 34.749 37.9077C34.6144 37.9077 34.219 37.9077 33.5629 37.9077C33.1927 37.9077 32.8646 37.9077 32.5786 37.9077C32.3094 37.9245 32.158 37.9413 32.1243 37.9582C32.1075 37.9582 32.0654 38.1516 31.9981 38.5386C31.9308 38.9256 31.8635 39.3462 31.7962 39.8005C31.7458 40.1202 31.6953 40.423 31.6448 40.7091C31.6112 40.9951 31.5859 41.2222 31.5691 41.3905C31.5186 41.7774 31.4681 42.1224 31.4177 42.4252C31.3672 42.7281 31.3251 42.9047 31.2915 42.9552C31.1905 43.1739 30.9886 43.3506 30.6858 43.4852C30.3997 43.6198 30.1137 43.6619 29.8277 43.6114C29.4912 43.5609 29.2136 43.4263 28.9948 43.2076C28.7929 42.9889 28.692 42.7365 28.692 42.4505C28.692 42.3663 28.7004 42.1897 28.7172 41.9205C28.7341 41.6681 28.7593 41.3989 28.7929 41.1129C28.8266 40.8941 28.8602 40.6502 28.8939 40.381C28.9275 40.0949 28.9528 39.8089 28.9696 39.5229C29.0201 39.1191 29.0453 38.7573 29.0453 38.4377C29.0453 38.118 28.9948 37.9666 28.8939 37.9834C28.8771 38.0002 28.835 38.0086 28.7677 38.0086C28.7172 38.0086 28.6499 38.0086 28.5658 38.0086C28.0611 38.0255 27.733 37.7983 27.5815 37.3272C27.5142 37.159 27.4806 36.9991 27.4806 36.8477C27.4806 36.5785 27.5647 36.3261 27.733 36.0906C27.8339 35.9896 27.9601 35.8971 28.1115 35.813C28.2461 35.7288 28.4144 35.6784 28.6163 35.6615C28.9023 35.6447 29.1126 35.6279 29.2472 35.6111C29.3818 35.5942 29.466 35.5774 29.4996 35.5606C29.5164 35.5438 29.5417 35.4596 29.5753 35.3082C29.609 35.1568 29.6426 34.9885 29.6763 34.8035C29.7604 34.1473 29.8613 33.4827 29.9791 32.8097C30.1137 32.1367 30.2483 31.4805 30.3829 30.8411C30.6521 29.6297 30.9381 28.5277 31.241 27.535C31.5607 26.5423 31.8551 25.7936 32.1243 25.2889C32.3599 24.8682 32.6375 24.5486 32.9572 24.3298C33.2768 24.0943 33.6217 23.9681 33.9919 23.9513C34.0256 23.9513 34.0508 23.9513 34.0676 23.9513C34.1349 23.9513 34.2022 23.9597 34.2695 23.9765C34.3536 23.9765 34.4378 23.9849 34.5219 24.0017ZM32.4272 35.4849C32.4608 35.5522 32.5365 35.5858 32.6543 35.5858C32.6711 35.5858 32.7048 35.5858 32.7553 35.5858C32.9235 35.5858 33.2095 35.5774 33.6133 35.5606C33.9162 35.5438 34.177 35.5353 34.3957 35.5353C34.6144 35.5185 34.7322 35.5017 34.749 35.4849C34.749 35.4849 34.749 35.468 34.749 35.4344C34.749 35.3166 34.7238 35.0222 34.6733 34.5511C34.606 33.9454 34.5303 33.264 34.4462 32.5068C34.3789 31.9853 34.3116 31.4805 34.2443 30.9926C34.177 30.5046 34.1181 30.084 34.0676 29.7307C34.0171 29.3774 33.9667 29.1166 33.9162 28.9483C33.8825 28.7801 33.8489 28.6959 33.8152 28.6959C33.7648 28.7128 33.6638 28.9988 33.5124 29.554C33.3778 30.1261 33.2348 30.7738 33.0833 31.4973C32.8814 32.3891 32.7132 33.2555 32.5786 34.0968C32.4776 34.7362 32.4272 35.1568 32.4272 35.3587C32.4272 35.426 32.4272 35.468 32.4272 35.4849ZM48.2259 43.2328C47.738 43.0309 47.3258 42.7617 46.9893 42.4252C46.6528 42.1055 46.3752 41.7017 46.1564 41.2138C46.005 40.8941 45.8788 40.5408 45.7779 40.1538C45.6601 39.7837 45.576 39.3546 45.5255 38.8667C45.4414 38.1769 45.3993 37.3188 45.3993 36.2925C45.3993 35.9391 45.4077 35.569 45.4245 35.182C45.4582 33.6509 45.5591 31.5562 45.7274 28.8978C45.761 28.2921 45.7947 27.7622 45.8283 27.3079C45.862 26.8704 45.8872 26.4919 45.9041 26.1722C45.9714 25.4655 46.0387 25.0365 46.106 24.8851C46.1901 24.7168 46.3247 24.557 46.5098 24.4056C46.7621 24.2205 47.0313 24.1279 47.3174 24.1279C47.4856 24.1279 47.6623 24.17 47.8474 24.2541C48.3353 24.456 48.6213 24.8178 48.7054 25.3393C48.7223 25.4571 48.7138 25.7431 48.6802 26.1974C48.6634 26.6685 48.6297 27.2069 48.5792 27.8126C48.5456 28.3847 48.4951 29.1502 48.4278 30.1093C48.3773 31.0515 48.3269 31.8927 48.2764 32.633C48.1923 34.5511 48.1586 36.0317 48.1754 37.0748C48.2091 38.118 48.31 38.9256 48.4783 39.4977C48.6297 40.0361 48.8232 40.381 49.0588 40.5324C49.2775 40.7006 49.6308 40.7511 50.1187 40.6838C50.4384 40.6333 50.8506 40.524 51.3554 40.3557C51.8601 40.1707 52.3733 39.9519 52.8949 39.6996C53.2314 39.5481 53.4669 39.4556 53.6015 39.4219C53.7361 39.3883 53.8876 39.3799 54.0558 39.3967C54.3082 39.4135 54.5185 39.4724 54.6868 39.5734C54.855 39.6575 55.0064 39.8005 55.141 40.0024C55.2083 40.1202 55.2504 40.2295 55.2672 40.3305C55.3009 40.4146 55.3177 40.5324 55.3177 40.6838C55.3177 40.7175 55.3093 40.7511 55.2925 40.7848C55.2925 41.2054 55.1747 41.5167 54.9391 41.7186C54.7036 41.9205 54.1315 42.2149 53.223 42.6019C52.9201 42.7197 52.5836 42.8458 52.2135 42.9804C51.8265 43.115 51.5152 43.216 51.2797 43.2833C50.9095 43.3674 50.6319 43.4179 50.4468 43.4347C50.3459 43.4515 50.2281 43.46 50.0935 43.46C49.9421 43.46 49.757 43.4515 49.5383 43.4347C49.1681 43.4179 48.8989 43.4011 48.7307 43.3842C48.5624 43.3506 48.3942 43.3001 48.2259 43.2328ZM62.5861 30.3869C63.3096 30.7065 63.9069 31.1608 64.378 31.7497C64.8491 32.3386 65.1772 33.0536 65.3623 33.8949C65.4969 34.3997 65.5642 34.8623 65.5642 35.283C65.5642 35.7036 65.4969 36.1999 65.3623 36.772C65.2108 37.4618 65.0005 38.0507 64.7313 38.5386C64.479 39.0097 64.1172 39.4724 63.6461 39.9267C63.0068 40.5324 62.258 40.9362 61.4 41.1381C61.0466 41.2222 60.7101 41.2559 60.3905 41.239C59.9194 41.239 59.4651 41.1549 59.0276 40.9867C58.4051 40.7343 57.8667 40.3221 57.4124 39.75C56.9581 39.178 56.6385 38.5218 56.4534 37.7815C56.3356 37.2599 56.2683 36.7804 56.2515 36.3429C56.2515 36.3261 56.2515 36.3177 56.2515 36.3177C56.2515 35.8803 56.3104 35.3671 56.4281 34.7782C56.5459 34.1893 56.6889 33.6678 56.8572 33.2135C57.0254 32.7424 57.261 32.246 57.5638 31.7245C58.0686 30.8832 58.4976 30.3364 58.851 30.084C59.0865 29.9158 59.3473 29.8316 59.6333 29.8316C59.7848 29.8316 59.9446 29.8485 60.1128 29.8821C60.197 29.9158 60.3484 29.941 60.5671 29.9578C60.769 29.9915 60.9793 30.0251 61.1981 30.0588C61.3831 30.0756 61.5346 30.0924 61.6523 30.1093C61.7701 30.1093 61.8795 30.1261 61.9804 30.1597C62.0814 30.1766 62.1739 30.2018 62.258 30.2354C62.359 30.2691 62.4684 30.3196 62.5861 30.3869ZM60.2895 32.7844C60.1549 32.8181 59.9951 33.0284 59.81 33.4154C59.6249 33.8024 59.4567 34.2314 59.3052 34.7025C59.2379 34.9549 59.179 35.2073 59.1286 35.4596C59.0781 35.6952 59.0529 35.9055 59.0529 36.0906C59.0529 36.1579 59.0529 36.2168 59.0529 36.2672C59.0529 37.0244 59.2295 37.6132 59.5829 38.0339C59.8521 38.3199 60.1549 38.4629 60.4914 38.4629C60.6597 38.4629 60.8363 38.4293 61.0214 38.362C61.4925 38.1769 61.8963 37.8151 62.2328 37.2767C62.5693 36.7215 62.746 36.1326 62.7628 35.5101C62.7628 35.4765 62.7628 35.4428 62.7628 35.4092C62.7628 34.9044 62.6703 34.4333 62.4852 33.9958C62.2665 33.5247 61.9973 33.2051 61.6776 33.0368C61.6103 33.0032 61.5346 32.9695 61.4504 32.9359C61.3663 32.9022 61.2738 32.877 61.1728 32.8602C60.9877 32.8097 60.8111 32.7844 60.6428 32.7844C60.5755 32.7676 60.5166 32.7592 60.4662 32.7592C60.382 32.7592 60.3232 32.7676 60.2895 32.7844ZM69.8798 42.6019C69.6947 42.5009 69.5349 42.3663 69.4003 42.1981C69.2657 42.013 69.19 41.8279 69.1731 41.6428C69.1563 41.5587 69.1479 41.3232 69.1479 40.9362C69.1479 40.5492 69.1479 40.1202 69.1479 39.6491C69.1647 39.178 69.1816 38.4713 69.1984 37.5291C69.2152 36.5869 69.2236 35.6952 69.2236 34.8539C69.2236 33.9958 69.232 33.1125 69.2489 32.204C69.2657 31.2954 69.2741 30.6308 69.2741 30.2102C69.2909 29.8064 69.2909 29.4447 69.2741 29.125C69.2741 28.8221 69.2657 28.6623 69.2489 28.6455C69.2489 28.6286 69.0554 28.6118 68.6684 28.595C68.2814 28.595 68.0122 28.6034 67.8608 28.6202C67.3897 28.6371 67.028 28.5782 66.7756 28.4436C66.5064 28.309 66.3129 28.0818 66.1951 27.7622C66.1278 27.5771 66.0942 27.4004 66.0942 27.2322C66.0942 27.0471 66.1278 26.8704 66.1951 26.7022C66.3297 26.3657 66.5568 26.1301 66.8765 25.9955C66.9438 25.9619 67.2635 25.9282 67.8356 25.8946C68.4076 25.8609 68.8871 25.8273 69.2741 25.7936C70.25 25.7431 71.0996 25.6927 71.8231 25.6422C72.5634 25.6085 73.4467 25.516 74.473 25.3646C75.2638 25.2468 75.777 25.1795 76.0125 25.1627C76.063 25.1627 76.1135 25.1627 76.164 25.1627C76.3154 25.1627 76.45 25.1795 76.5678 25.2132C76.8538 25.3309 77.0809 25.516 77.2492 25.7684C77.3838 25.9703 77.4511 26.2058 77.4511 26.475C77.4511 26.5255 77.4511 26.576 77.4511 26.6265C77.4343 26.9125 77.3586 27.148 77.224 27.3331C77.0894 27.535 76.9043 27.6864 76.6687 27.7874C76.5509 27.8379 76.1135 27.9136 75.3564 28.0145C74.5992 28.1155 73.8673 28.208 73.1607 28.2921C72.9083 28.309 72.6896 28.3342 72.5045 28.3679C72.3194 28.4015 72.2101 28.4267 72.1764 28.4436C72.126 28.494 72.0839 28.9063 72.0502 29.6802C72.0334 30.4542 72.0166 32.0105 71.9998 34.3492C71.9829 35.4765 71.9745 36.4439 71.9745 37.2515C71.9577 38.0423 71.9493 38.7153 71.9493 39.2705C71.9325 40.5492 71.9072 41.2979 71.8736 41.5167C71.8399 41.7522 71.781 41.9457 71.6969 42.0971C71.5118 42.4168 71.2426 42.6271 70.8893 42.7281C70.7547 42.7617 70.6285 42.7785 70.5107 42.7785C70.292 42.7785 70.0817 42.7197 69.8798 42.6019ZM91.7861 30.3869C92.5095 30.7065 93.1068 31.1608 93.5779 31.7497C94.049 32.3386 94.3771 33.0536 94.5622 33.8949C94.6968 34.3997 94.7641 34.8623 94.7641 35.283C94.7641 35.7036 94.6968 36.1999 94.5622 36.772C94.4108 37.4618 94.2005 38.0507 93.9313 38.5386C93.6789 39.0097 93.3171 39.4724 92.846 39.9267C92.2067 40.5324 91.458 40.9362 90.5999 41.1381C90.2466 41.2222 89.9101 41.2559 89.5904 41.239C89.1193 41.239 88.665 41.1549 88.2276 40.9867C87.605 40.7343 87.0666 40.3221 86.6123 39.75C86.1581 39.178 85.8384 38.5218 85.6533 37.7815C85.5355 37.2599 85.4682 36.7804 85.4514 36.3429C85.4514 36.3261 85.4514 36.3177 85.4514 36.3177C85.4514 35.8803 85.5103 35.3671 85.6281 34.7782C85.7459 34.1893 85.8889 33.6678 86.0571 33.2135C86.2254 32.7424 86.4609 32.246 86.7638 31.7245C87.2685 30.8832 87.6976 30.3364 88.0509 30.084C88.2864 29.9158 88.5472 29.8316 88.8333 29.8316C88.9847 29.8316 89.1445 29.8485 89.3128 29.8821C89.3969 29.9158 89.5483 29.941 89.7671 29.9578C89.969 29.9915 90.1793 30.0251 90.398 30.0588C90.5831 30.0756 90.7345 30.0924 90.8523 30.1093C90.97 30.1093 91.0794 30.1261 91.1804 30.1597C91.2813 30.1766 91.3738 30.2018 91.458 30.2354C91.5589 30.2691 91.6683 30.3196 91.7861 30.3869ZM89.4894 32.7844C89.3548 32.8181 89.195 33.0284 89.0099 33.4154C88.8248 33.8024 88.6566 34.2314 88.5052 34.7025C88.4379 34.9549 88.379 35.2073 88.3285 35.4596C88.278 35.6952 88.2528 35.9055 88.2528 36.0906C88.2528 36.1579 88.2528 36.2168 88.2528 36.2672C88.2528 37.0244 88.4295 37.6132 88.7828 38.0339C89.052 38.3199 89.3548 38.4629 89.6913 38.4629C89.8596 38.4629 90.0363 38.4293 90.2213 38.362C90.6924 38.1769 91.0962 37.8151 91.4327 37.2767C91.7692 36.7215 91.9459 36.1326 91.9627 35.5101C91.9627 35.4765 91.9627 35.4428 91.9627 35.4092C91.9627 34.9044 91.8702 34.4333 91.6851 33.9958C91.4664 33.5247 91.1972 33.2051 90.8775 33.0368C90.8102 33.0032 90.7345 32.9695 90.6504 32.9359C90.5662 32.9022 90.4737 32.877 90.3728 32.8602C90.1877 32.8097 90.011 32.7844 89.8428 32.7844C89.7755 32.7676 89.7166 32.7592 89.6661 32.7592C89.582 32.7592 89.5231 32.7676 89.4894 32.7844ZM96.7074 44.6714C96.5391 44.5704 96.3961 44.4442 96.2784 44.2928C96.1438 44.1245 96.0596 43.9731 96.026 43.8385C95.9755 43.6366 95.9334 43.2749 95.8998 42.7533C95.8661 42.2317 95.8409 41.6092 95.8241 40.8857C95.7904 39.5229 95.7736 37.9497 95.7736 36.1663C95.7736 34.366 95.8073 32.6835 95.8746 31.1188C95.8914 30.5467 95.9082 30.0588 95.925 29.655C95.9419 29.2343 95.9503 28.881 95.9503 28.595C95.9839 27.7201 95.9755 27.2406 95.925 27.1565C95.8746 27.0892 95.7736 27.0134 95.6222 26.9293C95.2857 26.7611 95.0501 26.5339 94.9155 26.2479C94.8146 26.0628 94.7641 25.8609 94.7641 25.6422C94.7641 25.5412 94.7809 25.4403 94.8146 25.3393C94.8314 25.1879 94.9155 25.0113 95.067 24.8094C95.2184 24.6243 95.3698 24.4897 95.5212 24.4056C95.5885 24.3719 95.7568 24.3298 96.026 24.2794C96.2784 24.2457 96.6064 24.1952 97.0102 24.1279C97.7506 24.027 98.6591 23.9176 99.7359 23.7998C100.813 23.6821 101.898 23.5811 102.992 23.497C103.782 23.4465 104.27 23.4213 104.455 23.4213C104.472 23.4213 104.481 23.4213 104.481 23.4213C104.666 23.4213 104.842 23.4549 105.011 23.5222C105.263 23.64 105.456 23.7914 105.591 23.9765C105.709 24.1784 105.776 24.4224 105.793 24.7084C105.81 24.7757 105.818 24.843 105.818 24.9103C105.818 25.0113 105.81 25.0954 105.793 25.1627C105.776 25.2468 105.717 25.3646 105.616 25.516C105.465 25.7516 105.28 25.9198 105.061 26.0208C104.842 26.1049 104.472 26.1638 103.951 26.1974C102.47 26.3152 101.267 26.4246 100.342 26.5255C99.4331 26.6096 98.9451 26.6769 98.8778 26.7274C98.861 26.7274 98.8358 26.9882 98.8021 27.5098C98.7685 28.0314 98.7348 28.6286 98.7012 29.3016C98.6675 30.1261 98.6423 30.9084 98.6255 31.6487C98.6086 32.3891 98.6086 32.776 98.6255 32.8097C98.6423 32.8097 98.7264 32.8013 98.8778 32.7844C99.0461 32.7676 99.2396 32.7424 99.4583 32.7087C100.081 32.5741 100.527 32.5237 100.796 32.5573C101.065 32.591 101.309 32.7087 101.528 32.9106C101.679 33.0621 101.789 33.2135 101.856 33.3649C101.923 33.4995 101.957 33.6678 101.957 33.8697C101.957 34.0884 101.932 34.2735 101.881 34.4249C101.831 34.5763 101.738 34.7193 101.603 34.8539C101.452 35.0054 101.301 35.1063 101.149 35.1568C101.015 35.2073 100.628 35.2998 99.9883 35.4344C99.6686 35.5017 99.3742 35.569 99.105 35.6363C98.8526 35.7036 98.7012 35.7541 98.6507 35.7877C98.6002 35.8045 98.5329 35.8382 98.4488 35.8887C98.4656 36.4102 98.4824 37.1842 98.4993 38.2105C98.5161 38.8499 98.5413 39.5481 98.575 40.3053C98.5918 41.0624 98.617 41.6597 98.6507 42.0971C98.6675 42.5178 98.6843 42.9047 98.7012 43.2581C98.7012 43.5946 98.6928 43.788 98.6759 43.8385C98.6423 43.9731 98.5497 44.133 98.3983 44.318C98.2301 44.5031 98.0786 44.6293 97.944 44.6966C97.8094 44.7639 97.6244 44.7976 97.3888 44.7976C97.3552 44.7976 97.3299 44.7976 97.3131 44.7976C97.0439 44.7976 96.842 44.7555 96.7074 44.6714Z" fill="#D7D7D7"/>
<path d="M13.2217 58.1774C-2.54273 34.66 0.769101 22.6429 26.2894 14.5668C91.4362 -0.0777248 118.737 -7.40002 116.152 23.935C109.427 105.479 14.6791 51.0705 4.23405 30.7189C0.357543 23.935 1.01071 16.7635 10.3143 7.45989" stroke="#FF0000" stroke-width="3.23042" stroke-linecap="round"/>
</svg>
