<?xml version="1.0" encoding="utf-8"?>
<!-- Generator: Adobe Illustrator 25.2.0, SVG Export Plug-In . SVG Version: 6.00 Build 0)  -->
<svg version="1.1" xmlns="http://www.w3.org/2000/svg" xmlns:xlink="http://www.w3.org/1999/xlink" x="0px" y="0px"
	 viewBox="0 0 948 923" style="enable-background:new 0 0 948 923;" xml:space="preserve">
<style type="text/css">
	.st0{fill:#FFBDBD;}
	.st1{fill:#FC0048;}
	.st2{fill:#FF0049;}
	.st3{fill:none;}
	.st4{fill:#FFFFFF;}
	.st5{fill:#9B9B9B;}
	.st6{fill:none;stroke:#9B9B9B;stroke-width:0.3901;stroke-miterlimit:10;}
	.st7{fill:#E5E5E5;}
	.st8{fill:#F7F7F7;stroke:#FFFFFF;stroke-width:0.7983;stroke-miterlimit:10;}
	.st9{fill:#C1C1C1;}
	.st10{fill:#F7F7F7;}
	.st11{fill:#5DADEC;}
	.st12{fill:#9266CC;}
	.st13{fill:#77B255;}
	.st14{fill:#FFAC33;}
	.st15{fill:#FF0000;}
</style>
<g id="email_grid">
	<path class="st0" d="M395.3,780.9l-66.4-47.5l0.2-0.1l-0.7-0.5l-0.2,0.1l-66.4-47.5c-16.3-11.7-36.8-20-57.3-23.1l-1.2-0.9l13.7-8
		l-0.7-0.5l-13.3,7.8l-3.8-19.3l-0.9-0.1l3.8,19.3l-16.2-11.6l-0.6,0.3l16.7,11.9l-1,0.5c-19.9-2.6-37.9-0.1-50.3,7.2L47.3,729.8
		c-12.3,7.3-18,18.6-15.9,31.7l-1,0.6l-16.7-11.9l-0.6,0.3l16.2,11.6L0,757.8l0.1,0.6l29.3,4.4L17,770.1l0.7,0.5l12.9-7.6l1.2,0.9
		c2.9,13.5,13.7,27.6,30,39.2l133.5,95.5c16.3,11.7,36.8,20,57.3,23.1l1.2,0.9l-12.9,7.6l0.7,0.5l12.4-7.3l3.8,19.3l0.9,0.1
		l-3.8-19.3l16.2,11.6l0.6-0.3L255,922.8l1-0.6c19.9,2.6,37.9,0.1,50.3-7.2l103.5-60.9c12.3-7.3,18-18.6,15.9-31.8l1-0.5l16.7,11.9
		l0.6-0.3l-16.2-11.6l29.3,4.4l-0.1-0.6l-29.3-4.4l13.4-7.9l-0.7-0.5l-13.8,8.1l-1.2-0.9C422.4,806.6,411.6,792.5,395.3,780.9z
		 M394.8,781.2c15.8,11.3,26.4,25,29.5,38.1l-62.9-45l12.9-7.6l-0.7-0.5l-12.9,7.6l-45.3-32.4l13.1-7.7L394.8,781.2z M309.8,803.8
		l-0.9-0.1c-0.2-1-0.4-2-0.7-3l3.1,2.2L309.8,803.8z M312,803.4l1.2,0.9l-2.1-0.3L312,803.4z M237.6,846.3l-2.6-1.9
		c1.2,0.2,2.4,0.4,3.7,0.6l0.1,0.6L237.6,846.3z M238.9,846.4l0.2,0.9l-0.8-0.5L238.9,846.4z M147.4,780.2l0.9,0.1
		c0.2,0.8,0.4,1.6,0.6,2.4l-2.6-1.9L147.4,780.2z M145.5,780.4l-0.8-0.5l1.4,0.2L145.5,780.4z M219.9,737.6l3.1,2.2
		c-1.5-0.3-3-0.5-4.5-0.8l-0.1-0.6L219.9,737.6z M218.3,737.6l-0.3-1.4l1.2,0.9L218.3,737.6z M265.2,770l-1.3,0.8
		c-12.1-8.6-27.3-14.7-42.4-17l-2.8-14.1c1.8,0.3,3.7,0.6,5.4,1L265.2,770z M225.6,740.9c18.6,3.8,36.7,11.7,51.5,22.1l-11.3,6.6
		L225.6,740.9z M221.6,754.4c14.9,2.3,29.8,8.3,41.8,16.7l-34.4,20.3L221.6,754.4z M227.9,791.2l-44.7-32c9.2-5.3,22.6-7.1,37.5-5
		L227.9,791.2z M227.4,791.5l-56-8.3c-1.8-9.8,2.2-18.2,11.3-23.7L227.4,791.5z M227.5,792.1L193,812.4
		c-11.8-8.5-19.5-18.8-21.6-28.6L227.5,792.1z M228.2,792.7l7.3,37c-14.9-2.3-29.8-8.3-41.8-16.7L228.2,792.7z M229.1,792.8
		l44.9,32.1c-9.2,5.3-22.6,7.1-37.5,5L229.1,792.8z M229.7,792.4l56,8.3c1.9,9.8-2.1,18.3-11.1,23.8L229.7,792.4z M229.5,791.8
		l34.4-20.3c11.8,8.5,19.5,18.8,21.6,28.6L229.5,791.8z M217.7,739.5l2.8,14.1c-11.7-1.7-22.6-1-31.3,2l27.6-16.3L217.7,739.5z
		 M182.5,758.7l-17.1-12.2c12.4-7.2,30.3-9.8,50.2-7.2L182.5,758.7z M181.9,759l-33.1,19.5c-2-13.1,3.7-24.4,15.9-31.7L181.9,759z
		 M176.6,763.1c-5.4,5.3-7.6,12.4-6.1,20l-21.4-3.2l-0.1-0.6L176.6,763.1z M149.2,780.5l21.4,3.2c2.1,10,9.9,20.4,21.9,29l-1,0.6
		L150,783.6C149.7,782.6,149.4,781.5,149.2,780.5z M191,813.6l-11.6,6.8c-14.9-10.7-25.2-23.4-29.1-35.9L191,813.6z M191.7,814.2
		l40.7,29.1c-18.8-3.8-37.4-11.7-52.3-22.3L191.7,814.2z M192.2,813.9l1-0.6c12.1,8.6,27.3,14.7,42.4,17l2.8,14.1
		c-1.5-0.2-3.1-0.5-4.7-0.8L192.2,813.9z M239.4,844.6l-2.8-14.1c11.6,1.7,22.6,1,31.3-2l-27.6,16.3L239.4,844.6z M274.7,825.3
		l17.1,12.2c-12.4,7.2-30.3,9.8-50.2,7.2L274.7,825.3z M275.3,825l33.1-19.5c2,13.1-3.8,24.4-15.9,31.7L275.3,825z M280.6,821
		c5.5-5.3,7.6-12.4,6.1-20l21.4,3.2l0.1,0.6L280.6,821z M308,803.5l-21.4-3.2c-2.1-10-9.9-20.4-21.9-29l1.3-0.8l41.1,29.3
		C307.4,801.1,307.7,802.3,308,803.5z M266.5,770.2l11.3-6.6c14.7,10.5,24.9,23,28.9,35.4L266.5,770.2z M277.6,762.7
		c-15.2-10.8-34-18.8-53.2-22.6l-4-2.9l29.8-17.6c19.6,6.7,38.1,16.1,53.9,27.4L277.6,762.7z M219.8,736.8l-2-1.4l-4.9-24.9
		c12.1,1.8,24.3,4.8,36.4,8.8L219.8,736.8z M216.8,734.6l-36.6-26.2c10.2-0.3,20.8,0.3,31.7,1.9L216.8,734.6z M217,735.5l0.5,2.6
		l-1.1,0.6c-20.5-2.8-39-0.2-51.8,7.2l-34.6-24.7c12.9-7.6,29.8-11.9,49.2-12.7L217,735.5z M164,746.3c-12.6,7.5-18.3,19.2-16,32.7
		l-1.1,0.6l-3.2-0.5l-38.4-27.4c3.1-12.3,11.4-22.7,24.1-30.2L164,746.3z M142.4,779l-37.5-5.6c-1.4-7.3-1.3-14.4,0.3-21L142.4,779z
		 M143.5,779.7l1.5,1.1L115,798.4c-5-8.1-8.4-16.3-10.1-24.3L143.5,779.7z M145.7,781.3l3.4,2.5c3.8,12.9,14.3,26.1,29.7,37.1
		l-26.6,15.6c-15.8-11.3-28.4-24.1-36.7-37.4L145.7,781.3z M179.5,821.4c15.4,11,34.6,19,54,22.8l3.5,2.5l-30.2,17.8
		c-19.6-6.7-38.1-16.1-53.9-27.4L179.5,821.4z M237.8,847.1l1.5,1.1l5,25.4c-12.1-1.8-24.3-4.8-36.4-8.8L237.8,847.1z M240.3,848.9
		l37.2,26.6c-10.3,0.4-21.2-0.2-32.3-1.8L240.3,848.9z M240.1,848.1l-0.4-2.1l1.1-0.6c20.5,2.8,39,0.2,51.7-7.2l34.6,24.7
		c-12.8,7.4-29.5,11.8-48.6,12.7L240.1,848.1z M293.1,837.8c12.6-7.5,18.3-19.2,16-32.7l1.1-0.6l4,0.6l37.7,26.9
		c-3.1,12.4-11.4,22.9-24.2,30.5L293.1,837.8z M315.5,805.2l36.7,5.4c1.4,7.2,1.3,14.1-0.2,20.7L315.5,805.2z M314.5,804.5l-2-1.4
		l29.5-17.4c5,8.1,8.4,16.3,10.1,24.3L314.5,804.5z M311.8,802.6l-4-2.8c-4-12.7-14.4-25.7-29.5-36.5l26.6-15.6
		c15.8,11.3,28.3,24.1,36.7,37.4L311.8,802.6z M305.5,747.2l9.3-5.4l45.3,32.4l-17.8,10.5C333.8,771.3,321.2,758.5,305.5,747.2z
		 M304.7,746.7c-15.8-11.3-34.2-20.7-53.8-27.4l17.8-10.5l45.3,32.4L304.7,746.7z M249.9,719c-12.3-4.2-24.8-7.2-37.1-9.1l-9.3-47.2
		h0.1c0.3,0.1,0.5,0.1,0.8,0.2l63.7,45.5L249.9,719z M202.5,662.6l9.4,47.2c-11.2-1.6-22.1-2.3-32.5-1.9l-24.8-17.8l47-27.7
		L202.5,662.6z M178.4,707.9c-19.3,0.8-36.2,5.2-49.1,12.7l-12.1-8.6l36.7-21.6L178.4,707.9z M116.6,711.6l-16.5-11.8l36.7-21.6
		l16.5,11.8L116.6,711.6z M116,711.9l-36.4,21.4l-16.5-11.8l36.4-21.4L116,711.9z M116.7,712.4l12.1,8.6
		c-12.7,7.5-21,17.9-24.2,30.1l-24.2-17.3L116.7,712.4z M104.3,751.8c-1.7,6.7-1.8,14-0.4,21.5l-71.5-10.6l-0.1-0.6l47.4-27.9
		L104.3,751.8z M32.6,763.3l71.5,10.6c1.6,8.1,5.1,16.6,10.3,24.9l-18,10.6l-63.7-45.5C32.7,763.6,32.6,763.5,32.6,763.3z
		 M114.9,799.4c8.5,13.3,21.1,26.1,36.8,37.4l-9.3,5.4l-45.3-32.4L114.9,799.4z M152.4,837.3c15.8,11.3,34.2,20.7,53.8,27.4
		l-17.8,10.5l-45.3-32.4L152.4,837.3z M207.2,865.1c12.3,4.2,24.8,7.2,37.1,9.1l9.4,47.2h-0.1c-0.3-0.1-0.5-0.1-0.8-0.2l-63.7-45.5
		L207.2,865.1z M254.6,921.5l-9.4-47.2c11.4,1.7,22.5,2.3,33,1.9l24.6,17.6l-47.4,27.9L254.6,921.5z M279.3,876.1
		c19.1-0.9,35.8-5.3,48.5-12.7l12.1,8.6l-36.4,21.4L279.3,876.1z M340.6,872.5l16.5,11.8l-36.4,21.4l-16.5-11.8L340.6,872.5z
		 M341.1,872.2l36.7-21.6l16.5,11.8l-36.7,21.6L341.1,872.2z M340.5,871.6l-12.1-8.6c12.8-7.6,21.2-18.1,24.3-30.5l24.4,17.5
		L340.5,871.6z M352.9,831.9c1.6-6.7,1.7-13.8,0.3-21.1l71.5,10.6l0.1,0.6l-47,27.7L352.9,831.9z M424.5,820.8l-71.5-10.6
		c-1.6-8.1-5.1-16.6-10.3-24.9l18-10.6l63.7,45.5L424.5,820.8z M261.3,685.8l66.4,47.5l-13.1,7.7l-45.3-32.4l12.9-7.6l-0.7-0.5
		l-12.9,7.6l-62.9-44.9C225.5,666.3,245.4,674.5,261.3,685.8z M200.3,662.3l-46.5,27.4l-16.5-11.8l14.2-8.4
		C163.6,662.5,181,659.9,200.3,662.3z M48,730.4l14.6-8.6l16.5,11.8l-46.8,27.5C30.5,748.5,36.1,737.5,48,730.4z M195.9,898.3
		L62.4,802.8c-15.8-11.3-26.4-25-29.5-38.1l62.9,45l-12.9,7.6l0.7,0.5l12.9-7.6l45.3,32.4l-12.9,7.6l0.7,0.5l12.9-7.6l45.3,32.4
		l-12.9,7.6l0.7,0.5l12.9-7.6l62.9,45C231.6,917.7,211.7,909.6,195.9,898.3z M256.9,921.8l46.8-27.5l16.5,11.8l-14.5,8.5
		C293.6,921.6,276.2,924.2,256.9,921.8z M409.1,853.6l-14.2,8.4l-16.5-11.8l46.5-27.4C426.7,835.6,421.1,846.6,409.1,853.6z"/>
</g>
<g id="grids">
	<path class="st1" d="M859.2,509.4l-4.7-3.3l0.3-0.4l4.7,3.3L859.2,509.4z M849.9,502.9l-4.7-3.3l0.3-0.4l4.7,3.3L849.9,502.9z
		 M840.5,496.3l-4.7-3.3l0.3-0.4l4.7,3.3L840.5,496.3z M831.2,489.7l-4.7-3.3l0.3-0.4l4.7,3.3L831.2,489.7z M821.9,483.2l-4.7-3.3
		l0.3-0.4l4.7,3.3L821.9,483.2z M812.5,476.7l-4.7-3.3l0.3-0.4l4.7,3.3L812.5,476.7z M803.2,470.1l-4.7-3.3l0.3-0.4l4.7,3.3
		L803.2,470.1z M793.9,463.5l-4.7-3.3l0.3-0.4l4.7,3.3L793.9,463.5z M784.6,457l-4.7-3.3l0.3-0.4l4.7,3.3L784.6,457z M775.2,450.5
		l-4.7-3.3l0.3-0.4l4.7,3.3L775.2,450.5z M765.9,443.9l-4.7-3.3l0.3-0.4l4.7,3.3L765.9,443.9z M756.6,437.4l-4.7-3.3l0.3-0.4
		l4.7,3.3L756.6,437.4z M747.2,430.8l-4.7-3.3l0.3-0.4l4.7,3.3L747.2,430.8z M737.9,424.3l-4.7-3.3l0.3-0.4l4.7,3.3L737.9,424.3z
		 M728.5,417.7l-4.7-3.3l0.3-0.4l4.7,3.3L728.5,417.7z M719.2,411.2l-4.7-3.3l0.3-0.4l4.7,3.3L719.2,411.2z M709.9,404.7l-4.7-3.3
		l0.3-0.4l4.7,3.3L709.9,404.7z M700.5,398.1l-4.7-3.3l0.3-0.4l4.7,3.3L700.5,398.1z M691.2,391.6l-4.7-3.3l0.3-0.4l4.7,3.3
		L691.2,391.6z"/>
	<path class="st1" d="M706.2,554.3l-0.2-0.4l4.9-2.9l0.2,0.4L706.2,554.3z M716.1,548.6l-0.2-0.4l4.9-2.9l0.2,0.4L716.1,548.6z
		 M726,542.9l-0.2-0.4l4.9-2.9l0.2,0.4L726,542.9z M735.9,537.2l-0.2-0.4l4.9-2.9l0.2,0.4L735.9,537.2z M745.8,531.5l-0.2-0.4
		l4.9-2.9l0.2,0.4L745.8,531.5z M755.6,525.8l-0.2-0.4l4.9-2.9l0.2,0.4L755.6,525.8z M765.5,520.1l-0.2-0.4l4.9-2.9l0.2,0.4
		L765.5,520.1z M775.4,514.4l-0.2-0.4l4.9-2.9l0.2,0.4L775.4,514.4z M785.2,508.7l-0.2-0.4l4.9-2.9l0.2,0.4L785.2,508.7z M795.1,503
		l-0.2-0.4l4.9-2.9l0.2,0.4L795.1,503z M805,497.3l-0.2-0.4l4.9-2.9l0.2,0.4L805,497.3z M814.9,491.6l-0.2-0.4l4.9-2.9l0.2,0.4
		L814.9,491.6z M824.8,485.9l-0.2-0.4l4.9-2.9l0.2,0.4L824.8,485.9z M834.6,480.2l-0.2-0.4l4.9-2.9l0.2,0.4L834.6,480.2z"/>
	<path class="st1" d="M869.9,450.3l-3.7-2.6l0.3-0.4l3.5,2.4l1-0.6l0.2,0.4L869.9,450.3z M876.1,446.7l-0.2-0.4l4.9-2.9l0.2,0.4
		L876.1,446.7z M861.6,444.4l-4.7-3.3l0.3-0.4l4.7,3.3L861.6,444.4z M885.9,441l-0.2-0.4l4.9-2.9l0.2,0.4L885.9,441z M852.2,437.9
		l-4.7-3.3l0.3-0.4l4.7,3.3L852.2,437.9z M895.8,435.4l-0.2-0.4l4.9-2.9l0.2,0.4L895.8,435.4z M842.9,431.3l-4.7-3.3l0.3-0.4
		l4.7,3.3L842.9,431.3z M905.7,429.6l-0.2-0.4l4.9-2.9l0.2,0.4L905.7,429.6z M833.5,424.8l-4.7-3.3l0.3-0.4l4.7,3.3L833.5,424.8z
		 M915.6,423.9l-0.2-0.4l4.9-2.9l0.2,0.4L915.6,423.9z M824.2,418.2l-4.7-3.3l0.3-0.4l4.7,3.3L824.2,418.2z M925.5,418.2l-0.2-0.4
		l4.9-2.9l0.2,0.4L925.5,418.2z M935.3,412.6l-0.2-0.4l4.9-2.9l0.2,0.4L935.3,412.6z M814.9,411.7l-4.7-3.3l0.3-0.4l4.7,3.3
		L814.9,411.7z M945.2,406.8l-0.2-0.4l4.9-2.9l0.2,0.4L945.2,406.8z M805.5,405.1l-4.7-3.3l0.3-0.4l4.7,3.3L805.5,405.1z
		 M955.1,401.1l-0.2-0.4l4.9-2.9l0.2,0.4L955.1,401.1z M796.2,398.6l-4.7-3.3l0.3-0.4l4.7,3.3L796.2,398.6z M965,395.4l-0.2-0.4
		l4.9-2.9l0.2,0.4L965,395.4z M786.8,392l-4.7-3.3l0.3-0.4l4.7,3.3L786.8,392z M974.8,389.7l-0.2-0.4l4.9-2.9l0.2,0.4L974.8,389.7z
		 M777.5,385.5l-4.7-3.3l0.3-0.4l4.7,3.3L777.5,385.5z M984.7,384l-0.2-0.4l4.9-2.9l0.2,0.4L984.7,384z M768.2,379l-4.7-3.3l0.3-0.4
		l4.7,3.3L768.2,379z M994.6,378.3l-0.2-0.4l4.7-2.7l-0.2-0.1l0.3-0.4l0.7,0.5L994.6,378.3z M758.8,372.4l-4.7-3.3l0.3-0.4l4.7,3.3
		L758.8,372.4z M994.2,371.9l-4.7-3.3l0.3-0.4l4.7,3.3L994.2,371.9z M749.5,365.9l-4.7-3.3l0.3-0.4l4.7,3.3L749.5,365.9z
		 M984.9,365.4l-4.7-3.3l0.3-0.4l4.7,3.3L984.9,365.4z M740.2,359.3l-4.7-3.3l0.3-0.4l4.7,3.3L740.2,359.3z M975.5,358.8l-4.7-3.3
		l0.3-0.4l4.7,3.3L975.5,358.8z M730.8,352.8l-4.7-3.3l0.3-0.4l4.7,3.3L730.8,352.8z M966.2,352.3l-4.7-3.3l0.3-0.4l4.7,3.3
		L966.2,352.3z M721.5,346.2l-4.7-3.3l0.3-0.4l4.7,3.3L721.5,346.2z M956.9,345.7l-4.7-3.3l0.3-0.4l4.7,3.3L956.9,345.7z
		 M712.2,339.7l-4.7-3.3l0.3-0.4l4.7,3.3L712.2,339.7z M947.5,339.2l-4.7-3.3l0.3-0.4l4.7,3.3L947.5,339.2z M702.9,333.1l-4.7-3.3
		l0.3-0.4l4.7,3.3L702.9,333.1z M938.2,332.6l-4.7-3.3l0.3-0.4l4.7,3.3L938.2,332.6z M693.5,326.6l-4.7-3.3l0.3-0.4l4.7,3.3
		L693.5,326.6z M928.9,326.1l-4.7-3.3l0.3-0.4l4.7,3.3L928.9,326.1z M684.2,320l-4.7-3.3l0.3-0.4l4.7,3.3L684.2,320z M919.5,319.5
		l-4.7-3.3l0.3-0.4l4.7,3.3L919.5,319.5z M674.9,313.5l-4.7-3.3l0.3-0.4l4.7,3.3L674.9,313.5z M910.2,313l-4.7-3.3l0.3-0.4l4.7,3.3
		L910.2,313z M665.5,306.9l-4.7-3.3l0.3-0.4l4.7,3.3L665.5,306.9z M900.9,306.5l-4.7-3.3l0.3-0.4l4.7,3.3L900.9,306.5z M656.2,300.4
		l-4.7-3.3l0.3-0.4l4.7,3.3L656.2,300.4z M891.6,299.9l-4.7-3.3l0.3-0.4l4.7,3.3L891.6,299.9z M646.8,293.9l-4.7-3.3l0.3-0.4
		l4.7,3.3L646.8,293.9z M882.2,293.3l-4.7-3.3l0.3-0.4l4.7,3.3L882.2,293.3z M637.5,287.3l-4.7-3.3l0.3-0.4l4.7,3.3L637.5,287.3z
		 M872.9,286.8l-4.7-3.3l0.3-0.4l4.7,3.3L872.9,286.8z M628.2,280.7l-4.7-3.3l0.3-0.4l4.7,3.3L628.2,280.7z M863.5,280.3l-4.7-3.3
		l0.3-0.4l4.7,3.3L863.5,280.3z M618.8,274.2l-4.7-3.3l0.3-0.4l4.7,3.3L618.8,274.2z M854.2,273.7l-4.7-3.3l0.3-0.4l4.7,3.3
		L854.2,273.7z M609.5,267.7l-4.7-3.3l0.3-0.4l4.7,3.3L609.5,267.7z M844.9,267.1l-4.7-3.3l0.3-0.4l4.7,3.3L844.9,267.1z
		 M600.1,261.1l-4.7-3.3l0.3-0.4l4.7,3.3L600.1,261.1z M835.5,260.6l-4.7-3.3l0.3-0.4l4.7,3.3L835.5,260.6z M590.8,254.5l-4.7-3.3
		l0.3-0.4l4.7,3.3L590.8,254.5z M826.2,254.1l-4.7-3.3l0.3-0.4l4.7,3.3L826.2,254.1z M581.5,248l-4.7-3.3l0.3-0.4l4.7,3.3L581.5,248
		z M816.8,247.5l-4.7-3.3l0.3-0.4l4.7,3.3L816.8,247.5z M572.2,241.5l-4.7-3.3l0.3-0.4l4.7,3.3L572.2,241.5z M807.5,240.9l-4.7-3.3
		l0.3-0.4l4.7,3.3L807.5,240.9z M562.8,234.9l-4.7-3.3l0.3-0.4l4.7,3.3L562.8,234.9z M798.2,234.4l-4.7-3.3l0.3-0.4l4.7,3.3
		L798.2,234.4z M553.5,228.4L553,228l5-2.9l0.2,0.4l-4.6,2.6L553.5,228.4z M788.8,227.9l-4.7-3.3l0.3-0.4l4.7,3.3L788.8,227.9z
		 M563.2,222.6l-0.2-0.4l4.9-2.9l0.2,0.4L563.2,222.6z M779.5,221.3l-4.7-3.3l0.3-0.4l4.7,3.3L779.5,221.3z M573.1,217l-0.2-0.4
		l4.9-2.9l0.2,0.4L573.1,217z M770.2,214.8l-4.7-3.3l0.3-0.4l4.7,3.3L770.2,214.8z M582.9,211.3l-0.2-0.4l4.9-2.9l0.2,0.4
		L582.9,211.3z M760.9,208.2l-4.7-3.3l0.3-0.4l4.7,3.3L760.9,208.2z M592.8,205.5l-0.2-0.4l4.9-2.9l0.2,0.4L592.8,205.5z
		 M751.5,201.7l-4.7-3.3l0.3-0.4l4.7,3.3L751.5,201.7z M602.7,199.8l-0.2-0.4l4.9-2.9l0.2,0.4L602.7,199.8z M742.2,195.1l-4.7-3.3
		l0.3-0.4l4.7,3.3L742.2,195.1z M612.5,194.2l-0.2-0.4l4.9-2.9l0.2,0.4L612.5,194.2z M732.9,188.6l-4.7-3.3l0.3-0.4l4.7,3.3
		L732.9,188.6z M622.4,188.5l-0.2-0.4l4.9-2.9l0.2,0.4L622.4,188.5z M632.3,182.7l-0.2-0.4l4.9-2.9l0.2,0.4L632.3,182.7z
		 M723.5,182.1l-4.7-3.3l0.3-0.4l4.7,3.3L723.5,182.1z M642.2,177.1l-0.2-0.4l4.9-2.9l0.2,0.4L642.2,177.1z M714.2,175.5l-4.7-3.3
		l0.3-0.4l4.7,3.3L714.2,175.5z M652.1,171.4l-0.2-0.4l4.9-2.9l0.2,0.4L652.1,171.4z M704.8,168.9l-4.7-3.3l0.3-0.4l4.7,3.3
		L704.8,168.9z M661.9,165.6l-0.2-0.4l4.9-2.9l0.2,0.4L661.9,165.6z M695.5,162.4l-4.7-3.3l0.3-0.4l4.7,3.3L695.5,162.4z
		 M671.8,159.9l-0.2-0.4l4.9-2.9l0.2,0.4L671.8,159.9z M686.2,155.9l-3.3-2.3l-1.2,0.7l-0.2-0.4l1.5-0.8l3.5,2.5L686.2,155.9z"/>
	<g>
		<path class="st1" d="M606.4,541.9l-4.6-3.2l0.3-0.4l4.6,3.2L606.4,541.9z M597.2,535.4l-4.6-3.2l0.3-0.4l4.6,3.2L597.2,535.4z
			 M588,529l-4.6-3.2l0.3-0.4l4.6,3.2L588,529z M578.7,522.5l-4.6-3.2l0.3-0.4l4.6,3.2L578.7,522.5z M569.5,516l-4.6-3.2l0.3-0.4
			l4.6,3.2L569.5,516z M560.3,509.6l-4.6-3.2l0.3-0.4l4.6,3.2L560.3,509.6z M551.1,503.1l-4.6-3.2l0.3-0.4l4.6,3.2L551.1,503.1z
			 M541.9,496.7l-4.6-3.2l0.3-0.4l4.6,3.2L541.9,496.7z M532.6,490.2l-4.6-3.2l0.3-0.4l4.6,3.2L532.6,490.2z M523.4,483.7l-4.6-3.2
			l0.3-0.4l4.6,3.2L523.4,483.7z M514.2,477.2l-4.6-3.2l0.3-0.4l4.6,3.2L514.2,477.2z M505,470.8l-4.6-3.2l0.3-0.4l4.6,3.2
			L505,470.8z M495.7,464.3l-4.6-3.2l0.3-0.4l4.6,3.2L495.7,464.3z M486.5,457.8l-4.6-3.2l0.3-0.4l4.6,3.2L486.5,457.8z
			 M477.3,451.4l-4.6-3.2l0.3-0.4l4.6,3.2L477.3,451.4z M468,444.9l-4.6-3.2l0.3-0.4l4.6,3.2L468,444.9z M458.8,438.4l-4.6-3.2
			l0.3-0.4l4.6,3.2L458.8,438.4z M449.6,431.9l-4.6-3.2l0.3-0.4l4.6,3.2L449.6,431.9z M440.4,425.5l-4.6-3.2l0.3-0.4l4.6,3.2
			L440.4,425.5z M431.2,419l-4.6-3.2l0.3-0.4l4.6,3.2L431.2,419z M422,412.5l-4.6-3.2l0.3-0.4l4.6,3.2L422,412.5z M412.8,406.1
			l-4.6-3.2l0.3-0.4l4.6,3.2L412.8,406.1z M403.5,399.6l-4.6-3.2l0.3-0.4l4.6,3.2L403.5,399.6z M394.3,393.2l-4.6-3.2l0.3-0.4
			l4.6,3.2L394.3,393.2z M385.1,386.6l-4.6-3.2l0.3-0.4l4.6,3.2L385.1,386.6z M375.8,380.2l-4.6-3.2l0.3-0.4l4.6,3.2L375.8,380.2z
			 M366.6,373.7l-4.6-3.2l0.3-0.4l4.6,3.2L366.6,373.7z M357.4,367.3l-4.6-3.2l0.3-0.4l4.6,3.2L357.4,367.3z M348.2,360.8l-4.6-3.2
			l0.3-0.4l4.6,3.2L348.2,360.8z M338.9,354.3l-4.6-3.2l0.3-0.4l4.6,3.2L338.9,354.3z"/>
		<path class="st1" d="M351.1,693.2l-4.6-3.2l0.3-0.4l4.6,3.2L351.1,693.2z M341.8,686.7l-4.6-3.2l0.3-0.4l4.6,3.2L341.8,686.7z
			 M332.6,680.3L328,677l0.3-0.4l4.6,3.2L332.6,680.3z M323.4,673.8l-4.6-3.2l0.3-0.4l4.6,3.2L323.4,673.8z M314.2,667.3l-4.6-3.2
			l0.3-0.4l4.6,3.2L314.2,667.3z M305,660.9l-4.6-3.2l0.3-0.4l4.6,3.2L305,660.9z M295.7,654.4l-4.6-3.2l0.3-0.4l4.6,3.2
			L295.7,654.4z M286.5,647.9l-4.6-3.2l0.3-0.4l4.6,3.2L286.5,647.9z M277.3,641.4l-4.6-3.2l0.3-0.4l4.6,3.2L277.3,641.4z
			 M268.1,635l-4.6-3.2l0.3-0.4l4.6,3.2L268.1,635z M258.9,628.5l-4.6-3.2l0.3-0.4l4.6,3.2L258.9,628.5z M249.7,622.1l-4.6-3.2
			l0.3-0.4l4.6,3.2L249.7,622.1z M240.4,615.6l-4.6-3.2l0.3-0.4l4.6,3.2L240.4,615.6z M231.2,609.1l-4.6-3.2l0.3-0.4l4.6,3.2
			L231.2,609.1z M222,602.6l-4.6-3.2l0.3-0.4l4.6,3.2L222,602.6z M212.7,596.2l-4.6-3.2l0.3-0.4l4.6,3.2L212.7,596.2z M203.5,589.7
			l-4.6-3.2l0.3-0.4l4.6,3.2L203.5,589.7z M194.3,583.2l-4.6-3.2l0.3-0.4l4.6,3.2L194.3,583.2z M185.1,576.8l-4.6-3.2l0.3-0.4
			l4.6,3.2L185.1,576.8z M175.8,570.3l-4.6-3.2l0.3-0.4l4.6,3.2L175.8,570.3z M166.6,563.8l-4.6-3.2l0.3-0.4l4.6,3.2L166.6,563.8z
			 M157.4,557.3l-4.6-3.2l0.3-0.4l4.6,3.2L157.4,557.3z M148.2,550.9l-4.6-3.2l0.3-0.4l4.6,3.2L148.2,550.9z M139,544.4l-4.6-3.2
			l0.3-0.4l4.6,3.2L139,544.4z M129.7,537.9l-4.6-3.2l0.3-0.4l4.6,3.2L129.7,537.9z M120.5,531.5l-4.6-3.2l0.3-0.4l4.6,3.2
			L120.5,531.5z M111.3,525l-4.6-3.2l0.3-0.4l4.6,3.2L111.3,525z M102.1,518.6l-4.6-3.2l0.3-0.4l4.6,3.2L102.1,518.6z M92.9,512.1
			l-4.6-3.2l0.3-0.4l4.6,3.2L92.9,512.1z M83.6,505.6l-4.6-3.2l0.3-0.4l4.6,3.2L83.6,505.6z"/>
		<path class="st2" d="M81.7,501.9l-0.1-0.2l255-147.2l0.1,0.2L81.7,501.9z"/>
		<path class="st1" d="M95.2,525.8l-2.5,1.4l0.2,0.4l2.5-1.4L95.2,525.8z"/>
		<path class="st1" d="M100.3,523.4l-0.2-0.4l4.9-2.9l0.2,0.4L100.3,523.4z M110.1,517.7l-0.2-0.4l4.9-2.9l0.2,0.4L110.1,517.7z
			 M119.9,512l-0.2-0.4l4.9-2.9l0.2,0.4L119.9,512z M129.8,506.4l-0.2-0.4l4.9-2.9l0.2,0.4L129.8,506.4z M139.6,500.7l-0.2-0.4
			l4.9-2.9l0.2,0.4L139.6,500.7z M149.4,495l-0.2-0.4l4.9-2.9l0.2,0.4L149.4,495z M159.2,489.3l-0.2-0.4l4.9-2.9l0.2,0.4
			L159.2,489.3z M169.1,483.7l-0.2-0.4l4.9-2.9l0.2,0.4L169.1,483.7z M178.9,478l-0.2-0.4l4.9-2.9l0.2,0.4L178.9,478z M188.7,472.3
			l-0.2-0.4l4.9-2.9l0.2,0.4L188.7,472.3z M198.6,466.6l-0.2-0.4l4.9-2.9l0.2,0.4L198.6,466.6z M208.4,461l-0.2-0.4l4.9-2.9l0.2,0.4
			L208.4,461z M218.2,455.3l-0.2-0.4l4.9-2.9l0.2,0.4L218.2,455.3z M228,449.6l-0.2-0.4l4.9-2.9l0.2,0.4L228,449.6z M237.8,444
			l-0.2-0.4l4.9-2.9l0.2,0.4L237.8,444z M247.7,438.3l-0.2-0.4l4.9-2.9l0.2,0.4L247.7,438.3z M257.5,432.6l-0.2-0.4l4.9-2.9l0.2,0.4
			L257.5,432.6z M267.4,426.9l-0.2-0.4l4.9-2.9l0.2,0.4L267.4,426.9z M277.1,421.3l-0.2-0.4l4.9-2.9l0.2,0.4L277.1,421.3z
			 M287,415.6l-0.2-0.4l4.9-2.9l0.2,0.4L287,415.6z M296.8,409.9l-0.2-0.4l4.9-2.9l0.2,0.4L296.8,409.9z M306.6,404.2l-0.2-0.4
			l4.9-2.9l0.2,0.4L306.6,404.2z M316.5,398.6l-0.2-0.4l4.9-2.9l0.2,0.4L316.5,398.6z M326.3,392.9l-0.2-0.4l4.9-2.9l0.2,0.4
			L326.3,392.9z M336.1,387.2l-0.2-0.4l4.9-2.9l0.2,0.4L336.1,387.2z M345.9,381.5l-0.2-0.4l4.9-2.9l0.2,0.4L345.9,381.5z
			 M355.8,375.9l-0.2-0.4l4.9-2.9l0.2,0.4L355.8,375.9z M365.6,370.2l-0.2-0.4l4.9-2.9l0.2,0.4L365.6,370.2z M375.4,364.5l-0.2-0.4
			l4.9-2.9l0.2,0.4L375.4,364.5z"/>
		<path class="st1" d="M387.5,357l-2.5,1.4l0.2,0.4l2.5-1.4L387.5,357z"/>
		<path class="st1" d="M322.7,679.9l-0.2-0.4l4.9-2.9l0.2,0.4L322.7,679.9z M332.5,674.2l-0.2-0.4l4.9-2.9l0.2,0.4L332.5,674.2z
			 M342.3,668.5l-0.2-0.4l4.9-2.9l0.2,0.4L342.3,668.5z M352.1,662.9l-0.2-0.4l4.9-2.9l0.2,0.4L352.1,662.9z M362,657.2l-0.2-0.4
			l4.9-2.9l0.2,0.4L362,657.2z M371.8,651.5l-0.2-0.4l4.9-2.9l0.2,0.4L371.8,651.5z M381.6,645.8l-0.2-0.4l4.9-2.9l0.2,0.4
			L381.6,645.8z M391.4,640.2l-0.2-0.4l4.9-2.9l0.2,0.4L391.4,640.2z M401.3,634.5l-0.2-0.4l4.9-2.9l0.2,0.4L401.3,634.5z
			 M411.1,628.8l-0.2-0.4l4.9-2.9l0.2,0.4L411.1,628.8z M420.9,623.1l-0.2-0.4l4.9-2.9l0.2,0.4L420.9,623.1z M430.8,617.5l-0.2-0.4
			l4.9-2.9l0.2,0.4L430.8,617.5z M440.6,611.8l-0.2-0.4l4.9-2.9l0.2,0.4L440.6,611.8z M450.4,606.1l-0.2-0.4l4.9-2.9l0.2,0.4
			L450.4,606.1z M460.2,600.4l-0.2-0.4l4.9-2.9l0.2,0.4L460.2,600.4z M470.1,594.8l-0.2-0.4l4.9-2.9l0.2,0.4L470.1,594.8z
			 M479.9,589.1l-0.2-0.4l4.9-2.9l0.2,0.4L479.9,589.1z M489.7,583.5l-0.2-0.4l4.9-2.9l0.2,0.4L489.7,583.5z M499.5,577.7l-0.2-0.4
			l4.9-2.9l0.2,0.4L499.5,577.7z M509.3,572.1l-0.2-0.4l4.9-2.9l0.2,0.4L509.3,572.1z M519.2,566.4L519,566l4.9-2.9l0.2,0.4
			L519.2,566.4z M529,560.8l-0.2-0.4l4.9-2.9l0.2,0.4L529,560.8z M538.9,555l-0.2-0.4l4.9-2.9l0.2,0.4L538.9,555z M548.7,549.4
			l-0.2-0.4l4.9-2.9l0.2,0.4L548.7,549.4z M558.5,543.7l-0.2-0.4l4.9-2.9l0.2,0.4L558.5,543.7z M568.3,538.1l-0.2-0.4l4.9-2.9
			l0.2,0.4L568.3,538.1z M578.1,532.4l-0.2-0.4l4.9-2.9l0.2,0.4L578.1,532.4z M588,526.7l-0.2-0.4l4.9-2.9l0.2,0.4L588,526.7z
			 M597.8,521l-0.2-0.4l4.9-2.9l0.2,0.4L597.8,521z"/>
		<path class="st1" d="M487.4,383.5H487v-5.7h0.4V383.5z M487.4,372.1H487v-5.7h0.4V372.1z M487.4,360.7H487V355h0.4V360.7z
			 M487.4,349.3H487v-5.7h0.4V349.3z M487.4,337.9H487v-5.7h0.4V337.9z M487.4,326.5H487v-5.7h0.4V326.5z M487.4,315.1H487v-5.7h0.4
			V315.1z M487.4,303.7H487V298h0.4V303.7z M487.4,292.3H487v-5.7h0.4V292.3z M487.4,280.9H487v-5.7h0.4V280.9z M487.4,269.5H487
			v-5.7h0.4V269.5z M487.4,258.1H487v-5.7h0.4V258.1z"/>
		<path class="st1" d="M107.4,518.1H107v-5.7h0.4V518.1z M107.4,506.7H107V501h0.4V506.7z M107.4,495.4H107v-5.7h0.4V495.4z
			 M107.4,483.9H107v-5.7h0.4V483.9z M107.4,472.6H107v-5.7h0.4V472.6z M107.4,461.1H107v-5.7h0.4V461.1z M107.4,449.8H107V444h0.4
			V449.8z M107.4,438.3H107v-5.7h0.4V438.3z M107.4,427H107v-5.7h0.4V427z M107.4,415.5H107v-5.7h0.4V415.5z M107.4,404.1H107v-5.7
			h0.4V404.1z M107.4,392.7H107V387h0.4V392.7z"/>
		<path class="st1" d="M328.4,677.1H328v-5.7h0.4V677.1z M328.4,665.7H328V660h0.4V665.7z M328.4,654.4H328v-5.7h0.4V654.4z
			 M328.4,642.9H328v-5.7h0.4V642.9z M328.4,631.6H328v-5.7h0.4V631.6z M328.4,620.1H328v-5.7h0.4V620.1z M328.4,608.8H328V603h0.4
			V608.8z M328.4,597.3H328v-5.7h0.4V597.3z M328.4,586H328v-5.7h0.4V586z M328.4,574.5H328v-5.7h0.4V574.5z M328.4,563.1H328v-5.7
			h0.4V563.1z M328.4,551.7H328V546h0.4V551.7z"/>
	</g>
	<path class="st2" d="M725.6,855.4l-132-92.6l0.1-0.2l132,92.6L725.6,855.4z"/>
	<path class="st2" d="M591.3,761.2l-53.7-37.7l0.1-0.2l53.7,37.7L591.3,761.2z"/>
	<path class="st1" d="M462.3,764.7l-0.3-0.4l5.6-3.2l0.3,0.4L462.3,764.7z M473.5,758.2l-0.3-0.4l5.6-3.2l0.3,0.4L473.5,758.2z
		 M484.8,751.7l-0.3-0.4l5.6-3.2l0.3,0.4L484.8,751.7z M496,745.1l-0.3-0.4l5.6-3.2l0.3,0.4L496,745.1z M507.3,738.7l-0.3-0.4
		l5.6-3.2l0.3,0.4L507.3,738.7z M518.6,732.2l-0.3-0.4l5.6-3.2l0.3,0.4L518.6,732.2z M529.8,725.7l-0.3-0.4l5.6-3.2l0.3,0.4
		L529.8,725.7z M541.1,719.2l-0.3-0.4l5.6-3.2l0.3,0.4L541.1,719.2z M552.3,712.7l-0.3-0.4l5.6-3.2l0.3,0.4L552.3,712.7z
		 M563.6,706.2l-0.3-0.4l5.6-3.2l0.3,0.4L563.6,706.2z M574.8,699.7l-0.3-0.4l5.6-3.2l0.3,0.4L574.8,699.7z M586.1,693.2l-0.3-0.4
		l5.6-3.2l0.3,0.4L586.1,693.2z M597.4,686.7l-0.3-0.4l5.6-3.2l0.3,0.4L597.4,686.7z M608.6,680.2l-0.3-0.4l5.6-3.2l0.3,0.4
		L608.6,680.2z M619.8,673.7l-0.3-0.4l5.6-3.2l0.3,0.4L619.8,673.7z M631.1,667.2l-0.3-0.4l5.6-3.2l0.3,0.4L631.1,667.2z
		 M642.4,660.7l-0.3-0.4l5.6-3.2l0.3,0.4L642.4,660.7z M653.7,654.2l-0.3-0.4l5.6-3.2l0.3,0.4L653.7,654.2z M664.9,647.7l-0.3-0.4
		l5.6-3.2l0.3,0.4L664.9,647.7z M676.2,641.2l-0.3-0.4l5.6-3.2l0.3,0.4L676.2,641.2z M687.4,634.7l-0.3-0.4l5.6-3.2l0.3,0.4
		L687.4,634.7z M698.6,628.2l-0.3-0.4l5.6-3.2l0.3,0.4L698.6,628.2z M709.9,621.7l-0.3-0.4l5.6-3.2l0.3,0.4L709.9,621.7z
		 M721.2,615.2l-0.3-0.4l5.6-3.2l0.3,0.4L721.2,615.2z M732.5,608.7l-0.3-0.4l5.6-3.2l0.3,0.4L732.5,608.7z M743.7,602.2l-0.3-0.4
		l5.6-3.2l0.3,0.4L743.7,602.2z M754.9,595.7l-0.3-0.4l4.9-2.8l0.3,0.4L754.9,595.7z"/>
	<path class="st1" d="M518.6,804.7l-0.3-0.4l5.6-3.2l0.3,0.4L518.6,804.7z M529.8,798.2l-0.3-0.4l5.6-3.2l0.3,0.4L529.8,798.2z
		 M541.1,791.7l-0.3-0.4l5.6-3.2l0.3,0.4L541.1,791.7z M552.3,785.2l-0.3-0.4l5.6-3.2l0.3,0.4L552.3,785.2z M563.6,778.8l-0.3-0.4
		l5.6-3.2l0.3,0.4L563.6,778.8z M574.9,772.2l-0.3-0.4l5.6-3.2l0.3,0.4L574.9,772.2z M586.1,765.7l-0.3-0.4l5.6-3.2l0.3,0.4
		L586.1,765.7z M597.4,759.2l-0.3-0.4l5.6-3.2l0.3,0.4L597.4,759.2z M608.6,752.7l-0.3-0.4l5.6-3.2l0.3,0.4L608.6,752.7z
		 M619.9,746.3l-0.3-0.4l5.6-3.2l0.3,0.4L619.9,746.3z M631.1,739.8l-0.3-0.4l5.6-3.2l0.3,0.4L631.1,739.8z M642.4,733.2l-0.3-0.4
		l5.6-3.2l0.3,0.4L642.4,733.2z M653.7,726.7l-0.3-0.4l5.6-3.2l0.3,0.4L653.7,726.7z M664.9,720.2l-0.3-0.4l5.6-3.2l0.3,0.4
		L664.9,720.2z M676.2,713.7l-0.3-0.4l5.6-3.2l0.3,0.4L676.2,713.7z M687.4,707.3l-0.3-0.4l5.6-3.2l0.3,0.4L687.4,707.3z
		 M698.7,700.8l-0.3-0.4l5.6-3.2l0.3,0.4L698.7,700.8z M709.9,694.2l-0.3-0.4l5.6-3.2l0.3,0.4L709.9,694.2z M721.2,687.7l-0.3-0.4
		l5.6-3.2l0.3,0.4L721.2,687.7z M732.5,681.2l-0.3-0.4l5.6-3.2l0.3,0.4L732.5,681.2z M743.7,674.7l-0.3-0.4l5.6-3.2l0.3,0.4
		L743.7,674.7z M754.9,668.3l-0.3-0.4l5.6-3.2l0.3,0.4L754.9,668.3z M766.2,661.8l-0.3-0.4l5.6-3.2l0.3,0.4L766.2,661.8z
		 M777.5,655.2l-0.3-0.4l5.6-3.2l0.3,0.4L777.5,655.2z M788.8,648.7l-0.3-0.4l5.6-3.2l0.3,0.4L788.8,648.7z M800,642.2l-0.3-0.4
		l5.6-3.2l0.3,0.4L800,642.2z M811.2,635.8l-0.3-0.4l4.9-2.8l0.3,0.4L811.2,635.8z"/>
	<path class="st1" d="M652.5,898.1l-0.3-0.4l5.6-3.2l0.3,0.4L652.5,898.1z M663.8,891.6l-0.3-0.4l5.6-3.2l0.3,0.4L663.8,891.6z
		 M675.1,885.2l-0.3-0.4l5.6-3.2l0.3,0.4L675.1,885.2z M686.3,878.7l-0.3-0.4l5.6-3.2l0.3,0.4L686.3,878.7z M697.6,872.1l-0.3-0.4
		l5.6-3.2l0.3,0.4L697.6,872.1z M708.9,865.6l-0.3-0.4l5.6-3.2l0.3,0.4L708.9,865.6z M720.1,859.1l-0.3-0.4l5.6-3.2l0.3,0.4
		L720.1,859.1z M731.3,852.6l-0.3-0.4l5.6-3.2l0.3,0.4L731.3,852.6z M742.6,846.2l-0.3-0.4l5.6-3.2l0.3,0.4L742.6,846.2z
		 M753.9,839.7l-0.3-0.4l5.6-3.2l0.3,0.4L753.9,839.7z M765.2,833.1l-0.3-0.4l5.6-3.2l0.3,0.4L765.2,833.1z M776.4,826.6l-0.3-0.4
		l5.6-3.2l0.3,0.4L776.4,826.6z M787.6,820.1l-0.3-0.4l5.6-3.2l0.3,0.4L787.6,820.1z M798.9,813.7l-0.3-0.4l5.6-3.2l0.3,0.4
		L798.9,813.7z M810.1,807.2l-0.3-0.4l5.6-3.2l0.3,0.4L810.1,807.2z M821.4,800.7l-0.3-0.4l5.6-3.2l0.3,0.4L821.4,800.7z
		 M832.7,794.1l-0.3-0.4l5.6-3.2l0.3,0.4L832.7,794.1z M843.9,787.6l-0.3-0.4l5.6-3.2l0.3,0.4L843.9,787.6z M855.2,781.1l-0.3-0.4
		l5.6-3.2l0.3,0.4L855.2,781.1z M866.4,774.7l-0.3-0.4l5.6-3.2l0.3,0.4L866.4,774.7z M877.7,768.2l-0.3-0.4l5.6-3.2l0.3,0.4
		L877.7,768.2z M889,761.7l-0.3-0.4l5.6-3.2l0.3,0.4L889,761.7z M900.2,755.1l-0.3-0.4l5.6-3.2l0.3,0.4L900.2,755.1z M911.5,748.6
		l-0.3-0.4l5.6-3.2l0.3,0.4L911.5,748.6z M922.7,742.1l-0.3-0.4l5.6-3.2l0.3,0.4L922.7,742.1z M934,735.7l-0.3-0.4l5.6-3.2l0.3,0.4
		L934,735.7z M945.2,729.2l-0.3-0.4l4.9-2.8l0.3,0.4L945.2,729.2z"/>
	<path class="st1" d="M786.8,634.1h-0.4v-5.7h0.4V634.1z M786.8,622.7h-0.4V617h0.4V622.7z M786.8,611.3h-0.4v-5.7h0.4V611.3z
		 M786.8,599.9h-0.4v-5.7h0.4V599.9z M786.8,588.5h-0.4v-5.7h0.4V588.5z M786.8,577.1h-0.4v-5.7h0.4V577.1z M786.8,565.7h-0.4V560
		h0.4V565.7z M786.8,554.3h-0.4v-5.7h0.4V554.3z M786.8,542.9h-0.4v-5.7h0.4V542.9z M786.8,531.5h-0.4v-5.7h0.4V531.5z M786.8,520.1
		h-0.4v-5.7h0.4V520.1z M786.8,508.7h-0.4V503h0.4V508.7z"/>
	<path class="st1" d="M812.5,807.6H812v-5.7h0.4V807.6z M812.5,796.2H812v-5.7h0.4V796.2z M812.5,784.8H812v-5.7h0.4V784.8z
		 M812.5,773.4H812v-5.7h0.4V773.4z M812.5,762H812v-5.7h0.4V762z M812.5,750.6H812v-5.7h0.4V750.6z M812.5,739.2H812v-5.7h0.4
		V739.2z M812.5,727.8H812v-5.7h0.4V727.8z M812.5,716.4H812v-5.7h0.4V716.4z M812.5,705H812v-5.7h0.4V705z M812.5,693.6H812v-5.7
		h0.4V693.6z M812.5,682.2H812v-5.7h0.4V682.2z"/>
	<path class="st1" d="M918.4,744.1H918v-5.7h0.4V744.1z M918.4,732.7H918V727h0.4V732.7z M918.4,721.4H918v-5.7h0.4V721.4z
		 M918.4,709.9H918v-5.7h0.4V709.9z M918.4,698.6H918v-5.7h0.4V698.6z M918.4,687.1H918v-5.7h0.4V687.1z M918.4,675.8H918V670h0.4
		V675.8z M918.4,664.3H918v-5.7h0.4V664.3z M918.4,653H918v-5.7h0.4V653z M918.4,641.5H918v-5.7h0.4V641.5z M918.4,630.1H918v-5.7
		h0.4V630.1z M918.4,618.7H918V613h0.4V618.7z"/>
</g>
<g id="icons">
	<rect y="0" class="st3" width="948" height="922.5"/>
	<path class="st1" d="M333.8,351.3l-2.3-1.6l0.3-0.3l2.3,1.6L333.8,351.3z"/>
	<path class="st1" d="M615.3,548.3l-0.2,0.3l2.3,1.6l0.2-0.3L615.3,548.3z"/>
	<path class="st2" d="M82.4,502.5h-2l1-1.7L82.4,502.5z"/>
	<path class="st2" d="M336.9,355.6l1-1.7h-2L336.9,355.6z"/>
	<path class="st1" d="M317.5,682.4l-2.5,1.4l0.2,0.4l2.5-1.4L317.5,682.4z"/>
	<path class="st1" d="M609.9,513.5l-2.5,1.4l0.2,0.4l2.5-1.4L609.9,513.5z"/>
	<path class="st4" d="M788.5,379.6L788.5,379.6l-56.4-39.5l0.2-0.1l129.5-74.8l0.1,0.1l56.3,39.5l-0.2,0.1L788.5,379.6z
		 M732.6,340.1l55.9,39.2l129.2-74.6l-55.9-39.2L732.6,340.1z"/>
	<path class="st4" d="M792,361.7c-7.3,0-15.8-2.5-22.4-7.1c-5.9-4.2-9.4-9.4-9.2-14c0.2-3.1,1.9-5.7,4.9-7.5
		c7.9-4.6,22.8-2.4,33,4.8c5.9,4.2,9.4,9.4,9.2,14c-0.2,3.1-1.9,5.7-4.9,7.5C799.8,360.9,796,361.7,792,361.7z M776,330.8
		c-4,0-7.7,0.8-10.5,2.4c-3,1.7-4.7,4.3-4.8,7.3c-0.2,4.6,3.2,9.7,9,13.8c10.2,7.1,24.9,9.3,32.8,4.7c3-1.7,4.7-4.3,4.8-7.3
		c0.2-4.6-3.2-9.7-9-13.8C791.7,333.4,783.3,330.8,776,330.8z"/>
	<path class="st2" d="M593.4,763.7l-0.8-1.7l2,0.2L593.4,763.7z"/>
	<path class="st2" d="M724.9,856l2,0.2l-0.8-1.8L724.9,856z"/>
	<path class="st2" d="M537.4,724.5l-0.8-1.7l2,0.2L537.4,724.5z"/>
	<path class="st2" d="M590.6,761.8l2,0.2l-0.8-1.8L590.6,761.8z"/>
	<path class="st5" d="M437.7,138.3c-1,0.1-1.4-0.2-1-0.8l13.3-20.5c0.4-0.6,1.2-0.5,1.9,0.2l23.5,25c0.7,0.7,0.3,1-0.8,0.6
		l-19.9-6.9L437.7,138.3z M443.4,134.6l10.4-1.5l13.3,4.6l-15.3-16.3L443.4,134.6z"/>
	<path class="st5" d="M533.7,110.2c-7-4.9-8.3-11.4-2.9-14.5c5.4-3.1,15.4-1.7,22.4,3.2L533.7,110.2z M535.3,97.3l6.2,4.3l5.7-3.3
		C543.1,96.5,538.5,96.2,535.3,97.3z M539.1,103l-6.2-4.3c-2.1,1.9-1.9,4.8,0.5,7.6L539.1,103z M529.2,94.5
		c-4.1,2.3-11.5,1.2-16.8-2.4c-5.2-3.7-6.2-8.5-2.1-10.9c4.1-2.3,11.5-1.2,16.8,2.4C532.3,87.3,533.3,92.2,529.2,94.5z M526,92.3
		c2.7-1.6,2.1-4.8-1.4-7.3c-3.5-2.4-8.5-3.1-11.2-1.6c-2.7,1.5-2.1,4.8,1.4,7.3C518.3,93.2,523.4,93.9,526,92.3z"/>
	<path class="st5" d="M255.9,260.3l-1.5-7.7c-0.9-4.2-6.8-8.4-13.4-9.4c-6.6-1-11.2,1.7-10.4,6c0.9,4.2,6.8,8.4,13.4,9.4
		L255.9,260.3z M258.4,253.2l2.1,10.3l-15.8-2.3c-8.7-1.2-16.7-6.9-17.9-12.5c-1.1-5.7,5.1-9.3,13.8-8
		C249.2,242,257.3,247.6,258.4,253.2z M252.9,269.2l17.1-9.9l3.1,2.2l-17.1,9.9L252.9,269.2z"/>
	<path class="st5" d="M304,201.3c6.7-3.9,19.3-2.1,28,4c8.7,6.1,10.4,14.2,3.6,18.1c-6.7,3.9-19.3,2.1-28-4
		C298.9,213.4,297.2,205.2,304,201.3z M307.2,203.6c-5.4,3.1-4.1,9.6,2.9,14.5c7,4.9,17,6.3,22.4,3.2c5.4-3.1,4.1-9.6-2.9-14.5
		C322.6,201.9,312.5,200.4,307.2,203.6z M321.2,218.4l1.2,2.1c0.3,0.6,0,1.1-0.9,1.1c-0.9,0-1.8-0.4-2.1-1l-0.9-1.5
		C318.9,218.3,319.8,218.1,321.2,218.4z M316,207.9l9.6,3l2.6-1.5c0.6-0.3,1.6-0.2,2.3,0.3c0.7,0.5,0.9,1.1,0.3,1.5l-1.4,0.9l3.2,1
		c0.9,0.3,1.5,1,1.3,1.5c-0.1,0.5-1,0.7-1.8,0.4l-12-3.7C317.3,210.4,316,208.7,316,207.9z M311.5,204.3c0.9,0,1.8,0.4,2.1,1
		l5.3,9.3l3.1-1.8c1-0.6,3.1,0.2,3.7,1.1l-9.1,5.3c-0.6,0.3-1.6,0.2-2.3-0.3c-0.7-0.5-0.9-1.1-0.3-1.5l2.6-1.5l-4.1-7.1l-3.3-1
		c-0.9-0.3-1.5-1-1.3-1.5c0.1-0.5,1-0.7,1.8-0.4l1.4,0.4l-0.6-1C310.3,204.8,310.7,204.3,311.5,204.3z"/>
	<path class="st5" d="M46.7,372.1l-17.1,9.9l11.1,7.8l17.1-9.9L46.7,372.1z M43.6,369.9c-6.1-4.3-14.9-5.5-19.6-2.8
		s-3.6,8.4,2.5,12.7L43.6,369.9z M17.1,371c0-2.5,1.2-4.7,3.8-6.2c2.6-1.5,6.2-2.1,10-1.8l-0.5-2.6l4,0.6l0.5,2.6
		c4.1,0.9,8.1,2.6,11.3,4.8l15.8,11.1c0.9,0.6,1,1.4,0.4,1.8l-19.5,11.3c-0.7,0.4-1.9,0.2-2.8-0.4l-15.8-11.1
		c-3.3-2.3-5.5-5.1-6.5-7.6l-4.1-0.6l-0.5-2.6L17.1,371z M28.2,374.7c-0.7,0.4-1.9,0.2-2.8-0.4c-0.9-0.6-1-1.4-0.4-1.8
		c0.7-0.4,1.9-0.2,2.8,0.4C28.7,373.5,28.9,374.3,28.2,374.7z M35.5,370.5c-0.7,0.4-1.9,0.2-2.8-0.4c-0.9-0.6-1-1.4-0.4-1.8
		c0.7-0.4,1.9-0.2,2.8,0.4C36,369.2,36.2,370.1,35.5,370.5z"/>
	<path class="st5" d="M102.6,321.6l4.9-2.8c0.7-0.4,1.9-0.2,2.8,0.4l25.3,17.7c0.9,0.6,1,1.4,0.4,1.8l-22,12.7
		c-0.7,0.4-1.9,0.2-2.8-0.4l-25.3-17.7c-0.9-0.6-1-1.4-0.4-1.8l4.9-2.8l-3.1-2.2l2.4-1.4l3.1,2.2l7.3-4.2l-3.1-2.2l2.4-1.4
		L102.6,321.6z M103.3,325.3l-7.3,4.2l3.1,2.2l-2.4,1.4l-3.1-2.2l-3.7,2.1l6.3,4.4l19.5-11.3l-6.3-4.4l-3.7,2.1l3.1,2.2l-2.4,1.4
		L103.3,325.3z M118.9,328.4l-19.5,11.3l12.6,8.9l19.5-11.3L118.9,328.4z"/>
	<path class="st5" d="M379.1,174.1L395,165c0.7-0.4,1.9-0.2,2.8,0.4l15.8,11.1c0.9,0.6,1,1.4,0.4,1.8l-19.5,11.3
		c-0.7,0.4-1.9,0.2-2.8-0.4l-15.8-11.1c-0.9-0.6-1-1.4-0.4-1.8l1.2-0.7l-1.6-1.1c-6.1-4.3-7.3-10-2.5-12.7c3.2-1.9,8.6-1.9,13.8-0.1
		l-0.8,2.2c-5.4-1.9-10.6-0.9-11.7,2.2c-0.7,2.1,0.7,4.8,3.7,6.9L379.1,174.1z M379.9,177.8l12.6,8.9l17.1-9.9l-12.6-8.9
		L379.9,177.8z M390.7,177.5l4.9-2.8l3.1,2.2l-4.9,2.8L390.7,177.5z"/>
	<path class="st5" d="M601.6,60.8l1.2-0.7l-7.9-5.5l2.4-1.4l7.9,5.5l1.2-0.7c-1.7-1.4-2.6-3-3.1-4.9c0-0.2-0.3-1.5-0.4-1.7
		c-1.6-4.3-8-8.2-14.5-8.7c-6.4-0.5-10.4,2.7-8.8,7c1.3,3.7,6.2,7.1,11.8,8.3c0.3,0,2.3,0.4,2.7,0.4
		C597.3,58.9,599.6,59.6,601.6,60.8z M604.8,63l1.6,1.1l4.9-2.8l-1.6-1.1L604.8,63z M591.8,60.5c-8.8-1.9-16.1-7.8-16.2-13.4
		c-0.1-5.5,6.9-8.4,15.7-6.5c7.5,1.6,14,6.2,15.8,11.1c0.5,1.3,0.4,3.8,2.8,5.4l4,2.8c1.8,1.2,2.1,2.9,0.7,3.6l-4.9,2.8
		c-1.3,0.8-3.9,0.4-5.6-0.8l-4-2.8C597.7,61.1,593.8,60.9,591.8,60.5z"/>
	<path class="st5" d="M173.6,290.8l9.8-5.6l11.5,23.7l-14.2-10l-8.5,4.9l-12.7-22.9L173.6,290.8z M174.3,294.4l-6-4.2l4.9,8.8
		l6.7-3.9l6.9,4.9L182,290L174.3,294.4z"/>
	<path class="st4" d="M240,825.9c-2.8,0-6-1-8.5-2.8l-7.2-5.2l0.1-0.1l98.5-58l-82.7-59.1l7.2,62.3l-118.7-13.5l-10.6-7.6
		c-2.3-1.6-3.6-3.7-3.5-5.5c0.1-1.2,0.7-2.3,1.9-3l98.7-58.1c3.1-1.8,8.7-1,12.6,1.8l113.5,81.2c2.3,1.6,3.5,3.6,3.5,5.4
		c-0.1,1.2-0.7,2.2-1.9,2.9l-98.7,58.2C243,825.6,241.6,825.9,240,825.9z M224.6,818l7,5c3.9,2.8,9.4,3.6,12.4,1.8l98.7-58.2
		c1.1-0.6,1.7-1.6,1.8-2.8c0.1-1.7-1.2-3.7-3.4-5.3l-113.5-81.2c-3.9-2.8-9.5-3.6-12.5-1.8l-98.7,58.2c-1.2,0.6-1.8,1.6-1.8,2.8
		c-0.1,1.7,1.2,3.7,3.4,5.3l10.6,7.6l118.5,13.4l-7.2-62.4l0.2,0.1l83.1,59.4l-0.1,0.1L224.6,818z M199.3,814.4l-14.3-10.3l0.1-0.1
		l43.9-25.8l0.1,0.1l14.3,10.3l-0.1,0.1L199.3,814.4z M185.3,804.1l14,10l43.7-25.7l-14-10L185.3,804.1z M163.8,789l-14.3-10.3
		l0.1-0.1l27.5-16.2l0.1,0.1l14.3,10.3l-0.1,0.1L163.8,789z M149.8,778.8l14,10l27.3-16l-14-10L149.8,778.8z M228.3,749.3
		l-90.2-10.1l0.2-0.2l83.1-48.9v0.2L228.3,749.3z M138.7,739l89.4,10.1l-6.8-58.7L138.7,739z"/>
</g>
<g id="textbase">
	<path class="st6" d="M759.7,778.2L689,819.1l24.1,43.9l-25.9,14.9l-99.7-186l22.2-12.8l229.1,111.3l-25,14.4L759.7,778.2z
		 M726.4,761.8l-94-46.3l41.8,76.5L726.4,761.8z"/>
	<path class="st7" d="M786.8,614.2l131.1,91.9L895.6,719l-10.3-7.2c0,11.1-5.9,20.9-18.9,28.4c-28.5,16.4-82,8.1-120.2-18.7
		c-38.2-26.8-46-61.5-17.6-77.9c12.9-7.5,28.9-10.3,46.2-9.2l-10.3-7.2L786.8,614.2z M853.8,689.7l-47.4-33.2
		c-21.5-5.5-37.1-2.9-48.3,3.7c-18.5,10.7-12.9,32.1,10.5,48.5c23.4,16.5,56.2,22.1,74.8,11.4C854.7,713.4,860.2,703.8,853.8,689.7z
		"/>
</g>
<g id="text">
	<path class="st8" d="M792.2,759.1l-71.6,41.3L751,841l-24.8,14.3L601.4,684.8l21.7-12.6l254.3,95.7l-24.8,14.3L792.2,759.1z
		 M756.6,745.4l-108.7-41.8l54.6,73L756.6,745.4z"/>
	<path class="st9" d="M786.8,561.7l131.1,91.9l-22.2,12.8l-10.3-7.2c0,11.1-5.9,20.9-18.9,28.4c-28.5,16.4-82,8.1-120.2-18.7
		c-38.2-26.8-46-61.5-17.6-77.9c12.9-7.5,28.9-10.3,46.2-9.2l-10.3-7.2L786.8,561.7z M853.8,637.1l-47.4-33.2
		c-21.5-5.4-37.1-2.9-48.3,3.7c-18.5,10.7-12.9,32.1,10.5,48.5c23.4,16.5,56.2,22.1,74.8,11.4C854.7,660.8,860.2,651.2,853.8,637.1z
		"/>
</g>
<g id="card_4">
	<path class="st10" d="M543.1,497.9L285.7,646.5l-179.8-126l257.4-148.6L543.1,497.9z"/>
	<path class="st4" d="M285.7,646.7l-0.1-0.1L105.5,520.4l0.3-0.2l257.5-148.7l0.1,0.1l180,126.3L285.7,646.7z M106.3,520.4
		l179.4,125.8l257-148.4L363.3,372.1L106.3,520.4z"/>
	<path class="st4" d="M328.6,676.7L328.6,676.7l-43.1-30.3l0.2-0.1l257.5-148.6l0.1,0.1l43.1,30.2l-0.2,0.1L328.6,676.7z
		 M285.9,646.5l42.8,29.9l257.2-148.5l-42.8-30L285.9,646.5z"/>
	<path class="st5" d="M296.8,543.8L230.6,582c-2.4,1.4-7,0.7-10.2-1.5l-0.9-0.6c-3.2-2.2-3.8-5.2-1.3-6.6l66.1-38.2
		c2.4-1.4,7-0.7,10.2,1.5l0.9,0.6C298.6,539.5,299.2,542.4,296.8,543.8z"/>
	<path class="st5" d="M289.1,580.9l-32.6,18.8c-2.6,1.5-7.6,0.8-11-1.6c-3.4-2.4-4-5.6-1.4-7.1l32.6-18.8c2.6-1.5,7.6-0.8,11,1.6
		C291.1,576.2,291.7,579.4,289.1,580.9z"/>
	<path class="st7" d="M586,528L328.6,676.6l-42.9-30.1l257.4-148.6L586,528z"/>
	<path class="st4" d="M227.4,582.8c-2.3,0-4.9-0.8-7-2.2l-0.9-0.6c-1.9-1.3-2.9-2.9-2.9-4.4c0.1-1,0.6-1.8,1.5-2.4l66.1-38.2
		c2.5-1.4,7.1-0.8,10.3,1.5l0.9,0.6c1.9,1.3,2.9,2.9,2.9,4.4c-0.1,1-0.6,1.8-1.5,2.4l-66.1,38.2
		C229.8,582.6,228.6,582.8,227.4,582.8z M287.6,534.5c-1.2,0-2.4,0.2-3.2,0.7l-66.1,38.2c-0.9,0.5-1.4,1.3-1.4,2.2
		c-0.1,1.4,1,3,2.8,4.2l0.9,0.6c3.1,2.2,7.6,2.9,10.1,1.5l66.1-38.2c0.9-0.5,1.4-1.3,1.4-2.2c0.1-1.4-1-3-2.8-4.2l-0.9-0.6
		C292.4,535.2,289.8,534.5,287.6,534.5z"/>
	<path class="st4" d="M253,600.6c-2.4,0-5.3-0.8-7.5-2.4c-2-1.4-3.1-3.2-3.1-4.7c0.1-1.1,0.6-1.9,1.6-2.5l32.6-18.8
		c2.6-1.5,7.6-0.8,11.1,1.6c2,1.4,3.1,3.2,3.1,4.7c-0.1,1.1-0.6,1.9-1.6,2.5l-0.1-0.1l0.1,0.1l-32.6,18.8
		C255.6,600.3,254.4,600.6,253,600.6z M280.3,571.5c-1.3,0-2.5,0.3-3.5,0.8l-32.6,18.8c-1,0.6-1.5,1.4-1.6,2.4
		c-0.1,1.5,1.1,3.2,3,4.6c3.4,2.4,8.3,3.1,10.9,1.6l32.6-18.8c1-0.6,1.5-1.4,1.6-2.4c0.1-1.5-1.1-3.2-3-4.6
		C285.5,572.3,282.7,571.5,280.3,571.5z"/>
	<path class="st5" d="M356.5,481.6l15.2,26.3c2.5,4.3,8,5.8,12.3,3.3l24.5-14.1c6.8-4,5.7-14.1-1.9-16.5L367,468.4
		C359.1,466,352.4,474.5,356.5,481.6z"/>
	<path class="st5" d="M400,476.7l8.4,14.6c1.4,2.4,4.4,3.2,6.8,1.9l13.6-7.8c3.8-2.2,3.2-7.8-1.1-9.2l-22-6.8
		C401.5,468,397.7,472.8,400,476.7z"/>
</g>
<g id="email">
	<path class="st5" d="M341.2,758.5c3.9,2.8,4.6,6.5,1.6,8.3L244,824.9c-3,1.8-8.6,1-12.5-1.8l-7.1-5.1l98.7-58.1l-83-59.3l7.2,62.3
		l-118.6-13.3l-10.6-7.6c-3.9-2.8-4.7-6.5-1.6-8.3l98.7-58.1c3-1.8,8.7-1,12.6,1.8L341.2,758.5z M138.5,739.1l89.7,10.1l-6.8-59
		L138.5,739.1z M185.1,804.1l43.9-25.8l14.2,10.1l-43.9,25.8L185.1,804.1z M149.6,778.8l27.4-16.1l14.2,10.1l-27.4,16.1L149.6,778.8
		z"/>
</g>
<g id="Layer_5">
	<g>
		<path class="st5" d="M403.5,337.1L146,485.7L107,458.3l257.4-148.6L403.5,337.1z"/>
		<g>
			<path class="st4" d="M146,485.8l-39.3-27.6l0.2-0.1l257.5-148.6l0.1,0.1l39.2,27.5l-0.2,0.1L146,485.8z M107.1,458.3l38.9,27.3
				L403.3,337l-38.9-27.3L107.1,458.3z"/>
			<path class="st4" d="M158.5,467.3c1.6-4.8-3.7-10.9-12-13.8c-8.3-2.9-16.3-1.3-17.9,3.4c-1.6,4.8,3.7,10.9,12,13.8
				C148.9,473.6,156.9,472,158.5,467.3z"/>
		</g>
	</g>
</g>
<g id="card_3">
	<path class="st10" d="M784,456.4l-107.9,62.3L481.4,382.1l107.9-62.3L784,456.4z"/>
	<path class="st4" d="M676.1,519l-0.1-0.1L481,382.1l108.3-62.5l0.1,0.1l195,136.8L676.1,519z M481.8,382.2l194.4,136.3l107.5-62.1
		L589.3,320.1L481.8,382.2z"/>
	<path class="st7" d="M825.3,485.3l-107.9,62.3l-41.2-28.9L784,456.4L825.3,485.3z"/>
	<path class="st4" d="M717.4,547.7L717.4,547.7l-41.4-29.1l0.2-0.1L784,456.2l0.1,0.1l41.4,29.1l-0.2,0.1L717.4,547.7z M676.3,518.7
		l41.1,28.8l107.7-62.2L784,456.5L676.3,518.7z"/>
	<path class="st5" d="M634.8,407.2c4.2-12.1-9.5-27.8-30.5-35c-21-7.3-41.4-3.4-45.6,8.7c-4.2,12.1,9.5,27.8,30.5,35
		C610.2,423.2,630.6,419.3,634.8,407.2z"/>
	<path class="st4" d="M609.9,419.6c-12.1,0-26.1-4.2-37-11.8c-9.8-6.9-15.5-15.5-15.1-23.1c0.2-5.1,3-9.4,8.1-12.3
		c13.1-7.6,37.6-4.1,54.5,7.8c9.8,6.9,15.5,15.5,15.1,23.1c-0.2,5.1-3,9.4-8.1,12.3C622.8,418.4,616.7,419.6,609.9,419.6z
		 M583.5,368.6c-6.7,0-12.8,1.3-17.4,4c-5,2.9-7.8,7.1-8,12.1c-0.3,7.5,5.3,16.1,15,22.9c16.9,11.9,41.3,15.3,54.3,7.8
		c5-2.9,7.8-7.1,8-12.1c0.3-7.5-5.3-16.1-15-22.9C609.5,372.8,595.5,368.6,583.5,368.6z"/>
	<path class="st5" d="M687.8,415.6l-66.1,38.2c-2.4,1.4-7,0.7-10.2-1.5l-0.9-0.6c-3.2-2.2-3.8-5.2-1.3-6.6l66.1-38.2
		c2.4-1.4,7-0.7,10.2,1.5l0.9,0.6C689.6,411.3,690.2,414.2,687.8,415.6z"/>
	<path class="st4" d="M618.4,454.7c-2.3,0-4.9-0.8-7-2.2l-0.9-0.6c-1.9-1.3-2.9-2.9-2.9-4.4c0.1-1,0.6-1.8,1.5-2.4l66.1-38.2
		c2.5-1.4,7.1-0.8,10.3,1.5l0.9,0.6c1.9,1.3,2.9,2.9,2.9,4.4c-0.1,1-0.6,1.8-1.5,2.4l-0.1-0.1l0.1,0.1l-66.1,38.2
		C620.8,454.4,619.7,454.7,618.4,454.7z M678.7,406.3c-1.2,0-2.4,0.2-3.2,0.7l-66.1,38.2c-0.9,0.5-1.4,1.3-1.4,2.2
		c-0.1,1.4,1,3,2.8,4.2l0.9,0.6c3.1,2.2,7.7,2.9,10.1,1.5l66.1-38.2c0.9-0.5,1.4-1.3,1.4-2.2c0.1-1.4-1-3-2.8-4.2l-0.9-0.6
		C683.5,407.1,680.9,406.3,678.7,406.3z"/>
	<path class="st5" d="M695.4,443.7l-30.6,17.7c-2.6,1.5-7.6,0.8-11-1.6c-3.4-2.4-4-5.6-1.4-7.1L683,435c2.6-1.5,7.6-0.8,11,1.6
		C697.5,439,698.1,442.2,695.4,443.7z"/>
	<path class="st4" d="M661.3,462.2c-2.4,0-5.3-0.8-7.5-2.4c-2-1.4-3.1-3.2-3.1-4.7c0.1-1.1,0.6-1.9,1.6-2.5l30.6-17.7
		c2.6-1.5,7.6-0.8,11.1,1.6c2,1.4,3.1,3.2,3.1,4.7c-0.1,1.1-0.6,1.9-1.6,2.5l-30.6,17.7C664,462,662.7,462.2,661.3,462.2z
		 M686.6,434.3c-1.3,0-2.5,0.3-3.5,0.8l-30.6,17.7c-1,0.6-1.5,1.4-1.6,2.4c-0.1,1.5,1.1,3.2,3,4.6c3.4,2.4,8.3,3.1,10.9,1.6
		l30.6-17.7c1-0.6,1.5-1.4,1.6-2.4c0.1-1.5-1.1-3.2-3-4.6C691.8,435.1,689,434.3,686.6,434.3z"/>
</g>
<g id="card_2">
	<g>
		<path class="st4" d="M625.2,201.5l-0.1-0.1l-12.6-8.9l82.5-47.7l0.1,0.1l12.6,8.9L625.2,201.5z M613.3,192.6l12,8.4l81.7-47.2
			l-12-8.4L613.3,192.6z"/>
		<path class="st4" d="M646.2,216.3l-0.1-0.1l-12.6-8.9l82.5-47.7l0.1,0.1l12.6,8.9L646.2,216.3z M634.2,207.3l12,8.4l81.7-47.2
			l-12-8.4L634.2,207.3z"/>
		<path class="st4" d="M667.2,231l-0.1-0.1l-12.6-8.9l82.5-47.7l0.1,0.1l12.6,8.9L667.2,231z M655.2,222l12,8.4l81.7-47.2l-12-8.4
			L655.2,222z"/>
		<path class="st4" d="M637.7,273.9l-12.8-8.9l0.3-0.2l132.1-76.3l12.8,8.9l-0.3,0.2L637.7,273.9z M625.6,265l12,8.4l131.6-75.9
			l-12-8.4L625.6,265z"/>
		<path class="st4" d="M657.9,288.1l-12.8-8.9l0.3-0.2l132.1-76.3l12.8,8.9l-0.3,0.2L657.9,288.1z M646,279.2l12,8.4l131.5-75.9
			l-12-8.4L646,279.2z"/>
		<path class="st4" d="M678.2,302.4l-12.8-8.9l0.3-0.2L797.8,217l12.8,8.9l-0.3,0.2L678.2,302.4z M666.2,293.5l12,8.4L809.8,226
			l-12-8.4L666.2,293.5z"/>
		<path class="st4" d="M698.5,316.6l-12.8-8.9l0.3-0.2l132.1-76.3l12.8,8.9l-0.3,0.2L698.5,316.6z M686.5,307.7l12,8.4l131.5-75.9
			l-12-8.4L686.5,307.7z"/>
		<path class="st4" d="M718.8,330.7L718.8,330.7l-12.6-8.9l0.2-0.1l66-38.2l12.6,8.9l-0.2,0.1L718.8,330.7z M706.7,321.9l12.1,8.5
			l65.7-37.9l-12.1-8.5L706.7,321.9z"/>
		<path class="st4" d="M814.5,397.9l-0.1-0.1l-12.6-8.9L934,312.6l12.8,8.9l-0.3,0.2L814.5,397.9z M802.4,389l12,8.4L946,321.5
			l-12-8.4L802.4,389z"/>
		<path class="st4" d="M834.7,412.1l-0.1-0.1l-12.6-8.9l132.3-76.4l12.8,8.9L834.7,412.1z M822.7,403.2l12,8.4l131.5-75.9l-12-8.4
			L822.7,403.2z"/>
		<path class="st4" d="M855,426.3l-0.1-0.1l-12.6-8.9L974.6,341l0.1,0.1l12.6,8.9L855,426.3z M843,417.5l12,8.4l131.5-75.9l-12-8.4
			L843,417.5z"/>
		<path class="st4" d="M875.3,440.5L875.3,440.5l-12.6-8.9l0.2-0.1l66-38.2l0.1,0.1l12.6,8.8l-0.2,0.1L875.3,440.5z M863.2,431.6
			l12.1,8.5l65.7-37.9l-12.1-8.5L863.2,431.6z"/>
		<path class="st10" d="M918,304.7l-129.5,74.8l-56.1-39.4l129.5-74.8L918,304.7z"/>
		<path class="st7" d="M807.1,354.1c2.5-7.3-5.7-16.8-18.4-21.2c-12.7-4.4-25-2.1-27.6,5.2c-2.5,7.3,5.7,16.8,18.4,21.2
			C792.2,363.7,804.5,361.4,807.1,354.1z"/>
		<path class="st4" d="M803.7,328.6c-1.1,0-2.4-0.4-3.3-1.1l-0.2-0.1c-0.9-0.6-1.4-1.4-1.4-2.1c0-0.5,0.3-0.9,0.7-1.2l33.3-19.2
			c1.2-0.7,3.4-0.4,4.9,0.7l0.2,0.1c0.9,0.6,1.4,1.4,1.4,2.1c0,0.5-0.3,0.9-0.7,1.2l-33.3,19.2C804.9,328.5,804.3,328.6,803.7,328.6
			z M834.5,304.7c-0.6,0-1.1,0.1-1.5,0.3l-33.3,19.2c-0.4,0.3-0.6,0.6-0.7,1c-0.1,0.6,0.5,1.4,1.3,2l0.2,0.1
			c1.5,1.1,3.6,1.3,4.7,0.7l33.3-19.2c0.4-0.3,0.6-0.6,0.7-1c0.1-0.6-0.5-1.4-1.3-2l-0.2-0.1C836.8,305.1,835.5,304.7,834.5,304.7z"
			/>
		<path class="st4" d="M813.7,335.8c-0.9,0-2-0.3-2.8-0.9l-1-0.7c-0.7-0.5-1.2-1.2-1.2-1.8c0-0.4,0.3-0.7,0.6-1l22.9-13.2
			c1-0.6,2.9-0.3,4.2,0.6l1,0.7c0.7,0.5,1.2,1.2,1.2,1.8c0,0.4-0.3,0.7-0.6,1l-22.9,13.2C814.7,335.7,814.2,335.8,813.7,335.8z
			 M833.7,318c-0.5,0-0.9,0.1-1.3,0.3l-22.9,13.2c-0.4,0.2-0.5,0.5-0.5,0.8c0,0.5,0.4,1.2,1.1,1.6l1,0.7c1.2,0.8,3,1.1,4,0.6
			l22.9-13.2c0.4-0.2,0.5-0.5,0.5-0.8c0-0.5-0.4-1.2-1.1-1.6l-1-0.7C835.6,318.3,834.5,318,833.7,318z"/>
		<path class="st4" d="M612.7,254.6l-31.3-42.7l5.6-3.2h0.1l63.7,24l-6.4,3.7l-15.1-5.8l-17.7,10.2L619,251L612.7,254.6z M581.7,212
			l31,42.4l6-3.5l-7.6-10.2l18-10.4l15.1,5.8l6-3.4L587,208.9L581.7,212z M606.8,235L606.8,235l-13.9-18.6l27.6,10.6L606.8,235z
			 M593.5,216.9l13.4,17.9l13.3-7.7L593.5,216.9z"/>
	</g>
	<path class="st7" d="M838.5,308.9l-33.3,19.2c-1.2,0.7-3.3,0.4-4.8-0.7l-0.2-0.1c-1.5-1.1-1.8-2.5-0.6-3.1l33.3-19.2
		c1.2-0.7,3.3-0.4,4.8,0.7l0.2,0.1C839.4,306.9,839.7,308.2,838.5,308.9z"/>
	<path class="st7" d="M837.9,322.2L815,335.4c-1,0.6-2.8,0.3-4.1-0.6l-1-0.7c-1.3-0.9-1.5-2.1-0.5-2.6l22.9-13.2
		c1-0.6,2.8-0.3,4.1,0.6l1,0.7C838.7,320.4,838.9,321.6,837.9,322.2z"/>
	<path class="st10" d="M707.4,153.8l-82.1,47.4l-12.4-8.7l82.1-47.4L707.4,153.8z"/>
	<path class="st10" d="M728.4,168.5L646.2,216l-12.4-8.7l82.1-47.4L728.4,168.5z"/>
	<path class="st10" d="M749.3,183.3l-82.1,47.4l-12.4-8.7l82.1-47.5L749.3,183.3z"/>
	<path class="st10" d="M769.6,197.5l-132,76.2l-12.4-8.7l132-76.2L769.6,197.5z"/>
	<path class="st10" d="M789.9,211.7l-132,76.2l-12.4-8.7l132-76.1L789.9,211.7z"/>
	<path class="st10" d="M810.2,226l-131.9,76.1l-12.4-8.7l132-76.1L810.2,226z"/>
	<path class="st10" d="M830.4,240.2l-131.9,76.1l-12.4-8.7l131.9-76.2L830.4,240.2z"/>
	<path class="st10" d="M784.8,292.5l-66,38.1l-12.4-8.7l65.9-38.1L784.8,292.5z"/>
	<path class="st10" d="M946.4,321.5l-131.9,76.2l-12.4-8.7L934,312.8L946.4,321.5z"/>
	<path class="st10" d="M966.6,335.7l-131.9,76.2l-12.4-8.7L954.3,327L966.6,335.7z"/>
	<path class="st10" d="M987,349.9l-132,76.2l-12.4-8.7l132-76.1L987,349.9z"/>
	<path class="st10" d="M941.2,402.2l-66,38.1l-12.4-8.7l66-38.1L941.2,402.2z"/>
	<path class="st5" d="M629.2,230.5l-17.9,10.3l7.6,10.2l-6.2,3.6l-31.1-42.6l5.5-3.1l63.5,23.9l-6.2,3.6L629.2,230.5z M620.3,227.1
		l-27.1-10.4l13.6,18.2L620.3,227.1z"/>
</g>
<g id="card_1_1_">
	<g>
		<path class="st10" d="M1240.2,293.3l-150.5,86.9L769,155.3l150.5-86.9L1240.2,293.3z"/>
		<path class="st4" d="M1089.6,380.6l-0.2-0.1L768.4,155.3l0.4-0.3l150.8-87l0.2,0.1l321.1,225.2l-0.4,0.3L1089.6,380.6z
			 M769.6,155.3l320.1,224.5l149.9-86.6L919.5,68.7L769.6,155.3z"/>
		<path class="st5" d="M903.9,185c4.2-12.1-9.5-27.8-30.5-35c-21-7.3-41.4-3.4-45.6,8.7c-4.2,12.1,9.5,27.8,30.5,35
			C879.3,201,899.7,197.1,903.9,185z"/>
		<path class="st10" d="M879.1,199.2c-12.5,0-26.9-4.3-38-12.1c-10.4-7.3-16.2-16.3-15.9-24.7c0.3-5.7,3.4-10.5,9-13.8
			c13.7-7.9,39-4.3,56.5,7.9c10.4,7.3,16.2,16.3,15.9,24.7c-0.3,5.7-3.4,10.5-9,13.8C892.6,197.9,886.1,199.2,879.1,199.2z
			 M852.7,148.2c-6.4,0-12.2,1.2-16.6,3.8c-4.5,2.6-6.9,6.2-7.1,10.6c-0.3,6.9,5,14.9,14.2,21.4c16.4,11.5,39.8,15,52.4,7.7
			c4.5-2.6,6.9-6.2,7.1-10.6c0.3-6.9-5-14.9-14.2-21.4C877.9,152.2,864.3,148.2,852.7,148.2z"/>
		<path class="st5" d="M927.6,171.3c4.2-12.1-9.5-27.8-30.5-35c-21-7.3-41.4-3.4-45.6,8.7c-4.2,12.1,9.5,27.8,30.5,35
			C903,187.3,923.4,183.4,927.6,171.3z"/>
		<path class="st10" d="M902.8,185.5c-12.5,0-26.9-4.3-38-12.1c-10.4-7.3-16.2-16.3-15.9-24.7c0.3-5.7,3.4-10.5,9-13.8
			c13.7-7.9,39-4.3,56.5,7.9c10.4,7.3,16.2,16.3,15.9,24.7c-0.3,5.7-3.4,10.5-9,13.8C916.3,184.1,909.9,185.5,902.8,185.5z
			 M876.4,134.5c-6.4,0-12.2,1.2-16.6,3.8c-4.5,2.6-6.9,6.2-7.1,10.6c-0.3,6.9,5,14.9,14.2,21.4c16.4,11.5,39.8,15,52.4,7.7
			c4.5-2.6,6.9-6.2,7.1-10.6c0.3-6.9-5-14.9-14.2-21.4C901.6,138.5,888,134.5,876.4,134.5z"/>
		<path class="st5" d="M951.3,157.6c4.2-12.1-9.5-27.8-30.5-35c-21-7.3-41.4-3.4-45.6,8.7c-4.2,12.1,9.5,27.8,30.5,35
			C926.7,173.5,947.2,169.6,951.3,157.6z"/>
		<path class="st10" d="M926.5,171.8c-12.5,0-26.9-4.3-38-12.1c-10.4-7.3-16.2-16.3-15.9-24.7c0.3-5.7,3.4-10.5,9-13.8
			c13.7-7.9,39-4.3,56.5,7.9c10.4,7.3,16.2,16.3,15.9,24.7c-0.3,5.7-3.4,10.5-9,13.8C940,170.4,933.6,171.8,926.5,171.8z
			 M900.1,120.8c-6.4,0-12.2,1.2-16.6,3.8c-4.5,2.6-6.9,6.2-7.1,10.6c-0.3,6.9,5,14.9,14.2,21.4c16.4,11.5,39.8,15,52.4,7.7
			c4.5-2.6,6.9-6.2,7.1-10.6c0.3-6.9-5-14.9-14.2-21.4C925.3,124.9,911.8,120.8,900.1,120.8z"/>
		<path class="st5" d="M982.3,187.4l-66.1,38.2c-2.4,1.4-7,0.7-10.2-1.5l-0.9-0.6c-3.2-2.2-3.8-5.2-1.3-6.6l66.1-38.2
			c2.4-1.4,7-0.7,10.2,1.5l0.9,0.6C984.2,183.1,984.7,186,982.3,187.4z"/>
		<path class="st4" d="M912.9,226.4c-2.3,0-4.9-0.8-7-2.2l-0.9-0.6c-1.9-1.3-2.9-2.9-2.9-4.4c0.1-1,0.6-1.8,1.5-2.4l66.1-38.2
			c2.5-1.4,7.1-0.8,10.3,1.5l0.9,0.6c1.9,1.3,2.9,2.9,2.9,4.4c-0.1,1-0.6,1.8-1.5,2.4l-66,38.2C915.4,226.2,914.2,226.4,912.9,226.4
			z M973.2,178.1c-1.2,0-2.4,0.2-3.2,0.7L903.9,217c-0.9,0.5-1.4,1.3-1.4,2.2c-0.1,1.4,1,3,2.8,4.2l0.9,0.6
			c3.1,2.2,7.7,2.9,10.1,1.5l66.1-38.2c0.9-0.5,1.4-1.3,1.4-2.2c0.1-1.4-1-3-2.8-4.2l-0.9-0.6C978,178.9,975.4,178.1,973.2,178.1z"
			/>
		<path class="st5" d="M972.6,225.6L942,243.3c-2.6,1.5-7.6,0.8-11-1.6c-3.4-2.4-4-5.6-1.4-7.1l30.6-17.7c2.6-1.5,7.6-0.8,11,1.6
			C974.6,220.9,975.2,224.1,972.6,225.6z"/>
		<path class="st4" d="M938.4,244.1c-2.4,0-5.3-0.8-7.5-2.4c-2-1.4-3.1-3.2-3.1-4.7c0.1-1.1,0.6-1.9,1.6-2.5l30.6-17.7
			c2.6-1.5,7.6-0.8,11.1,1.6c2,1.4,3.1,3.2,3.1,4.7c-0.1,1.1-0.6,1.9-1.6,2.5L942,243.3C941.1,243.8,939.8,244.1,938.4,244.1z
			 M963.7,216.2c-1.3,0-2.5,0.3-3.5,0.8l-30.6,17.7c-1,0.6-1.5,1.4-1.6,2.4c-0.1,1.5,1.1,3.2,3,4.6c3.4,2.4,8.3,3.1,10.9,1.6
			l30.6-17.7c1-0.6,1.5-1.4,1.6-2.4c0.1-1.5-1.1-3.2-3-4.6C969,217,966.2,216.2,963.7,216.2z"/>
	</g>
</g>
<g id="crosses">
	<g>
		<path class="st11" d="M620,281.7c-0.9,0.5-2.6,0.3-3.8-0.5l-17.1-12.1c-1.2-0.8-1.4-1.9-0.5-2.4c0.9-0.5,2.6-0.3,3.8,0.5
			l17.1,12.1C620.7,280.1,620.9,281.2,620,281.7z"/>
		<path class="st11" d="M617.6,269.4c1.2,0.8,1.4,1.9,0.5,2.4l-13.3,7.7c-0.9,0.5-2.6,0.3-3.8-0.5c-1.2-0.8-1.4-1.9-0.5-2.4
			l13.3-7.7C614.7,268.3,616.4,268.6,617.6,269.4z"/>
	</g>
	<g>
		<path class="st12" d="M469.6,384.4c-0.9,0.5-2.6,0.3-3.8-0.5l-17.2-12.1c-1.2-0.8-1.4-1.9-0.5-2.4c0.9-0.5,2.6-0.3,3.8,0.5
			l17.1,12.1C470.2,382.8,470.5,383.9,469.6,384.4z"/>
		<path class="st12" d="M467.2,372.1c1.2,0.8,1.4,1.9,0.5,2.4l-13.3,7.7c-0.9,0.5-2.6,0.3-3.8-0.5c-1.2-0.8-1.4-1.9-0.5-2.4
			l13.3-7.7C464.3,371,466,371.3,467.2,372.1z"/>
	</g>
	<g>
		<path class="st13" d="M51,522.3c-0.9,0.5-2.6,0.3-3.8-0.5L30,509.7c-1.2-0.8-1.4-1.9-0.5-2.4c0.9-0.5,2.6-0.3,3.8,0.5l17.1,12.1
			C51.6,520.7,51.9,521.8,51,522.3z"/>
		<path class="st13" d="M48.6,510c1.2,0.8,1.4,1.9,0.5,2.4l-13.3,7.7c-0.9,0.5-2.6,0.3-3.8-0.5c-1.2-0.8-1.4-1.9-0.5-2.4l13.3-7.7
			C45.7,508.9,47.4,509.2,48.6,510z"/>
	</g>
	<g>
		<path class="st14" d="M586,661.3c-0.9,0.5-2.6,0.3-3.8-0.5L565,648.7c-1.2-0.8-1.4-1.9-0.5-2.4c0.9-0.5,2.6-0.3,3.8,0.5l17.1,12.1
			C586.6,659.7,586.9,660.8,586,661.3z"/>
		<path class="st14" d="M583.6,649c1.2,0.8,1.4,1.9,0.5,2.4l-13.3,7.7c-0.9,0.5-2.6,0.3-3.8-0.5s-1.4-1.9-0.5-2.4l13.3-7.7
			C580.7,647.9,582.4,648.2,583.6,649z"/>
	</g>
	<g>
		<path class="st15" d="M714.4,141.2c-1.2,0.6-3.3,0.4-4.8-0.7l-21.7-15.2c-1.5-1.1-1.7-2.4-0.6-3.1c1.2-0.6,3.3-0.4,4.8,0.7
			l21.7,15.2C715.3,139.1,715.6,140.5,714.4,141.2z"/>
		<path class="st15" d="M711.4,125.6c1.5,1.1,1.7,2.4,0.6,3.1l-16.8,9.7c-1.2,0.6-3.3,0.4-4.8-0.7c-1.5-1.1-1.7-2.4-0.6-3.1
			l16.8-9.7C707.8,124.3,709.9,124.6,711.4,125.6z"/>
	</g>
</g>
</svg>
