<svg width="32" height="32" viewBox="0 0 32 32" fill="none" xmlns="http://www.w3.org/2000/svg">
<path d="M31.3854 14.017L23.0099 10.9167L19.8823 0.666355C19.7618 0.27106 19.3957 0 18.9825 0C18.5694 0 18.2033 0.27106 18.0828 0.666355L14.9562 10.9167L6.57968 14.017C6.20979 14.1544 5.96509 14.5055 5.96509 14.8998C5.96509 15.2932 6.20979 15.6462 6.57968 15.7826L14.9515 18.882L18.08 29.4448C18.1985 29.8439 18.5656 30.1178 18.9825 30.1178C19.3986 30.1178 19.7666 29.8439 19.8851 29.4439L23.0136 18.881L31.3864 15.7817C31.7544 15.6462 32 15.2942 32 14.8998C32 14.5064 31.7544 14.1544 31.3854 14.017Z" fill="#FFAC33"/>
<path d="M12.5619 24.3689L10.384 23.5633L9.53698 20.4574C9.42592 20.047 9.05415 19.7628 8.62968 19.7628C8.20521 19.7628 7.83344 20.047 7.72144 20.4564L6.87438 23.5623L4.69743 24.368C4.32755 24.5045 4.08284 24.8574 4.08284 25.2508C4.08284 25.6442 4.32755 25.9972 4.69743 26.1336L6.86308 26.9365L7.71673 30.3454C7.82215 30.7633 8.19768 31.0569 8.62968 31.0569C9.06168 31.0569 9.43721 30.7633 9.54262 30.3445L10.3963 26.9355L12.5619 26.1327C12.9318 25.9972 13.1765 25.6442 13.1765 25.2508C13.1765 24.8574 12.9318 24.5045 12.5619 24.3689ZM8.47909 3.98014L6.25414 3.15661L5.42967 0.930722C5.2932 0.560838 4.94119 0.316132 4.54684 0.316132C4.15343 0.316132 3.80143 0.560838 3.66401 0.930722L2.84048 3.15661L0.61459 3.98014C0.244707 4.11756 0 4.46956 0 4.86297C0 5.25639 0.244707 5.60933 0.61459 5.7458L2.84048 6.56933L3.66401 8.79522C3.80143 9.1651 4.15343 9.40981 4.54684 9.40981C4.94025 9.40981 5.29225 9.1651 5.42967 8.79522L6.2532 6.56933L8.47909 5.7458C8.84897 5.60839 9.09368 5.25639 9.09368 4.86297C9.09368 4.46956 8.84897 4.11756 8.47909 3.98014Z" fill="#FFCC4D"/>
</svg>
