<svg width="19" height="21" viewBox="0 0 19 21" fill="none" xmlns="http://www.w3.org/2000/svg">
<path d="M18.3704 9.94348C18.3704 9.94348 19.0212 8.99478 18.0719 8.3445C17.1238 7.69421 16.4735 8.64233 16.4735 8.64233L13.4544 13.0454C13.3503 12.8718 13.2365 12.7004 13.1094 12.5314L17.2998 6.42123C17.2998 6.42123 17.9501 5.47311 17.0014 4.82282C16.0532 4.17254 15.4029 5.12066 15.4029 5.12066L11.4615 10.8686C11.3149 10.749 11.1649 10.6288 11.0102 10.511L15.5795 3.84653C15.5795 3.84653 16.2298 2.89841 15.2811 2.24812C14.3329 1.59783 13.6826 2.54595 13.6826 2.54595L9.11339 9.20925C8.94549 9.10633 8.77933 9.01721 8.61259 8.92291L12.8834 2.69487C12.8834 2.69487 13.5337 1.74675 12.5856 1.09646C11.6375 0.446174 10.9872 1.39429 10.9872 1.39429L6.47141 7.97997L5.7849 8.98156C8.62984 10.933 8.90065 14.6042 7.27522 16.9748C6.95036 17.4491 6.47601 17.1242 6.47601 17.1242C8.42688 14.2787 7.83121 11.0813 4.9857 9.13048L5.82457 4.93207C5.82457 4.93207 6.13793 3.82583 5.03227 3.5119C3.92603 3.19854 3.6121 4.30478 3.6121 4.30478L2.64328 7.18191C2.2592 8.32265 1.8504 9.45936 1.30936 10.5345C-0.218328 13.5704 0.694145 17.3433 3.57473 19.3195C6.71692 21.4739 11.0125 20.6729 13.1675 17.5313L18.3704 9.94348Z" fill="#AF7E57"/>
</svg>
