<svg width="32" height="32" viewBox="0 0 32 32" fill="none" xmlns="http://www.w3.org/2000/svg">
<path d="M16.0001 7.11114L9.77782 0H0L12.4445 15.1112L22.6854 10.8889L16.0001 7.11114Z" fill="#55ACEE"/>
<path d="M22.2222 0L16 7.11114L20.7911 13.6107L21.8818 12.2872L32.0001 0H22.2222Z" fill="#3B88C3"/>
<path d="M20.6758 14.2454C20.7469 14.0526 20.7922 13.8472 20.7922 13.6294C20.7922 12.6481 19.9958 11.8517 19.0144 11.8517H13.0882C12.106 11.8517 11.3104 12.6481 11.3104 13.6294C11.3104 13.8472 11.3549 14.0526 11.4269 14.2454C8.53084 15.8686 6.56995 18.9628 6.56995 22.5184C6.56995 27.7548 10.8144 32.0002 16.0518 32.0002C21.2882 32.0002 25.5336 27.7548 25.5336 22.5184C25.5327 18.9628 23.5727 15.8686 20.6758 14.2454Z" fill="#FFAC33"/>
<path d="M16.0518 29.6294C19.9792 29.6294 23.163 26.4457 23.163 22.5183C23.163 18.5909 19.9792 15.4071 16.0518 15.4071C12.1244 15.4071 8.94067 18.5909 8.94067 22.5183C8.94067 26.4457 12.1244 29.6294 16.0518 29.6294Z" fill="#FFD983"/>
<path d="M18.9137 27.2303C18.7875 27.2303 18.6613 27.1912 18.5528 27.1139L15.9999 25.2836L13.4479 27.1139C13.2301 27.2694 12.9386 27.2694 12.7226 27.1112C12.5066 26.9548 12.4159 26.6765 12.4959 26.4232L13.4479 23.3512L10.919 21.5689C10.7039 21.4107 10.615 21.1316 10.6968 20.8774C10.7794 20.6241 11.015 20.4516 11.2826 20.4498L14.415 20.4454L15.4124 17.4498C15.4968 17.1965 15.7332 17.0258 16.0008 17.0258C16.2675 17.0258 16.5048 17.1965 16.5893 17.4498L17.5697 20.4454L20.7182 20.4498C20.9857 20.4516 21.2222 20.6241 21.3039 20.8774C21.3866 21.1316 21.2968 21.4098 21.0817 21.5689L18.5519 23.3512L19.5039 26.4232C19.5857 26.6774 19.4933 26.9548 19.2782 27.1112C19.1688 27.1912 19.0408 27.2303 18.9137 27.2303Z" fill="#FFAC33"/>
</svg>
