<svg width="32" height="32" viewBox="0 0 32 32" fill="none" xmlns="http://www.w3.org/2000/svg">
<path d="M10.3338 6.14366C10.2343 6.24328 10.1587 6.36336 10.0956 6.49501L10.0885 6.48789L0.118948 28.9617L0.128726 28.9714C-0.0561585 29.3299 0.253168 30.0593 0.88693 30.6944C1.52069 31.3286 2.24956 31.6381 2.60778 31.4531L2.61667 31.462L25.0748 21.4846L25.0677 21.4766C25.1984 21.4144 25.3184 21.3388 25.4188 21.2374C26.8072 19.848 24.5557 15.3427 20.3914 11.1746C16.2252 7.00646 11.7231 4.75428 10.3338 6.14366Z" fill="#DD2E44"/>
<path d="M11.5551 10.1571L0.369609 28.3969L0.118948 28.9617L0.128726 28.9715C-0.0561585 29.33 0.253168 30.0593 0.88693 30.6944C1.09315 30.9008 1.30736 31.0573 1.51714 31.1899L15.1106 14.6045L11.5551 10.1571Z" fill="#EA596E"/>
<path d="M20.4545 11.1052C24.6056 15.2609 26.9104 19.6906 25.6002 20.9999C24.2909 22.311 19.8643 20.0055 15.7107 15.8515C11.5588 11.6959 9.25481 7.26444 10.5641 5.95423C11.8743 4.64401 16.3009 6.94956 20.4545 11.1052Z" fill="#A0041E"/>
<path d="M16.524 11.5882C16.3471 11.7314 16.116 11.8062 15.8716 11.7795C15.1001 11.6959 14.4512 11.4272 13.997 11.0029C13.5161 10.5538 13.2788 9.95068 13.3437 9.34672C13.4574 8.28646 14.5205 7.31336 16.3329 7.50904C17.0378 7.58465 17.3524 7.35783 17.3631 7.24931C17.3756 7.14169 17.1169 6.8526 16.412 6.77611C15.6405 6.6925 14.9916 6.42387 14.5365 5.99959C14.0556 5.55039 13.8174 4.94732 13.8832 4.34336C13.9987 3.28309 15.0609 2.30999 16.8716 2.50657C17.3853 2.56172 17.6564 2.45587 17.7711 2.38738C17.8627 2.33134 17.8991 2.27797 17.9027 2.24684C17.9133 2.13921 17.6582 1.85013 16.9516 1.77363C16.4636 1.72026 16.1098 1.28264 16.164 0.79342C16.2165 0.305092 16.6529 -0.0480346 17.1427 0.00533456C18.9533 0.200132 19.7853 1.37692 19.6706 2.43808C19.5551 3.50013 18.4929 4.47145 16.6805 4.27665C16.1667 4.22061 15.8983 4.32735 15.7827 4.39584C15.6912 4.45099 15.6538 4.50525 15.6503 4.53549C15.6387 4.64401 15.8956 4.9322 16.6022 5.0087C18.4129 5.20438 19.2448 6.38029 19.1302 7.44144C19.0155 8.50171 17.9533 9.47481 16.1418 9.27823C15.628 9.22308 15.3578 9.32982 15.2423 9.39742C15.1498 9.45435 15.1143 9.50772 15.1107 9.53796C15.0992 9.64559 15.356 9.93467 16.0618 10.0112C16.5489 10.0645 16.9036 10.5031 16.8493 10.9914C16.8245 11.2351 16.7009 11.4459 16.524 11.5882Z" fill="#AA8DD8"/>
<path d="M27.2535 19.8142C29.0073 19.3188 30.217 20.1015 30.505 21.1289C30.793 22.1553 30.169 23.4549 28.4162 23.9485C27.7317 24.1407 27.5264 24.468 27.554 24.5721C27.5842 24.677 27.9317 24.8496 28.6144 24.6566C30.3672 24.1629 31.577 24.9456 31.865 25.9721C32.1548 26.9995 31.529 28.2972 29.7753 28.7918C29.0917 28.9839 28.8855 29.3121 28.9157 29.4162C28.9451 29.5203 29.2917 29.6928 29.9753 29.5007C30.4464 29.3682 30.9388 29.643 31.0712 30.1153C31.2028 30.5886 30.9281 31.0795 30.4552 31.213C28.7033 31.7066 27.4926 30.9257 27.2029 29.8974C26.9149 28.871 27.5398 27.5732 29.2944 27.0786C29.9788 26.8856 30.1841 26.5592 30.1539 26.4542C30.1255 26.3501 29.7788 26.1767 29.0962 26.3688C27.3415 26.8634 26.1327 26.0824 25.8438 25.0533C25.5549 24.0268 26.1798 22.729 27.9335 22.2336C28.6162 22.0424 28.8215 21.7133 28.7931 21.6101C28.7628 21.5051 28.4171 21.3326 27.7335 21.5247C27.2606 21.6581 26.7709 21.3824 26.6376 20.91C26.5051 20.4386 26.7807 19.9476 27.2535 19.8142Z" fill="#77B255"/>
<path d="M20.4445 17.4152C20.1832 17.4152 19.9254 17.3005 19.7494 17.0817C19.4428 16.6974 19.5059 16.1379 19.8881 15.8311C20.0819 15.6754 24.704 12.0427 31.2363 12.9776C31.7225 13.047 32.0603 13.4971 31.9909 13.9836C31.9216 14.4693 31.4754 14.8108 30.9847 14.7379C25.2133 13.9178 21.041 17.1875 21.0001 17.2204C20.8348 17.3521 20.6392 17.4152 20.4445 17.4152Z" fill="#AA8DD8"/>
<path d="M5.11443 13.715C5.02998 13.715 4.94376 13.7025 4.85843 13.6776C4.38822 13.5362 4.12156 13.0408 4.26289 12.5702C5.26998 9.21418 6.18285 3.85858 5.06109 2.46209C4.93576 2.30376 4.74644 2.1481 4.31267 2.18101C3.47891 2.24506 3.55802 4.00535 3.55891 4.02314C3.59624 4.51325 3.22825 4.9402 2.73937 4.97667C2.24249 5.00691 1.82295 4.64578 1.78651 4.15567C1.69495 2.92907 2.07628 0.566595 4.17934 0.407376C5.11798 0.336217 5.89752 0.662659 6.44773 1.34756C8.55523 3.97244 6.41573 11.582 5.96596 13.0817C5.85041 13.4668 5.49664 13.715 5.11443 13.715Z" fill="#77B255"/>
<path d="M22.6661 9.26758C23.4024 9.26758 23.9994 8.67023 23.9994 7.93335C23.9994 7.19648 23.4024 6.59912 22.6661 6.59912C21.9297 6.59912 21.3328 7.19648 21.3328 7.93335C21.3328 8.67023 21.9297 9.26758 22.6661 9.26758Z" fill="#5C913B"/>
<path d="M1.77774 17.2729C2.75955 17.2729 3.55547 16.4764 3.55547 15.4939C3.55547 14.5114 2.75955 13.715 1.77774 13.715C0.795919 13.715 0 14.5114 0 15.4939C0 16.4764 0.795919 17.2729 1.77774 17.2729Z" fill="#9266CC"/>
<path d="M28.8882 18.1624C29.6246 18.1624 30.2215 17.5651 30.2215 16.8282C30.2215 16.0913 29.6246 15.494 28.8882 15.494C28.1519 15.494 27.5549 16.0913 27.5549 16.8282C27.5549 17.5651 28.1519 18.1624 28.8882 18.1624Z" fill="#5C913B"/>
<path d="M20.8882 28.8363C21.6246 28.8363 22.2215 28.2389 22.2215 27.502C22.2215 26.7652 21.6246 26.1678 20.8882 26.1678C20.1519 26.1678 19.5549 26.7652 19.5549 27.502C19.5549 28.2389 20.1519 28.8363 20.8882 28.8363Z" fill="#5C913B"/>
<path d="M24.8881 4.82012C25.8699 4.82012 26.6658 4.02365 26.6658 3.04115C26.6658 2.05865 25.8699 1.26218 24.8881 1.26218C23.9063 1.26218 23.1104 2.05865 23.1104 3.04115C23.1104 4.02365 23.9063 4.82012 24.8881 4.82012Z" fill="#FFCC4D"/>
<path d="M28.8882 8.37807C29.6246 8.37807 30.2215 7.78071 30.2215 7.04384C30.2215 6.30697 29.6246 5.70961 28.8882 5.70961C28.1519 5.70961 27.5549 6.30697 27.5549 7.04384C27.5549 7.78071 28.1519 8.37807 28.8882 8.37807Z" fill="#FFCC4D"/>
<path d="M26.2215 11.936C26.9578 11.936 27.5548 11.3387 27.5548 10.6018C27.5548 9.86493 26.9578 9.26758 26.2215 9.26758C25.4851 9.26758 24.8882 9.86493 24.8882 10.6018C24.8882 11.3387 25.4851 11.936 26.2215 11.936Z" fill="#FFCC4D"/>
<path d="M6.66655 21.7204C7.40292 21.7204 7.99986 21.123 7.99986 20.3862C7.99986 19.6493 7.40292 19.0519 6.66655 19.0519C5.93019 19.0519 5.33325 19.6493 5.33325 20.3862C5.33325 21.123 5.93019 21.7204 6.66655 21.7204Z" fill="#FFCC4D"/>
</svg>
