<svg width="375" height="400" viewBox="0 0 375 400" fill="none" xmlns="http://www.w3.org/2000/svg">
<mask id="mask0" mask-type="alpha" maskUnits="userSpaceOnUse" x="0" y="0" width="375" height="400">
<rect width="375" height="400" fill="#C4C4C4"/>
</mask>
<g mask="url(#mask0)">
<line x1="23.5" y1="2.18557e-08" x2="23.5" y2="400" stroke="#EAEAEA"/>
<line x1="89.5" y1="2.16558e-08" x2="89.5" y2="400" stroke="#EAEAEA"/>
<line x1="154.5" y1="2.16558e-08" x2="154.5" y2="400" stroke="#EAEAEA"/>
<line x1="220.5" y1="2.16558e-08" x2="220.5" y2="400" stroke="#EAEAEA"/>
<line x1="285.5" y1="2.16558e-08" x2="285.5" y2="400" stroke="#EAEAEA"/>
<line x1="351.5" y1="2.16558e-08" x2="351.5" y2="400" stroke="#EAEAEA"/>
<line x1="-13" y1="363.5" x2="387" y2="363.5" stroke="#EAEAEA"/>
<line x1="-13" y1="297.5" x2="387" y2="297.5" stroke="#EAEAEA"/>
<line x1="-13" y1="232.5" x2="387" y2="232.5" stroke="#EAEAEA"/>
<line x1="-13" y1="166.5" x2="387" y2="166.5" stroke="#EAEAEA"/>
<line x1="-13" y1="101.5" x2="387" y2="101.5" stroke="#EAEAEA"/>
<line x1="-13" y1="35.5" x2="387" y2="35.5" stroke="#EAEAEA"/>
</g>
</svg>
