<svg width="49" height="21" viewBox="0 0 49 21" fill="none" xmlns="http://www.w3.org/2000/svg">
<path d="M48.9792 4.29912C48.8751 3.39805 48.1259 2.68558 47.2102 2.68558C47.0437 2.68558 46.8772 2.70654 46.7107 2.74845C46.6899 2.74845 46.6899 2.74845 46.6691 2.74845L21.6947 9.0559L17.9485 7.12804H22.4023C24.2962 7.12804 25.8363 5.57737 25.8363 3.67047C25.8363 1.76356 24.2962 0.212891 22.4023 0.212891H1.75675H0.0293579V6.52035V7.9872L1.54863 8.86731L22.3606 20.9583L22.3815 20.9793H22.4023H22.4231L22.4439 20.9583L47.9802 6.1222L48.23 5.97552C48.23 5.97552 48.23 5.97552 48.2508 5.97552C48.7086 5.64024 49.0208 5.09541 49.0208 4.48771C49 4.42485 49 4.36198 48.9792 4.29912ZM47.2934 4.48771C47.2934 4.50867 47.2726 4.52962 47.2726 4.55058C47.2726 4.55058 47.2726 4.55058 47.2518 4.55058C47.2518 4.55058 47.2518 4.55058 47.231 4.55058L45.7117 5.43069L22.4231 18.9676L1.77757 6.9604V1.9312H22.4231C23.3804 1.9312 24.1505 2.70654 24.1505 3.67047C24.1505 4.6344 23.3804 5.40973 22.4231 5.40973H14.5978L13.8069 6.9604L14.1815 7.149L20.4459 10.3761L21.4865 10.9209L24.0256 10.2922L45.462 4.8649L47.1477 4.4458C47.1477 4.42485 47.1686 4.42485 47.1894 4.42485H47.2102C47.2518 4.40389 47.2726 4.42485 47.2934 4.48771Z" fill="#333333"/>
</svg>
