<svg width="983" height="1080" viewBox="0 0 983 1080" fill="none" xmlns="http://www.w3.org/2000/svg">
<mask id="mask0" mask-type="alpha" maskUnits="userSpaceOnUse" x="0" y="0" width="983" height="1080">
<rect width="983" height="1080" fill="#C4C4C4"/>
</mask>
<g mask="url(#mask0)">
<line x1="889.756" y1="7.34368" x2="890.037" y2="1087.34" stroke="#2E2E2E"/>
<line x1="767.756" y1="7.37539" x2="768.037" y2="1087.38" stroke="#2E2E2E"/>
<line x1="645.756" y1="7.40707" x2="646.037" y2="1087.41" stroke="#2E2E2E"/>
<line x1="523.756" y1="7.43877" x2="524.037" y2="1087.44" stroke="#2E2E2E"/>
<line x1="401.756" y1="7.47045" x2="402.037" y2="1087.47" stroke="#2E2E2E"/>
<line x1="279.756" y1="7.50216" x2="280.037" y2="1087.5" stroke="#2E2E2E"/>
<line x1="157.756" y1="7.53384" x2="158.037" y2="1087.53" stroke="#2E2E2E"/>
<line x1="35.7561" y1="7.56554" x2="36.0366" y2="1087.57" stroke="#2E2E2E"/>
<line x1="6.31701" y1="242.073" x2="1086.32" y2="241.793" stroke="#2E2E2E"/>
<line x1="6.34872" y1="364.073" x2="1086.35" y2="363.793" stroke="#2E2E2E"/>
<line x1="6.38041" y1="486.073" x2="1086.38" y2="485.793" stroke="#2E2E2E"/>
<line x1="6.41212" y1="608.073" x2="1086.41" y2="607.793" stroke="#2E2E2E"/>
<line x1="6.44381" y1="730.073" x2="1086.44" y2="729.793" stroke="#2E2E2E"/>
<line x1="6.47552" y1="852.073" x2="1086.48" y2="851.793" stroke="#2E2E2E"/>
<line x1="6.50721" y1="974.073" x2="1086.51" y2="973.793" stroke="#2E2E2E"/>
</g>
</svg>
