<svg width="948" height="923" viewBox="0 0 948 923" fill="none" xmlns="http://www.w3.org/2000/svg">
<g clip-path="url(#clip0)">
<path d="M333.764 351.312L331.436 349.671L331.701 349.354L334.029 350.941L333.764 351.312Z" fill="#FC0048"/>
<path d="M610.094 543.185L605.49 539.957L605.755 539.587L610.358 542.815L610.094 543.185ZM600.833 536.729L596.23 533.502L596.494 533.131L601.098 536.359L600.833 536.729ZM591.626 530.274L587.022 527.046L587.287 526.675L591.891 529.903L591.626 530.274ZM582.419 523.818L577.815 520.59L578.08 520.22L582.683 523.448L582.419 523.818ZM573.211 517.309L568.608 514.081L568.872 513.711L573.476 516.939L573.211 517.309ZM563.951 510.854L559.347 507.626L559.612 507.255L564.216 510.483L563.951 510.854ZM554.744 504.398L550.14 501.17L550.405 500.8L555.008 504.027L554.744 504.398ZM545.536 497.942L540.933 494.714L541.197 494.344L545.801 497.572L545.536 497.942ZM536.276 491.433L531.672 488.206L531.937 487.835L536.541 491.063L536.276 491.433ZM527.069 484.978L522.465 481.75L522.73 481.379L527.333 484.607L527.069 484.978ZM517.861 478.522L513.258 475.294L513.522 474.924L518.126 478.152L517.861 478.522ZM508.654 472.066L504.05 468.838L504.315 468.468L508.918 471.696L508.654 472.066ZM499.394 465.558L494.79 462.33L495.054 461.959L499.658 465.187L499.394 465.558ZM490.186 459.102L485.583 455.874L485.847 455.504L490.451 458.731L490.186 459.102ZM480.979 452.646L476.375 449.418L476.64 449.048L481.243 452.276L480.979 452.646ZM471.719 446.19L467.115 442.962L467.379 442.592L471.983 445.82L471.719 446.19ZM462.511 439.682L457.907 436.454L458.172 436.083L462.776 439.311L462.511 439.682ZM453.304 433.226L448.7 429.998L448.965 429.628L453.568 432.856L453.304 433.226ZM444.096 426.77L439.493 423.542L439.757 423.172L444.361 426.4L444.096 426.77ZM434.836 420.314L430.232 417.087L430.497 416.716L435.101 419.944L434.836 420.314ZM425.629 413.806L421.025 410.578L421.29 410.208L425.893 413.435L425.629 413.806ZM416.421 407.35L411.818 404.122L412.082 403.752L416.686 406.98L416.421 407.35ZM407.161 400.894L402.557 397.666L402.822 397.296L407.426 400.524L407.161 400.894ZM397.954 394.439L393.35 391.211L393.615 390.84L398.218 394.068L397.954 394.439ZM388.746 387.93L384.143 384.702L384.407 384.332L389.011 387.56L388.746 387.93ZM379.486 381.474L374.882 378.246L375.147 377.876L379.751 381.104L379.486 381.474ZM370.279 375.018L365.675 371.791L365.94 371.42L370.543 374.648L370.279 375.018ZM361.071 368.563L356.468 365.335L356.732 364.964L361.336 368.192L361.071 368.563ZM351.864 362.107L347.26 358.879L347.525 358.509L352.129 361.737L351.864 362.107ZM342.604 355.598L338 352.37L338.265 352L342.868 355.228L342.604 355.598Z" fill="#FC0048"/>
<path d="M351.094 693.185L346.49 689.957L346.755 689.587L351.358 692.815L351.094 693.185ZM341.833 686.729L337.23 683.502L337.494 683.131L342.098 686.359L341.833 686.729ZM332.626 680.274L328.022 677.046L328.287 676.675L332.891 679.903L332.626 680.274ZM323.419 673.818L318.815 670.59L319.08 670.22L323.683 673.448L323.419 673.818ZM314.211 667.309L309.608 664.081L309.872 663.711L314.476 666.939L314.211 667.309ZM304.951 660.854L300.347 657.626L300.612 657.255L305.216 660.483L304.951 660.854ZM295.744 654.398L291.14 651.17L291.405 650.8L296.008 654.027L295.744 654.398ZM286.536 647.942L281.933 644.714L282.197 644.344L286.801 647.572L286.536 647.942ZM277.276 641.433L272.672 638.206L272.937 637.835L277.541 641.063L277.276 641.433ZM268.069 634.978L263.465 631.75L263.73 631.379L268.333 634.607L268.069 634.978ZM258.861 628.522L254.258 625.294L254.522 624.924L259.126 628.152L258.861 628.522ZM249.654 622.066L245.05 618.838L245.315 618.468L249.918 621.696L249.654 622.066ZM240.394 615.558L235.79 612.33L236.055 611.959L240.658 615.187L240.394 615.558ZM231.186 609.102L226.583 605.874L226.847 605.504L231.451 608.731L231.186 609.102ZM221.979 602.646L217.375 599.418L217.64 599.048L222.243 602.276L221.979 602.646ZM212.719 596.19L208.115 592.962L208.379 592.592L212.983 595.82L212.719 596.19ZM203.511 589.682L198.908 586.454L199.172 586.083L203.776 589.311L203.511 589.682ZM194.304 583.226L189.7 579.998L189.965 579.628L194.568 582.856L194.304 583.226ZM185.096 576.77L180.493 573.542L180.757 573.172L185.361 576.4L185.096 576.77ZM175.836 570.314L171.232 567.087L171.497 566.716L176.101 569.944L175.836 570.314ZM166.629 563.806L162.025 560.578L162.29 560.208L166.893 563.435L166.629 563.806ZM157.421 557.35L152.818 554.122L153.082 553.752L157.686 556.98L157.421 557.35ZM148.161 550.894L143.557 547.666L143.822 547.296L148.426 550.524L148.161 550.894ZM138.954 544.439L134.35 541.211L134.615 540.84L139.218 544.068L138.954 544.439ZM129.746 537.93L125.143 534.702L125.407 534.332L130.011 537.56L129.746 537.93ZM120.486 531.474L115.882 528.246L116.147 527.876L120.751 531.104L120.486 531.474ZM111.279 525.018L106.675 521.791L106.94 521.42L111.543 524.648L111.279 525.018ZM102.071 518.563L97.4677 515.335L97.7322 514.964L102.336 518.192L102.071 518.563ZM92.864 512.107L88.2603 508.879L88.5249 508.509L93.1285 511.737L92.864 512.107ZM83.6037 505.598L79 502.37L79.2646 502L83.8683 505.228L83.6037 505.598Z" fill="#FC0048"/>
<path d="M615.307 548.311L615.063 548.658L617.403 550.299L617.646 549.952L615.307 548.311Z" fill="#FC0048"/>
<path d="M81.6728 501.911L81.567 501.752L336.569 354.54L336.675 354.699L81.6728 501.911Z" fill="#FF0049"/>
<path d="M82.3607 502.546H80.4028L81.4082 500.852L82.3607 502.546Z" fill="#FF0049"/>
<path d="M336.886 355.598L337.839 353.905H335.881L336.886 355.598Z" fill="#FF0049"/>
<path d="M95.1721 525.818L92.6978 527.247L92.9096 527.614L95.3839 526.185L95.1721 525.818Z" fill="#FC0048"/>
<path d="M100.299 523.394L100.088 523.024L105.009 520.167L105.22 520.537L100.299 523.394ZM110.089 517.68L109.877 517.309L114.798 514.452L115.01 514.822L110.089 517.68ZM119.931 512.018L119.719 511.647L124.641 508.79L124.852 509.16L119.931 512.018ZM129.773 506.356L129.562 505.985L134.483 503.128L134.695 503.498L129.773 506.356ZM139.563 500.694L139.351 500.323L144.272 497.466L144.484 497.836L139.563 500.694ZM149.405 494.979L149.194 494.608L154.115 491.751L154.326 492.121L149.405 494.979ZM159.248 489.317L159.036 488.946L163.957 486.089L164.169 486.459L159.248 489.317ZM169.09 483.655L168.878 483.284L173.799 480.427L174.011 480.797L169.09 483.655ZM178.879 477.993L178.668 477.622L183.589 474.765L183.801 475.135L178.879 477.993ZM188.722 472.331L188.51 471.96L193.431 469.103L193.643 469.473L188.722 472.331ZM198.564 466.616L198.352 466.245L203.274 463.388L203.485 463.758L198.564 466.616ZM208.354 460.954L208.142 460.583L213.063 457.726L213.275 458.096L208.354 460.954ZM218.196 455.292L217.984 454.921L222.905 452.064L223.117 452.434L218.196 455.292ZM228.038 449.63L227.827 449.259L232.748 446.402L232.959 446.772L228.038 449.63ZM237.828 443.968L237.616 443.597L242.537 440.74L242.749 441.11L237.828 443.968ZM247.67 438.253L247.458 437.882L252.38 435.025L252.591 435.395L247.67 438.253ZM257.512 432.591L257.301 432.22L262.222 429.363L262.434 429.733L257.512 432.591ZM267.355 426.929L267.143 426.558L272.064 423.701L272.276 424.071L267.355 426.929ZM277.144 421.267L276.933 420.896L281.854 418.039L282.065 418.409L277.144 421.267ZM286.987 415.552L286.775 415.181L291.696 412.324L291.908 412.694L286.987 415.552ZM296.829 409.89L296.617 409.519L301.538 406.662L301.75 407.032L296.829 409.89ZM306.618 404.228L306.407 403.857L311.328 401L311.54 401.37L306.618 404.228ZM316.461 398.566L316.249 398.195L321.17 395.338L321.382 395.708L316.461 398.566ZM326.303 392.904L326.091 392.533L331.013 389.676L331.224 390.046L326.303 392.904ZM336.093 387.189L335.881 386.818L340.802 383.961L341.014 384.331L336.093 387.189ZM345.935 381.527L345.723 381.156L350.644 378.299L350.856 378.669L345.935 381.527ZM355.777 375.865L355.566 375.494L360.487 372.637L360.698 373.007L355.777 375.865ZM365.567 370.203L365.355 369.832L370.276 366.975L370.488 367.345L365.567 370.203ZM375.409 364.541L375.197 364.17L380.119 361.313L380.33 361.683L375.409 364.541Z" fill="#FC0048"/>
<path d="M387.478 357.042L385.004 358.471L385.216 358.837L387.69 357.408L387.478 357.042Z" fill="#FC0048"/>
<path d="M543.1 497.889L285.664 646.477L105.908 520.431L363.344 371.79L543.1 497.889Z" fill="#F7F7F7"/>
<path d="M285.664 646.741L285.558 646.689L105.485 520.378L105.75 520.22L363.291 371.526L363.397 371.579L543.417 497.836L285.664 646.741ZM106.279 520.431L285.664 646.265L542.676 497.889L363.291 372.055L106.279 520.431Z" fill="white"/>
<path d="M586.015 527.998L328.579 676.586L285.664 646.477L543.1 497.889L586.015 527.998Z" fill="#E5E5E5"/>
<path d="M328.579 676.745L328.526 676.692L285.452 646.477L285.611 646.371L543.1 497.73L543.153 497.783L586.226 527.998L586.067 528.104L328.579 676.745ZM285.875 646.53L328.631 676.48L585.856 527.945L543.1 497.995L285.875 646.53Z" fill="white"/>
<path d="M403.455 337.078L146.019 485.719L106.967 458.255L364.351 309.614L403.455 337.078Z" fill="#9B9B9B"/>
<path d="M146.019 485.824L106.755 458.255L106.914 458.202L364.403 309.561L364.456 309.614L403.666 337.13L403.507 337.183L146.019 485.824ZM107.125 458.255L146.071 485.56L403.296 337.025L364.35 309.72L107.125 458.255Z" fill="white"/>
<path d="M356.518 481.591L371.705 507.89C374.192 512.229 379.695 513.711 384.034 511.171L408.534 497.042C415.361 493.074 414.196 482.914 406.682 480.586L367.048 468.415C359.111 466.034 352.391 474.5 356.518 481.591Z" fill="#9B9B9B"/>
<path d="M400.015 476.67L408.429 491.275C409.804 493.656 412.874 494.502 415.255 493.127L428.854 485.295C432.664 483.125 432.029 477.463 427.796 476.141L405.783 469.367C401.497 468.044 397.74 472.754 400.015 476.67Z" fill="#9B9B9B"/>
<path d="M158.522 467.292C160.166 462.542 154.805 456.374 146.548 453.516C138.29 450.657 130.263 452.191 128.619 456.941C126.975 461.692 132.336 467.859 140.593 470.718C148.851 473.576 156.878 472.042 158.522 467.292Z" fill="white"/>
<path d="M296.776 543.821L230.632 582.026C228.197 583.455 223.594 582.767 220.472 580.544L219.572 579.909C216.397 577.687 215.815 574.724 218.249 573.348L284.341 535.195C286.775 533.767 291.379 534.455 294.501 536.677L295.401 537.312C298.629 539.482 299.211 542.445 296.776 543.821Z" fill="#9B9B9B"/>
<path d="M227.403 582.819C225.128 582.819 222.482 582.025 220.418 580.597L219.519 579.962C217.667 578.692 216.608 577.051 216.661 575.57C216.714 574.564 217.243 573.77 218.196 573.188L284.288 535.036C286.775 533.607 291.379 534.242 294.554 536.518L295.453 537.153C297.305 538.423 298.364 540.063 298.311 541.545C298.258 542.55 297.729 543.344 296.776 543.926L230.684 582.078C229.785 582.607 228.62 582.819 227.403 582.819ZM287.622 534.507C286.405 534.507 285.24 534.718 284.394 535.248L218.302 573.4C217.402 573.929 216.873 574.67 216.873 575.57C216.82 576.945 217.826 578.533 219.625 579.803L220.524 580.438C223.646 582.66 228.144 583.295 230.578 581.919L296.67 543.767C297.57 543.238 298.099 542.497 298.099 541.545C298.152 540.169 297.147 538.581 295.347 537.311L294.448 536.676C292.437 535.248 289.844 534.507 287.622 534.507Z" fill="white"/>
<path d="M707.351 153.83L625.225 201.242L612.843 192.564L694.968 145.151L707.351 153.83Z" fill="#F7F7F7"/>
<path d="M625.225 201.507L625.119 201.401L612.473 192.511L695.021 144.834L695.127 144.94L707.774 153.83L625.225 201.507ZM613.266 192.617L625.278 201.031L706.98 153.83L694.968 145.416L613.266 192.617Z" fill="white"/>
<path d="M728.358 168.54L646.233 216.006L633.851 207.275L715.976 159.862L728.358 168.54Z" fill="#F7F7F7"/>
<path d="M646.18 216.27L646.074 216.165L633.427 207.275L715.976 159.597L716.082 159.703L728.729 168.593L646.18 216.27ZM634.221 207.328L646.233 215.741L727.935 168.54L715.923 160.127L634.221 207.328Z" fill="white"/>
<path d="M749.313 183.304L667.188 230.716L654.805 222.038L736.931 174.573L749.313 183.304Z" fill="#F7F7F7"/>
<path d="M667.188 230.981L667.082 230.875L654.435 221.985L736.984 174.308L737.09 174.414L749.736 183.304L667.188 230.981ZM655.229 222.038L667.188 230.452L748.89 183.251L736.878 174.837L655.229 222.038Z" fill="white"/>
<path d="M769.633 197.485L637.66 273.684L625.278 265.006L757.25 188.807L769.633 197.485Z" fill="#F7F7F7"/>
<path d="M637.66 273.949L624.908 265.006L625.172 264.847L757.251 188.595L770.003 197.538L769.739 197.697L637.66 273.949ZM625.649 265.006L637.66 273.42L769.21 197.485L757.198 189.072L625.649 265.006Z" fill="white"/>
<path d="M789.9 211.72L657.927 287.919L645.545 279.187L777.517 203.041L789.9 211.72Z" fill="#F7F7F7"/>
<path d="M657.927 288.13L645.175 279.187L645.439 279.029L777.517 202.777L790.27 211.72L790.005 211.878L657.927 288.13ZM645.968 279.24L657.98 287.654L789.529 211.72L777.517 203.306L645.968 279.24Z" fill="white"/>
<path d="M810.166 225.954L678.247 302.1L665.812 293.422L797.784 217.276L810.166 225.954Z" fill="#F7F7F7"/>
<path d="M678.194 302.365L665.441 293.422L665.706 293.263L797.784 217.011L810.537 225.954L810.272 226.113L678.194 302.365ZM666.235 293.475L678.247 301.888L809.796 225.954L797.784 217.54L666.235 293.475Z" fill="white"/>
<path d="M830.433 240.188L698.514 316.334L686.131 307.656L818.051 231.457L830.433 240.188Z" fill="#F7F7F7"/>
<path d="M698.461 316.599L685.708 307.656L685.973 307.498L818.051 231.246L830.804 240.188L830.539 240.347L698.461 316.599ZM686.502 307.656L698.514 316.07L830.063 240.136L818.051 231.722L686.502 307.656Z" fill="white"/>
<path d="M784.767 292.469L718.781 330.569L706.398 321.891L772.332 283.791L784.767 292.469Z" fill="#F7F7F7"/>
<path d="M718.781 330.728L718.728 330.675L706.134 321.838L706.345 321.732L772.384 283.579L785.031 292.469L784.82 292.575L718.781 330.728ZM706.663 321.891L718.781 330.41L784.449 292.469L772.331 283.95L706.663 321.891Z" fill="white"/>
<path d="M946.372 321.467L814.453 397.666L802.07 388.988L933.99 312.789L946.372 321.467Z" fill="#F7F7F7"/>
<path d="M814.453 397.931L814.347 397.878L801.7 388.988L934.043 312.577L946.795 321.52L946.531 321.679L814.453 397.931ZM802.441 388.988L814.453 397.402L946.002 321.467L933.99 313.054L802.441 388.988Z" fill="white"/>
<path d="M966.639 335.702L834.719 411.901L822.337 403.222L954.257 327.023L966.639 335.702Z" fill="#F7F7F7"/>
<path d="M834.72 412.112L834.614 412.059L821.967 403.169L954.31 326.759L967.062 335.702L834.72 412.112ZM822.708 403.222L834.72 411.636L966.269 335.702L954.257 327.288L822.708 403.222Z" fill="white"/>
<path d="M986.958 349.936L854.986 426.135L842.604 417.404L974.576 341.258L986.958 349.936Z" fill="#F7F7F7"/>
<path d="M854.986 426.347L854.88 426.294L842.233 417.404L974.576 340.993L974.682 341.046L987.329 349.936L854.986 426.347ZM843.027 417.457L855.039 425.87L986.588 349.936L974.576 341.522L843.027 417.457Z" fill="white"/>
<path d="M941.239 402.217L875.253 440.316L862.871 431.638L928.857 393.539L941.239 402.217Z" fill="#F7F7F7"/>
<path d="M875.253 440.528L875.2 440.475L862.606 431.638L862.818 431.532L928.857 393.38L928.91 393.433L941.504 402.27L941.292 402.376L875.253 440.528ZM863.188 431.638L875.306 440.158L940.975 402.217L928.857 393.698L863.188 431.638Z" fill="white"/>
<path d="M289.103 580.914L256.507 599.7C253.861 601.234 248.94 600.493 245.501 598.112C242.114 595.731 241.479 592.503 244.072 591.021L276.668 572.236C279.314 570.702 284.235 571.442 287.675 573.824C291.114 576.205 291.749 579.38 289.103 580.914Z" fill="#9B9B9B"/>
<path d="M253.015 600.599C250.58 600.599 247.723 599.752 245.501 598.218C243.49 596.842 242.379 595.043 242.431 593.508C242.484 592.45 243.066 591.603 244.072 590.968L276.668 572.183C279.314 570.648 284.288 571.336 287.727 573.77C289.738 575.146 290.85 576.945 290.797 578.48C290.744 579.538 290.162 580.385 289.156 581.02L289.103 580.967L289.156 581.02L256.56 599.805C255.608 600.334 254.39 600.599 253.015 600.599ZM280.266 571.495C278.943 571.495 277.726 571.76 276.774 572.289L244.178 591.074C243.172 591.656 242.643 592.503 242.59 593.455C242.537 594.937 243.648 596.683 245.606 598.059C248.993 600.44 253.914 601.128 256.507 599.646L289.103 580.861C290.109 580.279 290.638 579.432 290.691 578.48C290.744 576.998 289.632 575.252 287.675 573.876C285.505 572.342 282.7 571.495 280.266 571.495Z" fill="white"/>
<path d="M317.536 682.359L315.062 683.789L315.273 684.155L317.748 682.726L317.536 682.359Z" fill="#FC0048"/>
<path d="M322.652 679.867L322.44 679.497L327.362 676.639L327.573 677.009L322.652 679.867ZM332.494 674.205L332.283 673.835L337.204 670.977L337.416 671.347L332.494 674.205ZM342.337 668.543L342.125 668.173L347.046 665.315L347.258 665.685L342.337 668.543ZM352.126 662.881L351.915 662.511L356.836 659.653L357.047 660.023L352.126 662.881ZM361.969 657.166L361.757 656.796L366.678 653.938L366.89 654.309L361.969 657.166ZM371.811 651.504L371.599 651.134L376.52 648.276L376.732 648.647L371.811 651.504ZM381.6 645.842L381.389 645.472L386.31 642.614L386.522 642.985L381.6 645.842ZM391.443 640.18L391.231 639.81L396.152 636.952L396.364 637.323L391.443 640.18ZM401.285 634.465L401.073 634.095L405.995 631.237L406.206 631.608L401.285 634.465ZM411.127 628.803L410.916 628.433L415.837 625.575L416.049 625.946L411.127 628.803ZM420.917 623.141L420.705 622.771L425.626 619.913L425.838 620.284L420.917 623.141ZM430.759 617.479L430.548 617.109L435.469 614.251L435.68 614.622L430.759 617.479ZM440.602 611.817L440.39 611.447L445.311 608.589L445.523 608.96L440.602 611.817ZM450.391 606.102L450.179 605.732L455.101 602.874L455.312 603.245L450.391 606.102ZM460.233 600.44L460.022 600.07L464.943 597.212L465.155 597.583L460.233 600.44ZM470.076 594.778L469.864 594.408L474.785 591.55L474.997 591.921L470.076 594.778ZM479.865 589.116L479.654 588.746L484.575 585.888L484.786 586.259L479.865 589.116ZM489.708 583.454L489.496 583.084L494.417 580.226L494.629 580.597L489.708 583.454ZM499.55 577.739L499.338 577.369L504.259 574.511L504.471 574.882L499.55 577.739ZM509.339 572.077L509.128 571.707L514.049 568.849L514.261 569.22L509.339 572.077ZM519.182 566.415L518.97 566.045L523.891 563.187L524.103 563.558L519.182 566.415ZM529.024 560.753L528.812 560.383L533.734 557.525L533.945 557.896L529.024 560.753ZM538.867 555.038L538.655 554.668L543.576 551.81L543.788 552.181L538.867 555.038ZM548.656 549.376L548.444 549.006L553.365 546.148L553.577 546.519L548.656 549.376ZM558.498 543.714L558.287 543.344L563.208 540.486L563.42 540.857L558.498 543.714ZM568.341 538.052L568.129 537.682L573.05 534.824L573.262 535.195L568.341 538.052ZM578.13 532.39L577.918 532.02L582.84 529.162L583.051 529.533L578.13 532.39ZM587.973 526.675L587.761 526.305L592.682 523.447L592.894 523.818L587.973 526.675ZM597.815 521.013L597.603 520.643L602.524 517.785L602.736 518.156L597.815 521.013Z" fill="#FC0048"/>
<path d="M609.881 513.535L607.406 514.962L607.617 515.328L610.093 513.902L609.881 513.535Z" fill="#FC0048"/>
<path d="M784.026 456.403L676.13 518.685L481.4 382.109L589.295 319.827L784.026 456.403Z" fill="#F7F7F7"/>
<path d="M676.078 518.95L675.972 518.897L480.976 382.109L589.295 319.562L589.401 319.615L784.396 456.403L676.078 518.95ZM481.77 382.162L676.13 518.473L783.603 456.403L589.295 320.091L481.77 382.162Z" fill="white"/>
<path d="M1240.16 293.263L1089.67 380.204L768.998 155.258L919.491 68.3704L1240.16 293.263Z" fill="#F7F7F7"/>
<path d="M1089.62 380.574L1089.46 380.469L768.363 155.258L768.786 154.994L919.544 68L919.702 68.1058L1240.8 293.316L1240.37 293.581L1089.62 380.574ZM769.58 155.311L1089.67 379.834L1239.58 293.263L919.491 68.7408L769.58 155.311Z" fill="white"/>
<path d="M917.956 304.693L788.471 379.463L732.38 340.094L861.865 265.324L917.956 304.693Z" fill="#F7F7F7"/>
<path d="M788.471 379.622L788.418 379.569L732.115 340.094L732.274 339.988L861.812 265.165L861.865 265.218L918.168 304.693L918.009 304.799L788.471 379.622ZM732.592 340.094L788.471 379.304L917.691 304.693L861.812 265.482L732.592 340.094Z" fill="white"/>
<path d="M825.301 485.349L717.353 547.631L676.131 518.686L784.027 456.404L825.301 485.349Z" fill="#E5E5E5"/>
<path d="M717.352 547.736L717.299 547.683L675.919 518.632L676.078 518.526L784.026 456.191L784.079 456.244L825.459 485.295L825.3 485.401L717.352 547.736ZM676.289 518.685L717.352 547.471L825.089 485.295L784.026 456.509L676.289 518.685Z" fill="white"/>
<path d="M634.779 407.22C638.957 395.151 625.306 379.47 604.289 372.196C583.272 364.921 562.848 368.807 558.671 380.876C554.493 392.945 568.144 408.626 589.161 415.901C610.178 423.175 630.602 419.289 634.779 407.22Z" fill="#9B9B9B"/>
<path d="M609.933 419.626C597.815 419.626 583.845 415.446 572.944 407.826C563.155 400.947 557.493 392.322 557.863 384.702C558.075 379.622 560.879 375.336 566.012 372.425C579.135 364.858 603.583 368.351 620.516 380.257C630.305 387.136 635.967 395.761 635.597 403.381C635.385 408.461 632.581 412.747 627.448 415.658C622.791 418.356 616.653 419.626 609.933 419.626ZM583.528 368.615C576.86 368.615 570.775 369.885 566.118 372.584C561.091 375.494 558.287 379.675 558.075 384.702C557.757 392.216 563.367 400.788 573.103 407.614C589.983 419.468 614.378 422.96 627.395 415.446C632.422 412.536 635.226 408.355 635.438 403.328C635.756 395.814 630.146 387.242 620.41 380.416C609.509 372.796 595.539 368.615 583.528 368.615Z" fill="white"/>
<path d="M903.908 184.999C908.085 172.93 894.434 157.249 873.417 149.975C852.401 142.7 831.977 146.586 827.799 158.655C823.622 170.724 837.273 186.405 858.29 193.679C879.306 200.954 899.73 197.068 903.908 184.999Z" fill="#9B9B9B"/>
<path d="M879.063 199.179C866.575 199.179 852.182 194.892 841.016 187.061C830.592 179.758 824.771 170.763 825.141 162.402C825.406 156.74 828.581 151.872 834.19 148.644C847.842 140.759 873.189 144.305 890.652 156.581C901.076 163.884 906.897 172.879 906.526 181.24C906.262 186.902 903.087 191.77 897.478 194.998C892.556 197.856 886.101 199.179 879.063 199.179ZM852.658 148.168C846.308 148.168 840.487 149.385 836.095 151.925C831.597 154.518 829.163 158.169 828.951 162.561C828.634 169.493 833.978 177.483 843.186 183.939C859.537 195.422 883.032 198.914 895.573 191.665C900.071 189.072 902.505 185.42 902.716 181.028C903.034 174.096 897.689 166.106 888.482 159.65C877.899 152.242 864.299 148.168 852.658 148.168Z" fill="#F7F7F7"/>
<path d="M927.618 171.315C931.795 159.246 918.144 143.565 897.127 136.291C876.111 129.016 855.687 132.902 851.509 144.971C847.332 157.04 860.983 172.721 882 179.995C903.016 187.27 923.44 183.384 927.618 171.315Z" fill="#9B9B9B"/>
<path d="M902.822 185.473C890.334 185.473 875.941 181.187 864.776 173.356C854.351 166.053 848.531 157.058 848.901 148.697C849.166 143.035 852.34 138.167 857.95 134.939C871.602 127.054 896.949 130.6 914.411 142.876C924.835 150.178 930.656 159.174 930.286 167.535C930.021 173.197 926.846 178.065 921.237 181.293C916.263 184.15 909.86 185.473 902.822 185.473ZM876.364 134.462C870.014 134.462 864.194 135.679 859.802 138.219C855.304 140.812 852.87 144.464 852.658 148.856C852.34 155.788 857.685 163.778 866.892 170.234C883.243 181.716 906.738 185.209 919.279 177.959C923.777 175.366 926.211 171.715 926.423 167.323C926.74 160.391 921.396 152.401 912.188 145.945C901.605 138.537 888.006 134.462 876.364 134.462Z" fill="#F7F7F7"/>
<path d="M951.345 157.581C955.522 145.512 941.872 129.831 920.855 122.556C899.838 115.282 879.414 119.168 875.237 131.237C871.059 143.306 884.71 158.987 905.727 166.261C926.744 173.536 947.168 169.65 951.345 157.581Z" fill="#9B9B9B"/>
<path d="M926.529 171.821C914.04 171.821 899.647 167.535 888.482 159.703C878.058 152.401 872.237 143.405 872.607 135.044C872.872 129.382 876.047 124.514 881.656 121.286C895.308 113.402 920.655 116.947 938.117 129.224C948.542 136.526 954.362 145.522 953.992 153.883C953.727 159.545 950.552 164.413 944.943 167.641C940.022 170.445 933.566 171.821 926.529 171.821ZM900.124 120.81C893.774 120.81 887.953 122.027 883.561 124.567C879.063 127.16 876.629 130.811 876.417 135.203C876.1 142.135 881.444 150.126 890.652 156.581C907.003 168.064 930.497 171.556 943.038 164.307C947.536 161.714 949.97 158.063 950.182 153.671C950.5 146.739 945.155 138.749 935.948 132.293C925.312 124.885 911.765 120.81 900.124 120.81Z" fill="#F7F7F7"/>
<path d="M807.057 354.107C809.58 346.816 801.328 337.341 788.624 332.944C775.92 328.547 763.575 330.892 761.052 338.183C758.528 345.474 766.781 354.95 779.485 359.347C792.189 363.744 804.533 361.398 807.057 354.107Z" fill="#E5E5E5"/>
<path d="M792.016 361.683C784.714 361.683 776.194 359.143 769.633 354.54C763.706 350.359 760.267 345.121 760.478 340.517C760.637 337.395 762.33 334.855 765.4 333.056C773.337 328.452 788.153 330.622 798.419 337.818C804.346 341.999 807.785 347.237 807.574 351.841C807.415 354.963 805.722 357.503 802.652 359.302C799.795 360.89 796.038 361.683 792.016 361.683ZM776.036 330.833C772.014 330.833 768.31 331.627 765.505 333.215C762.489 334.961 760.796 337.501 760.69 340.517C760.478 345.068 763.865 350.201 769.739 354.328C779.951 361.472 794.662 363.588 802.547 359.038C805.563 357.291 807.256 354.751 807.362 351.735C807.574 347.184 804.187 342.052 798.313 337.924C791.699 333.373 783.285 330.833 776.036 330.833Z" fill="white"/>
<path d="M687.772 415.605L621.68 453.81C619.246 455.239 614.643 454.551 611.521 452.329L610.621 451.694C607.446 449.471 606.864 446.508 609.298 445.132L675.39 406.98C677.824 405.551 682.428 406.239 685.55 408.462L686.45 409.097C689.625 411.266 690.207 414.229 687.772 415.605Z" fill="#9B9B9B"/>
<path d="M618.399 454.657C616.124 454.657 613.478 453.863 611.414 452.434L610.515 451.799C608.663 450.529 607.604 448.889 607.657 447.407C607.71 446.402 608.239 445.608 609.192 445.026L675.284 406.874C677.771 405.445 682.374 406.08 685.549 408.355L686.449 408.99C688.301 410.26 689.359 411.901 689.306 413.382C689.254 414.388 688.724 415.181 687.772 415.763L687.719 415.658L687.772 415.763L621.68 453.916C620.833 454.392 619.669 454.657 618.399 454.657ZM678.67 406.292C677.453 406.292 676.289 406.503 675.442 407.032L609.35 445.185C608.451 445.714 607.922 446.455 607.922 447.407C607.869 448.783 608.874 450.371 610.673 451.64L611.573 452.275C614.695 454.498 619.246 455.133 621.627 453.757L687.719 415.605C688.619 415.076 689.148 414.335 689.148 413.435C689.201 412.059 688.195 410.472 686.396 409.202L685.496 408.567C683.486 407.085 680.893 406.292 678.67 406.292Z" fill="white"/>
<path d="M838.53 308.926L805.246 328.135C804.081 328.823 801.912 328.505 800.43 327.447L800.272 327.341C798.79 326.283 798.472 324.854 799.637 324.219L832.921 305.011C834.085 304.323 836.254 304.64 837.736 305.699L837.895 305.804C839.429 306.863 839.694 308.239 838.53 308.926Z" fill="#E5E5E5"/>
<path d="M803.711 328.611C802.599 328.611 801.329 328.241 800.377 327.553L800.218 327.447C799.319 326.812 798.79 326.018 798.842 325.33C798.842 324.854 799.107 324.431 799.583 324.166L832.867 304.958C834.084 304.27 836.307 304.587 837.789 305.645L837.947 305.751C838.847 306.386 839.376 307.18 839.323 307.868C839.323 308.344 839.059 308.767 838.582 309.032L805.298 328.24C804.875 328.505 804.346 328.611 803.711 328.611ZM834.508 304.746C833.926 304.746 833.397 304.852 833.026 305.063L799.742 324.272C799.319 324.536 799.107 324.854 799.054 325.277C799.001 325.912 799.53 326.653 800.324 327.235L800.483 327.341C801.965 328.399 804.081 328.664 805.192 328.029L838.476 308.82C838.9 308.556 839.111 308.238 839.164 307.815C839.217 307.18 838.688 306.439 837.894 305.857L837.736 305.751C836.783 305.116 835.513 304.746 834.508 304.746Z" fill="white"/>
<path d="M837.948 322.155L815.035 335.384C814.083 335.966 812.23 335.702 810.96 334.802L809.955 334.061C808.685 333.162 808.473 331.998 809.426 331.416L832.339 318.187C833.291 317.605 835.143 317.869 836.413 318.769L837.418 319.51C838.688 320.409 838.9 321.626 837.948 322.155Z" fill="#E5E5E5"/>
<path d="M813.712 335.808C812.812 335.808 811.701 335.49 810.907 334.908L809.902 334.167C809.161 333.638 808.685 332.95 808.738 332.368C808.738 331.945 809.002 331.627 809.373 331.363L832.285 318.134C833.291 317.551 835.143 317.816 836.466 318.716L837.471 319.456C838.212 319.986 838.688 320.674 838.635 321.256C838.635 321.679 838.371 321.996 838 322.261L815.088 335.49C814.717 335.702 814.241 335.808 813.712 335.808ZM833.661 318.028C833.185 318.028 832.761 318.134 832.391 318.292L809.478 331.521C809.108 331.733 808.949 331.998 808.949 332.368C808.949 332.897 809.32 333.532 810.008 334.008L811.013 334.749C812.23 335.596 814.029 335.86 814.982 335.331L837.894 322.102C838.265 321.891 838.423 321.626 838.423 321.256C838.423 320.726 838.053 320.091 837.365 319.615L836.36 318.874C835.566 318.345 834.508 318.028 833.661 318.028Z" fill="white"/>
<path d="M695.445 443.704L664.86 461.377C662.214 462.912 657.293 462.171 653.853 459.79C650.467 457.409 649.832 454.181 652.424 452.699L683.01 435.025C685.656 433.491 690.577 434.232 694.016 436.613C697.456 438.994 698.091 442.169 695.445 443.704Z" fill="#9B9B9B"/>
<path d="M661.314 462.224C658.88 462.224 656.022 461.377 653.8 459.842C651.789 458.467 650.678 456.668 650.731 455.133C650.784 454.075 651.366 453.228 652.371 452.593L682.957 434.919C685.602 433.385 690.576 434.072 694.016 436.507C696.027 437.882 697.138 439.681 697.085 441.216C697.032 442.274 696.45 443.121 695.445 443.756L664.859 461.43C663.96 462.012 662.69 462.224 661.314 462.224ZM686.608 434.284C685.285 434.284 684.068 434.549 683.115 435.078L652.53 452.752C651.525 453.334 650.995 454.18 650.942 455.133C650.89 456.668 652.001 458.361 653.959 459.737C657.345 462.118 662.266 462.806 664.859 461.324L695.445 443.65C696.45 443.068 696.979 442.221 697.032 441.269C697.085 439.734 695.974 438.041 694.016 436.665C691.846 435.131 689.042 434.284 686.608 434.284Z" fill="white"/>
<path d="M982.302 187.432L916.21 225.584C913.776 227.013 909.173 226.325 906.051 224.102L905.151 223.467C901.976 221.245 901.394 218.282 903.828 216.906L969.92 178.753C972.354 177.325 976.958 178.013 980.08 180.235L980.98 180.87C984.155 183.093 984.737 186.003 982.302 187.432Z" fill="#9B9B9B"/>
<path d="M912.929 226.43C910.654 226.43 908.008 225.637 905.944 224.208L905.045 223.573C903.193 222.303 902.134 220.662 902.187 219.181C902.24 218.175 902.769 217.382 903.722 216.8L969.814 178.647C972.301 177.218 976.905 177.853 980.079 180.129L980.979 180.764C982.831 182.034 983.889 183.674 983.836 185.156C983.784 186.161 983.254 186.955 982.302 187.537L916.263 225.689C915.363 226.219 914.199 226.43 912.929 226.43ZM973.2 178.118C971.983 178.118 970.819 178.33 969.972 178.859L903.881 217.011C902.981 217.54 902.452 218.281 902.452 219.181C902.399 220.557 903.404 222.144 905.203 223.414L906.103 224.049C909.225 226.272 913.776 226.907 916.157 225.531L982.249 187.378C983.149 186.849 983.678 186.108 983.678 185.156C983.731 183.78 982.725 182.193 980.926 180.923L980.027 180.288C978.016 178.859 975.423 178.118 973.2 178.118Z" fill="white"/>
<path d="M972.566 225.584L941.98 243.258C939.335 244.793 934.413 244.052 930.974 241.671C927.587 239.289 926.952 236.061 929.545 234.58L960.131 216.906C962.776 215.371 967.698 216.112 971.137 218.493C974.577 220.875 975.212 224.05 972.566 225.584Z" fill="#9B9B9B"/>
<path d="M938.435 244.104C936 244.104 933.143 243.258 930.921 241.723C928.91 240.347 927.799 238.548 927.851 237.013C927.904 235.955 928.486 235.108 929.492 234.473L960.077 216.8C962.723 215.265 967.697 215.953 971.137 218.387C973.147 219.763 974.259 221.562 974.206 223.097C974.153 224.155 973.571 225.002 972.565 225.637L941.98 243.31C941.08 243.84 939.81 244.104 938.435 244.104ZM963.728 216.165C962.406 216.165 961.189 216.429 960.236 216.958L929.651 234.632C928.645 235.214 928.116 236.061 928.063 237.013C928.01 238.548 929.121 240.241 931.079 241.617C934.466 243.998 939.387 244.686 941.98 243.205L972.565 225.531C973.571 224.949 974.1 224.102 974.153 223.149C974.206 221.615 973.095 219.922 971.137 218.546C968.967 216.958 966.163 216.165 963.728 216.165Z" fill="white"/>
<path d="M629.195 230.505L611.309 240.824L618.876 250.984L612.685 254.582L581.57 211.932L587.021 208.81L650.52 232.675L644.329 236.273L629.195 230.505ZM620.305 227.066L593.159 216.641L606.758 234.844L620.305 227.066Z" fill="#9B9B9B"/>
<path d="M612.684 254.634L581.411 211.931L586.967 208.703H587.02L650.731 232.674L644.328 236.378L629.194 230.611L611.467 240.823L619.034 250.983L612.684 254.634ZM581.728 211.984L612.737 254.37L618.769 250.877L611.203 240.718L629.194 230.346L644.328 236.114L650.307 232.674L587.02 208.862L581.728 211.984ZM606.758 235.003L606.705 234.95L592.894 216.429L620.516 227.065L606.758 235.003ZM593.476 216.852L606.863 234.738L620.145 227.065L593.476 216.852Z" fill="white"/>
<path d="M859.22 509.425L854.563 506.144L854.828 505.773L859.484 509.054L859.22 509.425ZM849.906 502.863L845.25 499.582L845.514 499.212L850.171 502.493L849.906 502.863ZM840.54 496.302L835.884 493.021L836.148 492.65L840.805 495.931L840.54 496.302ZM831.227 489.74L826.57 486.459L826.835 486.089L831.492 489.37L831.227 489.74ZM821.861 483.231L817.204 479.951L817.469 479.58L822.126 482.861L821.861 483.231ZM812.548 476.67L807.891 473.389L808.156 473.019L812.812 476.299L812.548 476.67ZM803.234 470.108L798.578 466.827L798.842 466.457L803.499 469.738L803.234 470.108ZM793.868 463.547L789.212 460.266L789.476 459.895L794.133 463.176L793.868 463.547ZM784.555 457.038L779.899 453.757L780.163 453.387L784.82 456.668L784.555 457.038ZM775.189 450.476L770.532 447.196L770.797 446.825L775.454 450.106L775.189 450.476ZM765.876 443.915L761.219 440.634L761.484 440.264L766.14 443.544L765.876 443.915ZM756.563 437.406L751.906 434.125L752.171 433.755L756.827 437.036L756.563 437.406ZM747.197 430.845L742.54 427.564L742.805 427.193L747.461 430.474L747.197 430.845ZM737.883 424.283L733.227 421.002L733.491 420.632L738.148 423.913L737.883 424.283ZM728.517 417.721L723.861 414.441L724.125 414.07L728.782 417.351L728.517 417.721ZM719.204 411.213L714.547 407.932L714.812 407.562L719.469 410.842L719.204 411.213ZM709.891 404.651L705.234 401.37L705.499 401L710.155 404.281L709.891 404.651ZM700.525 398.09L695.868 394.809L696.133 394.438L700.789 397.719L700.525 398.09ZM691.211 391.581L686.555 388.3L686.819 387.93L691.476 391.21L691.211 391.581Z" fill="#FC0048"/>
<path d="M706.24 554.297L706.028 553.927L710.949 551.07L711.161 551.44L706.24 554.297ZM716.135 548.583L715.923 548.212L720.844 545.355L721.056 545.725L716.135 548.583ZM726.03 542.868L725.818 542.497L730.74 539.64L730.951 540.01L726.03 542.868ZM735.872 537.206L735.661 536.835L740.582 533.978L740.794 534.348L735.872 537.206ZM745.768 531.491L745.556 531.12L750.477 528.263L750.689 528.633L745.768 531.491ZM755.61 525.776L755.398 525.405L760.32 522.548L760.531 522.918L755.61 525.776ZM765.505 520.061L765.294 519.69L770.215 516.833L770.427 517.203L765.505 520.061ZM775.401 514.399L775.189 514.028L780.11 511.171L780.322 511.541L775.401 514.399ZM785.243 508.684L785.031 508.313L789.953 505.456L790.164 505.826L785.243 508.684ZM795.138 502.969L794.927 502.599L799.848 499.741L800.059 500.111L795.138 502.969ZM804.981 497.307L804.769 496.937L809.69 494.079L809.902 494.45L804.981 497.307ZM814.876 491.592L814.664 491.222L819.585 488.364L819.797 488.735L814.876 491.592ZM824.771 485.877L824.56 485.507L829.481 482.649L829.692 483.02L824.771 485.877ZM834.614 480.162L834.402 479.792L839.323 476.934L839.535 477.305L834.614 480.162Z" fill="#FC0048"/>
<path d="M869.913 450.282L866.209 447.689L866.474 447.318L869.966 449.753L870.972 449.17L871.183 449.541L869.913 450.282ZM876.105 446.736L875.893 446.366L880.814 443.508L881.026 443.879L876.105 446.736ZM861.553 444.408L856.896 441.127L857.161 440.757L861.817 444.038L861.553 444.408ZM885.947 441.021L885.735 440.651L890.657 437.794L890.868 438.164L885.947 441.021ZM852.187 437.899L847.53 434.619L847.795 434.248L852.451 437.529L852.187 437.899ZM895.842 435.359L895.631 434.989L900.552 432.132L900.763 432.502L895.842 435.359ZM842.873 431.338L838.217 428.057L838.481 427.687L843.138 430.967L842.873 431.338ZM905.738 429.644L905.526 429.274L910.447 426.417L910.659 426.787L905.738 429.644ZM833.507 424.776L828.851 421.495L829.115 421.125L833.772 424.406L833.507 424.776ZM915.58 423.93L915.368 423.559L920.289 420.702L920.501 421.072L915.58 423.93ZM824.194 418.215L819.538 414.934L819.802 414.563L824.459 417.844L824.194 418.215ZM925.475 418.215L925.264 417.844L930.185 414.987L930.396 415.357L925.475 418.215ZM935.318 412.553L935.106 412.182L940.027 409.325L940.239 409.695L935.318 412.553ZM814.881 411.706L810.224 408.425L810.489 408.055L815.145 411.336L814.881 411.706ZM945.213 406.838L945.001 406.467L949.922 403.61L950.134 403.98L945.213 406.838ZM805.515 405.144L800.858 401.864L801.123 401.493L805.779 404.774L805.515 405.144ZM955.055 401.123L954.844 400.752L959.765 397.895L959.976 398.265L955.055 401.123ZM796.202 398.583L791.545 395.302L791.81 394.932L796.466 398.212L796.202 398.583ZM964.951 395.408L964.739 395.037L969.66 392.18L969.872 392.55L964.951 395.408ZM786.835 392.021L782.179 388.74L782.443 388.37L787.1 391.651L786.835 392.021ZM974.846 389.746L974.634 389.375L979.555 386.518L979.767 386.888L974.846 389.746ZM777.522 385.513L772.866 382.232L773.13 381.861L777.787 385.142L777.522 385.513ZM984.688 384.031L984.476 383.661L989.398 380.803L989.609 381.173L984.688 384.031ZM768.209 378.951L763.552 375.67L763.817 375.3L768.474 378.581L768.209 378.951ZM994.583 378.316L994.372 377.946L999.028 375.247L998.87 375.141L999.134 374.771L999.822 375.247L994.583 378.316ZM758.843 372.389L754.186 369.109L754.451 368.738L759.108 372.019L758.843 372.389ZM994.213 371.913L989.556 368.632L989.821 368.262L994.478 371.543L994.213 371.913ZM749.53 365.881L744.873 362.6L745.138 362.23L749.794 365.51L749.53 365.881ZM984.9 365.352L980.243 362.071L980.508 361.7L985.164 364.981L984.9 365.352ZM740.164 359.319L735.507 356.038L735.772 355.668L740.428 358.949L740.164 359.319ZM975.534 358.79L970.877 355.509L971.142 355.139L975.798 358.42L975.534 358.79ZM730.85 352.758L726.194 349.477L726.458 349.106L731.115 352.387L730.85 352.758ZM966.22 352.281L961.564 349.001L961.828 348.63L966.485 351.911L966.22 352.281ZM721.537 346.196L716.881 342.915L717.145 342.545L721.802 345.826L721.537 346.196ZM956.854 345.72L952.198 342.439L952.462 342.069L957.119 345.349L956.854 345.72ZM712.171 339.687L707.515 336.407L707.779 336.036L712.436 339.317L712.171 339.687ZM947.541 339.158L942.885 335.877L943.149 335.507L947.806 338.788L947.541 339.158ZM702.858 333.126L698.201 329.845L698.466 329.475L703.122 332.755L702.858 333.126ZM938.228 332.597L933.571 329.316L933.836 328.945L938.493 332.226L938.228 332.597ZM693.492 326.564L688.835 323.283L689.1 322.913L693.756 326.194L693.492 326.564ZM928.862 326.088L924.205 322.807L924.47 322.437L929.126 325.718L928.862 326.088ZM684.179 320.003L679.522 316.722L679.787 316.351L684.443 319.632L684.179 320.003ZM919.549 319.526L914.892 316.246L915.157 315.875L919.813 319.156L919.549 319.526ZM674.865 313.494L670.209 310.213L670.473 309.843L675.13 313.124L674.865 313.494ZM910.183 312.965L905.526 309.684L905.79 309.314L910.447 312.594L910.183 312.965ZM665.499 306.932L660.843 303.652L661.107 303.281L665.764 306.562L665.499 306.932ZM900.869 306.456L896.213 303.175L896.477 302.805L901.134 306.086L900.869 306.456ZM656.186 300.371L651.529 297.09L651.794 296.72L656.451 300L656.186 300.371ZM891.556 299.895L886.9 296.614L887.164 296.243L891.821 299.524L891.556 299.895ZM646.82 293.862L642.163 290.581L642.428 290.211L647.085 293.492L646.82 293.862ZM882.19 293.333L877.533 290.052L877.798 289.682L882.455 292.963L882.19 293.333ZM637.507 287.301L632.85 284.02L633.115 283.649L637.771 286.93L637.507 287.301ZM872.877 286.771L868.22 283.491L868.485 283.12L873.141 286.401L872.877 286.771ZM628.194 280.739L623.537 277.458L623.801 277.088L628.458 280.369L628.194 280.739ZM863.511 280.263L858.854 276.982L859.119 276.612L863.775 279.892L863.511 280.263ZM618.827 274.177L614.171 270.897L614.435 270.526L619.092 273.807L618.827 274.177ZM854.197 273.701L849.541 270.42L849.805 270.05L854.462 273.331L854.197 273.701ZM609.514 267.669L604.858 264.388L605.122 264.018L609.779 267.298L609.514 267.669ZM844.884 267.14L840.228 263.859L840.492 263.488L845.149 266.769L844.884 267.14ZM600.148 261.107L595.491 257.826L595.756 257.456L600.413 260.737L600.148 261.107ZM835.518 260.578L830.862 257.297L831.126 256.927L835.783 260.208L835.518 260.578ZM590.835 254.546L586.178 251.265L586.443 250.894L591.099 254.175L590.835 254.546ZM826.205 254.069L821.548 250.789L821.813 250.418L826.469 253.699L826.205 254.069ZM581.522 247.984L576.865 244.703L577.13 244.333L581.786 247.614L581.522 247.984ZM816.839 247.508L812.182 244.227L812.447 243.857L817.103 247.137L816.839 247.508ZM572.156 241.475L567.499 238.195L567.764 237.824L572.42 241.105L572.156 241.475ZM807.526 240.946L802.869 237.665L803.134 237.295L807.79 240.576L807.526 240.946ZM562.842 234.914L558.186 231.633L558.45 231.263L563.107 234.543L562.842 234.914ZM798.159 234.438L793.503 231.157L793.767 230.786L798.424 234.067L798.159 234.438ZM553.476 228.352L553 228.035L558.027 225.124L558.239 225.495L553.635 228.141L553.476 228.352ZM788.846 227.876L784.19 224.595L784.454 224.225L789.111 227.506L788.846 227.876ZM563.16 222.637L562.948 222.267L567.869 219.409L568.081 219.78L563.16 222.637ZM779.533 221.314L774.876 218.034L775.141 217.663L779.798 220.944L779.533 221.314ZM573.055 216.975L572.843 216.605L577.765 213.747L577.976 214.118L573.055 216.975ZM770.167 214.753L765.51 211.472L765.775 211.102L770.432 214.382L770.167 214.753ZM582.897 211.26L582.686 210.89L587.607 208.033L587.819 208.403L582.897 211.26ZM760.854 208.244L756.197 204.963L756.462 204.593L761.118 207.874L760.854 208.244ZM592.793 205.546L592.581 205.175L597.502 202.318L597.714 202.688L592.793 205.546ZM751.488 201.683L746.831 198.402L747.096 198.031L751.752 201.312L751.488 201.683ZM602.688 199.831L602.476 199.46L607.398 196.603L607.609 196.973L602.688 199.831ZM742.174 195.121L737.518 191.84L737.782 191.47L742.439 194.751L742.174 195.121ZM612.53 194.169L612.319 193.798L617.24 190.941L617.452 191.311L612.53 194.169ZM732.861 188.56L728.205 185.279L728.469 184.908L733.126 188.189L732.861 188.56ZM622.426 188.454L622.214 188.083L627.135 185.226L627.347 185.596L622.426 188.454ZM632.268 182.739L632.056 182.368L636.978 179.511L637.189 179.881L632.268 182.739ZM723.495 182.051L718.838 178.77L719.103 178.4L723.76 181.68L723.495 182.051ZM642.163 177.077L641.952 176.706L646.873 173.849L647.085 174.219L642.163 177.077ZM714.182 175.489L709.525 172.208L709.79 171.838L714.447 175.119L714.182 175.489ZM652.059 171.362L651.847 170.991L656.768 168.134L656.98 168.504L652.059 171.362ZM704.816 168.928L700.159 165.647L700.424 165.276L705.08 168.557L704.816 168.928ZM661.901 165.647L661.689 165.276L666.61 162.419L666.822 162.789L661.901 165.647ZM695.503 162.419L690.846 159.138L691.111 158.768L695.767 162.049L695.503 162.419ZM671.796 159.932L671.585 159.562L676.506 156.704L676.717 157.075L671.796 159.932ZM686.189 155.857L682.909 153.529L681.692 154.217L681.48 153.847L682.962 153L686.454 155.487L686.189 155.857Z" fill="#FC0048"/>
<path d="M620.04 281.727C619.14 282.257 617.447 281.992 616.282 281.198L599.138 269.133C597.974 268.34 597.762 267.228 598.661 266.699C599.561 266.17 601.254 266.435 602.418 267.228L619.563 279.293C620.727 280.087 620.939 281.198 620.04 281.727Z" fill="#5DADEC"/>
<path d="M617.605 269.398C618.77 270.192 618.981 271.303 618.082 271.832L604.8 279.505C603.9 280.034 602.207 279.77 601.043 278.976C599.879 278.182 599.667 277.071 600.567 276.542L613.848 268.869C614.748 268.34 616.441 268.604 617.605 269.398Z" fill="#5DADEC"/>
<path d="M469.6 384.437C468.7 384.966 467.007 384.702 465.843 383.908L448.645 371.843C447.481 371.05 447.269 369.938 448.169 369.409C449.068 368.88 450.761 369.145 451.926 369.938L469.07 382.003C470.235 382.797 470.499 383.908 469.6 384.437Z" fill="#9266CC"/>
<path d="M50.9881 522.303C50.0886 522.833 48.3953 522.568 47.2311 521.774L30.0334 509.709C28.8693 508.916 28.6576 507.804 29.5572 507.275C30.4567 506.746 32.1501 507.011 33.3142 507.804L50.459 519.869C51.6231 520.663 51.8877 521.774 50.9881 522.303Z" fill="#77B255"/>
<path d="M585.988 661.303C585.089 661.833 583.395 661.568 582.231 660.774L565.033 648.709C563.869 647.916 563.658 646.804 564.557 646.275C565.457 645.746 567.15 646.011 568.314 646.804L585.459 658.869C586.623 659.663 586.888 660.774 585.988 661.303Z" fill="#FFAC33"/>
<path d="M467.165 372.108C468.33 372.902 468.541 374.013 467.642 374.542L454.36 382.215C453.46 382.744 451.767 382.479 450.603 381.686C449.438 380.892 449.227 379.781 450.126 379.251L463.408 371.579C464.308 371.05 466.001 371.314 467.165 372.108Z" fill="#9266CC"/>
<path d="M48.554 509.974C49.7181 510.768 49.9298 511.879 49.0302 512.408L35.7483 520.081C34.8487 520.61 33.1554 520.346 31.9913 519.552C30.8271 518.758 30.6154 517.647 31.515 517.118L44.7969 509.445C45.6965 508.916 47.3898 509.18 48.554 509.974Z" fill="#77B255"/>
<path d="M583.554 648.974C584.718 649.768 584.93 650.879 584.03 651.408L570.748 659.081C569.849 659.61 568.155 659.346 566.991 658.552C565.827 657.758 565.615 656.647 566.515 656.118L579.797 648.445C580.697 647.916 582.39 648.18 583.554 648.974Z" fill="#FFAC33"/>
<path d="M714.441 141.183C713.277 141.818 711.161 141.553 709.679 140.495L687.931 125.255C686.449 124.197 686.184 122.821 687.296 122.186C688.46 121.551 690.576 121.816 692.058 122.874L713.806 138.114C715.341 139.119 715.606 140.548 714.441 141.183Z" fill="#FF0000"/>
<path d="M711.372 125.625C712.854 126.684 713.119 128.06 712.007 128.695L695.233 138.378C694.069 139.013 691.952 138.749 690.471 137.69C688.989 136.632 688.724 135.256 689.836 134.621L706.61 124.938C707.774 124.303 709.891 124.62 711.372 125.625Z" fill="#FF0000"/>
<path d="M487.432 383.485H487.009V377.823H487.432V383.485ZM487.432 372.108H487.009V366.446H487.432V372.108ZM487.432 360.731H487.009V355.016H487.432V360.731ZM487.432 349.301H487.009V343.586H487.432V349.301ZM487.432 337.924H487.009V332.209H487.432V337.924ZM487.432 326.494H487.009V320.779H487.432V326.494ZM487.432 315.117H487.009V309.402H487.432V315.117ZM487.432 303.74H487.009V298.026H487.432V303.74ZM487.432 292.311H487.009V286.596H487.432V292.311ZM487.432 280.934H487.009V275.219H487.432V280.934ZM487.432 269.504H487.009V263.789H487.432V269.504ZM487.432 258.127H487.009V252.412H487.432V258.127Z" fill="#FC0048"/>
<path d="M107.423 518.126H107V512.464H107.423V518.126ZM107.423 506.749H107V501.034H107.423V506.749ZM107.423 495.372H107V489.657H107.423V495.372ZM107.423 483.942H107V478.227H107.423V483.942ZM107.423 472.565H107V466.85H107.423V472.565ZM107.423 461.135H107V455.42H107.423V461.135ZM107.423 449.758H107V444.043H107.423V449.758ZM107.423 438.328H107V432.614H107.423V438.328ZM107.423 426.952H107V421.237H107.423V426.952ZM107.423 415.522H107V409.86H107.423V415.522ZM107.423 404.145H107V398.43H107.423V404.145ZM107.423 392.715H107V387H107.423V392.715Z" fill="#FC0048"/>
<path d="M328.423 677.126H328V671.464H328.423V677.126ZM328.423 665.749H328V660.034H328.423V665.749ZM328.423 654.372H328V648.657H328.423V654.372ZM328.423 642.942H328V637.227H328.423V642.942ZM328.423 631.565H328V625.85H328.423V631.565ZM328.423 620.135H328V614.42H328.423V620.135ZM328.423 608.758H328V603.043H328.423V608.758ZM328.423 597.328H328V591.614H328.423V597.328ZM328.423 585.952H328V580.237H328.423V585.952ZM328.423 574.522H328V568.86H328.423V574.522ZM328.423 563.145H328V557.43H328.423V563.145ZM328.423 551.715H328V546H328.423V551.715Z" fill="#FC0048"/>
<path d="M725.642 855.437L593.67 762.834L593.776 762.676L725.748 855.279L725.642 855.437Z" fill="#FF0049"/>
<path d="M593.405 763.734L592.558 761.988L594.516 762.147L593.405 763.734Z" fill="#FF0049"/>
<path d="M724.901 856.019L726.859 856.178L726.012 854.379L724.901 856.019Z" fill="#FF0049"/>
<path d="M591.341 761.247L537.685 723.571L537.79 723.412L591.447 761.088L591.341 761.247Z" fill="#FF0049"/>
<path d="M537.42 724.47L536.573 722.724L538.531 722.883L537.42 724.47Z" fill="#FF0049"/>
<path d="M590.601 761.776L592.558 761.988L591.712 760.189L590.601 761.776Z" fill="#FF0049"/>
<path d="M792.248 759.06L720.653 800.388L751.027 840.974L726.209 855.314L601.433 684.819L623.182 672.225L877.496 767.897L852.678 782.237L792.248 759.06ZM756.636 745.408L647.947 703.657L702.503 776.681L756.636 745.408Z" fill="#F7F7F7" stroke="white" stroke-width="0.7983" stroke-miterlimit="10"/>
<path d="M759.705 778.216L689.009 819.067L713.086 862.934L687.21 877.856L587.464 691.857L609.688 679.051L838.761 790.386L813.732 804.832L759.705 778.216ZM726.421 761.759L632.442 715.457L674.246 791.921L726.421 761.759Z" stroke="#9B9B9B" stroke-width="0.3901" stroke-miterlimit="10"/>
<path d="M462.265 764.669L462 764.246L467.609 761.018L467.874 761.441L462.265 764.669ZM473.536 758.161L473.271 757.737L478.88 754.509L479.145 754.933L473.536 758.161ZM484.807 751.652L484.542 751.229L490.151 748.001L490.416 748.424L484.807 751.652ZM496.025 745.143L495.76 744.72L501.369 741.492L501.634 741.915L496.025 745.143ZM507.296 738.688L507.031 738.264L512.641 735.036L512.905 735.46L507.296 738.688ZM518.567 732.179L518.303 731.756L523.912 728.528L524.176 728.951L518.567 732.179ZM529.838 725.67L529.574 725.247L535.183 722.019L535.447 722.442L529.838 725.67ZM541.056 719.162L540.792 718.738L546.401 715.51L546.665 715.934L541.056 719.162ZM552.327 712.653L552.063 712.23L557.672 709.002L557.937 709.425L552.327 712.653ZM563.599 706.197L563.334 705.774L568.943 702.546L569.208 702.969L563.599 706.197ZM574.817 699.689L574.552 699.265L580.161 696.037L580.426 696.461L574.817 699.689ZM586.088 693.18L585.823 692.757L591.432 689.529L591.697 689.952L586.088 693.18ZM597.359 686.671L597.094 686.248L602.703 683.02L602.968 683.443L597.359 686.671ZM608.63 680.163L608.365 679.739L613.975 676.511L614.239 676.935L608.63 680.163ZM619.848 673.654L619.584 673.231L625.193 670.003L625.457 670.426L619.848 673.654ZM631.119 667.198L630.855 666.775L636.464 663.547L636.728 663.97L631.119 667.198ZM642.39 660.689L642.126 660.266L647.735 657.038L648 657.462L642.39 660.689ZM653.662 654.181L653.397 653.758L659.006 650.53L659.271 650.953L653.662 654.181ZM664.88 647.672L664.615 647.249L670.224 644.021L670.489 644.444L664.88 647.672ZM676.151 641.163L675.886 640.74L681.495 637.512L681.76 637.936L676.151 641.163ZM687.422 634.708L687.157 634.284L692.766 631.057L693.031 631.48L687.422 634.708ZM698.64 628.199L698.375 627.776L703.985 624.548L704.249 624.971L698.64 628.199ZM709.911 621.69L709.647 621.267L715.256 618.039L715.52 618.463L709.911 621.69ZM721.182 615.182L720.918 614.758L726.527 611.531L726.791 611.954L721.182 615.182ZM732.453 608.673L732.189 608.25L737.798 605.022L738.062 605.445L732.453 608.673ZM743.671 602.164L743.407 601.741L749.016 598.513L749.281 598.937L743.671 602.164ZM754.943 595.709L754.678 595.285L759.546 592.481L759.811 592.904L754.943 595.709Z" fill="#FC0048"/>
<path d="M518.25 803.933L517.985 803.51L523.594 800.282L523.859 800.705L518.25 803.933ZM529.521 797.424L529.256 797.001L534.865 793.773L535.13 794.196L529.521 797.424ZM540.739 790.916L540.474 790.492L546.083 787.264L546.348 787.688L540.739 790.916ZM552.01 784.407L551.745 783.984L557.354 780.756L557.619 781.179L552.01 784.407ZM563.281 777.951L563.016 777.528L568.626 774.3L568.89 774.723L563.281 777.951ZM574.552 771.442L574.288 771.019L579.897 767.791L580.161 768.215L574.552 771.442ZM585.77 764.934L585.506 764.51L591.115 761.283L591.379 761.706L585.77 764.934ZM597.041 758.425L596.777 758.002L602.386 754.774L602.65 755.197L597.041 758.425ZM608.313 751.917L608.048 751.493L613.657 748.265L613.922 748.689L608.313 751.917ZM619.584 745.461L619.319 745.037L624.928 741.81L625.193 742.233L619.584 745.461ZM630.802 738.952L630.537 738.529L636.146 735.301L636.411 735.724L630.802 738.952ZM642.073 732.443L641.808 732.02L647.417 728.792L647.682 729.216L642.073 732.443ZM653.344 725.935L653.079 725.511L658.688 722.284L658.953 722.707L653.344 725.935ZM664.562 719.426L664.298 719.003L669.907 715.775L670.171 716.198L664.562 719.426ZM675.833 712.917L675.569 712.494L681.178 709.266L681.442 709.69L675.833 712.917ZM687.104 706.462L686.84 706.038L692.449 702.811L692.713 703.234L687.104 706.462ZM698.375 699.953L698.111 699.53L703.72 696.302L703.984 696.725L698.375 699.953ZM709.594 693.444L709.329 693.021L714.938 689.793L715.203 690.217L709.594 693.444ZM720.865 686.936L720.6 686.512L726.209 683.285L726.474 683.708L720.865 686.936ZM732.136 680.427L731.871 680.004L737.48 676.776L737.745 677.199L732.136 680.427ZM743.407 673.918L743.142 673.495L748.751 670.267L749.016 670.691L743.407 673.918ZM754.625 667.463L754.36 667.039L759.97 663.812L760.234 664.235L754.625 667.463ZM765.896 660.954L765.632 660.531L771.241 657.303L771.505 657.726L765.896 660.954ZM777.167 654.445L776.903 654.022L782.512 650.794L782.776 651.218L777.167 654.445ZM788.438 647.937L788.174 647.513L793.783 644.286L794.047 644.709L788.438 647.937ZM799.657 641.428L799.392 641.005L805.001 637.777L805.266 638.2L799.657 641.428ZM810.928 634.972L810.663 634.549L815.531 631.744L815.796 632.168L810.928 634.972Z" fill="#FC0048"/>
<path d="M652.55 898.123L652.286 897.7L657.895 894.472L658.159 894.895L652.55 898.123ZM663.821 891.615L663.557 891.191L669.166 887.963L669.43 888.387L663.821 891.615ZM675.092 885.159L674.828 884.736L680.437 881.508L680.702 881.931L675.092 885.159ZM686.311 878.65L686.046 878.227L691.655 874.999L691.92 875.422L686.311 878.65ZM697.582 872.142L697.317 871.718L702.926 868.49L703.191 868.914L697.582 872.142ZM708.853 865.633L708.588 865.21L714.197 861.982L714.462 862.405L708.853 865.633ZM720.124 859.124L719.859 858.701L725.468 855.473L725.733 855.896L720.124 859.124ZM731.342 852.616L731.078 852.192L736.687 848.964L736.951 849.388L731.342 852.616ZM742.613 846.16L742.349 845.736L747.958 842.509L748.222 842.932L742.613 846.16ZM753.884 839.651L753.62 839.228L759.229 836L759.493 836.423L753.884 839.651ZM765.155 833.143L764.891 832.719L770.5 829.491L770.765 829.915L765.155 833.143ZM776.374 826.634L776.109 826.21L781.718 822.983L781.983 823.406L776.374 826.634ZM787.645 820.125L787.38 819.702L792.989 816.474L793.254 816.897L787.645 820.125ZM798.916 813.669L798.651 813.246L804.26 810.018L804.525 810.442L798.916 813.669ZM810.134 807.161L809.869 806.737L815.478 803.51L815.743 803.933L810.134 807.161ZM821.405 800.652L821.14 800.229L826.75 797.001L827.014 797.424L821.405 800.652ZM832.676 794.143L832.412 793.72L838.021 790.492L838.285 790.916L832.676 794.143ZM843.947 787.635L843.683 787.211L849.292 783.984L849.556 784.407L843.947 787.635ZM855.165 781.126L854.901 780.703L860.51 777.475L860.774 777.898L855.165 781.126ZM866.436 774.67L866.172 774.247L871.781 771.019L872.046 771.443L866.436 774.67ZM877.708 768.162L877.443 767.738L883.052 764.511L883.317 764.934L877.708 768.162ZM888.979 761.653L888.714 761.23L894.323 758.002L894.588 758.425L888.979 761.653ZM900.197 755.144L899.932 754.721L905.541 751.493L905.806 751.917L900.197 755.144ZM911.468 748.636L911.203 748.212L916.812 744.985L917.077 745.408L911.468 748.636ZM922.739 742.127L922.474 741.704L928.084 738.476L928.348 738.899L922.739 742.127ZM933.957 735.671L933.693 735.248L939.302 732.02L939.566 732.443L933.957 735.671ZM945.228 729.163L944.964 728.739L949.832 725.935L950.097 726.358L945.228 729.163Z" fill="#FC0048"/>
<path d="M786.798 634.073H786.375V628.411H786.798V634.073ZM786.798 622.696H786.375V616.981H786.798V622.696ZM786.798 611.319H786.375V605.604H786.798V611.319ZM786.798 599.889H786.375V594.174H786.798V599.889ZM786.798 588.512H786.375V582.797H786.798V588.512ZM786.798 577.082H786.375V571.367H786.798V577.082ZM786.798 565.705H786.375V559.99H786.798V565.705ZM786.798 554.276H786.375V548.561H786.798V554.276ZM786.798 542.899H786.375V537.184H786.798V542.899ZM786.798 531.469H786.375V525.807H786.798V531.469ZM786.798 520.092H786.375V514.377H786.798V520.092ZM786.798 508.715H786.375V503H786.798V508.715Z" fill="#FC0048"/>
<path d="M812.462 807.584H812.039V801.922H812.462V807.584ZM812.462 796.207H812.039V790.492H812.462V796.207ZM812.462 784.83H812.039V779.115H812.462V784.83ZM812.462 773.4H812.039V767.685H812.462V773.4ZM812.462 762.023H812.039V756.309H812.462V762.023ZM812.462 750.594H812.039V744.879H812.462V750.594ZM812.462 739.217H812.039V733.502H812.462V739.217ZM812.462 727.787H812.039V722.072H812.462V727.787ZM812.462 716.41H812.039V710.695H812.462V716.41ZM812.462 704.98H812.039V699.265H812.462V704.98ZM812.462 693.603H812.039V687.888H812.462V693.603ZM812.462 682.173H812.039V676.458H812.462V682.173Z" fill="#FC0048"/>
<path d="M918.423 744.126H918V738.464H918.423V744.126ZM918.423 732.749H918V727.034H918.423V732.749ZM918.423 721.372H918V715.657H918.423V721.372ZM918.423 709.942H918V704.227H918.423V709.942ZM918.423 698.565H918V692.85H918.423V698.565ZM918.423 687.135H918V681.42H918.423V687.135ZM918.423 675.758H918V670.043H918.423V675.758ZM918.423 664.328H918V658.614H918.423V664.328ZM918.423 652.952H918V647.237H918.423V652.952ZM918.423 641.522H918V635.807H918.423V641.522ZM918.423 630.145H918V624.43H918.423V630.145ZM918.423 618.715H918V613H918.423V618.715Z" fill="#FC0048"/>
<path d="M786.798 614.229L917.871 706.144L895.646 718.95L885.327 711.7C885.327 722.76 879.401 732.602 866.436 740.063C837.968 756.467 784.47 748.159 746.264 721.384C708.059 694.609 700.227 659.896 728.696 643.439C741.608 635.978 757.641 633.12 774.892 634.232L764.573 626.982L786.798 614.229ZM853.789 689.687L806.377 656.456C784.893 651.006 769.283 653.599 758.118 660.107C739.597 670.796 745.259 692.174 768.648 708.578C792.09 725.035 824.897 730.644 843.418 719.955C854.689 713.447 860.192 703.816 853.789 689.687Z" fill="#E5E5E5"/>
<path d="M786.798 561.684L917.871 653.599L895.646 666.404L885.327 659.155C885.327 670.214 879.401 680.057 866.436 687.518C837.968 703.922 784.47 695.614 746.264 668.839C708.059 642.063 700.227 607.35 728.696 590.893C741.608 583.432 757.641 580.575 774.892 581.686L764.573 574.437L786.798 561.684ZM853.789 637.089L806.377 603.858C784.893 598.46 769.283 601 758.118 607.509C739.597 618.198 745.259 639.576 768.648 655.98C792.09 672.437 824.897 678.046 843.418 667.357C854.689 660.848 860.192 651.218 853.789 637.089Z" fill="#C1C1C1"/>
<path d="M437.726 138.275C436.772 138.418 436.295 138.084 436.677 137.464L449.939 116.952C450.321 116.379 451.132 116.475 451.8 117.19L475.271 142.186C475.939 142.902 475.557 143.14 474.508 142.759L454.567 135.89L437.726 138.275ZM443.356 134.649L453.803 133.171L467.113 137.75L451.847 121.484L443.356 134.649Z" fill="#9B9B9B"/>
<path d="M533.663 110.178C526.698 105.265 525.41 98.7772 530.801 95.6766C536.191 92.5759 546.21 94.007 553.222 98.9203L533.663 110.178ZM535.285 97.2507L541.487 101.592L547.164 98.3002C543.061 96.5352 538.481 96.1536 535.285 97.2507ZM539.054 103.023L532.852 98.6818C530.801 100.59 530.991 103.5 533.329 106.314L539.054 103.023ZM529.226 94.5317C525.171 96.8691 517.681 95.772 512.434 92.0989C507.186 88.4258 506.232 83.5601 510.287 81.2227C514.342 78.8853 521.832 79.9825 527.079 83.6555C532.327 87.3286 533.281 92.1943 529.226 94.5317ZM526.03 92.3374C528.749 90.7632 528.081 87.5194 524.599 85.0866C521.116 82.6538 516.107 81.9383 513.388 83.4647C510.669 84.9912 511.337 88.2827 514.819 90.7155C518.349 93.196 523.358 93.9116 526.03 92.3374Z" fill="#9B9B9B"/>
<path d="M255.919 260.345L254.392 252.665C253.534 248.42 247.57 244.222 240.987 243.268C234.403 242.314 229.776 244.985 230.635 249.231C231.493 253.476 237.457 257.674 244.04 258.628L255.919 260.345ZM258.352 253.238L260.403 263.494L244.565 261.204C235.835 259.964 227.82 254.335 226.675 248.658C225.53 242.982 231.732 239.404 240.51 240.692C249.24 241.98 257.255 247.561 258.352 253.238ZM252.913 269.218L269.992 259.344L273.141 261.538L256.062 271.412L252.913 269.218Z" fill="#9B9B9B"/>
<path d="M304.007 201.337C310.733 197.426 323.28 199.239 332.01 205.344C340.74 211.45 342.362 219.56 335.588 223.471C328.861 227.383 316.315 225.57 307.584 219.464C298.854 213.358 297.232 205.249 304.007 201.337ZM307.155 203.579C301.764 206.68 303.052 213.168 310.018 218.081C316.983 222.994 327.049 224.425 332.439 221.325C337.83 218.224 336.542 211.737 329.577 206.823C322.564 201.91 312.546 200.431 307.155 203.579ZM321.181 218.367L322.373 220.418C322.707 221.039 322.326 221.516 321.467 221.563C320.608 221.611 319.654 221.134 319.32 220.514L318.414 218.987C318.939 218.32 319.845 218.081 321.181 218.367ZM315.981 207.873L325.57 210.83L328.193 209.304C328.766 208.97 329.768 209.113 330.483 209.638C331.199 210.115 331.342 210.783 330.77 211.116L329.338 211.975L332.535 212.929C333.441 213.215 334.061 213.883 333.871 214.408C333.727 214.885 332.916 215.123 332.058 214.837L320.036 211.164C317.317 210.353 316.028 208.684 315.981 207.873ZM311.496 204.295C312.355 204.247 313.309 204.724 313.643 205.344L318.986 214.599L322.087 212.786C323.089 212.214 325.188 212.977 325.808 213.931L316.696 219.226C316.124 219.56 315.122 219.417 314.406 218.892C313.691 218.367 313.548 217.747 314.12 217.413L316.696 215.934L312.641 208.874L309.302 207.873C308.396 207.586 307.775 206.919 307.966 206.394C308.109 205.917 308.92 205.678 309.779 205.965L311.21 206.394L310.638 205.44C310.256 204.82 310.685 204.343 311.496 204.295Z" fill="#9B9B9B"/>
<path d="M46.7281 372.064L29.6494 381.939L40.7172 389.714L57.7959 379.84L46.7281 372.064ZM43.5795 369.87C37.4731 365.577 28.6953 364.337 23.9724 367.056C19.2495 369.775 20.3944 375.451 26.5008 379.745L43.5795 369.87ZM17.055 370.967C17.0073 368.439 18.2954 366.245 20.8238 364.814C23.3999 363.335 26.9778 362.763 30.7943 363.049L30.2696 360.425L34.2291 360.998L34.7539 363.621C38.8089 364.48 42.8162 366.197 46.0125 368.439L61.8032 379.506C62.6619 380.126 62.8527 380.937 62.1848 381.319L42.6731 392.577C42.0052 392.958 40.7649 392.767 39.8584 392.195L24.0678 381.128C20.7284 378.791 18.5339 376.071 17.5798 373.496L13.5248 372.923L13 370.347L17.055 370.967ZM28.2182 374.688C27.5503 375.07 26.31 374.879 25.4035 374.307C24.5448 373.686 24.354 372.875 25.0219 372.494C25.6898 372.112 26.9301 372.303 27.8365 372.875C28.6953 373.496 28.8861 374.306 28.2182 374.688ZM35.5172 370.49C34.8493 370.872 33.609 370.681 32.7026 370.109C31.8438 369.489 31.653 368.678 32.3209 368.296C32.9888 367.914 34.2291 368.105 35.1356 368.678C36.042 369.25 36.1851 370.061 35.5172 370.49Z" fill="#9B9B9B"/>
<path d="M102.592 321.643L107.458 318.829C108.126 318.447 109.366 318.638 110.273 319.21L135.557 336.955C136.416 337.576 136.606 338.387 135.938 338.768L113.946 351.457C113.278 351.839 112.038 351.648 111.131 351.075L85.8472 333.33C84.9885 332.71 84.7977 331.899 85.4656 331.517L90.3316 328.703L87.183 326.509L89.616 325.078L92.7646 327.272L100.111 323.026L96.9627 320.832L99.3957 319.401L102.592 321.643ZM103.308 325.268L95.9609 329.514L99.1095 331.708L96.6765 333.139L93.5279 330.945L89.8545 333.044L96.1517 337.48L115.663 326.222L109.366 321.786L105.693 323.885L108.842 326.079L106.408 327.51L103.308 325.268ZM118.907 328.417L99.3957 339.675L112.038 348.547L131.55 337.289L118.907 328.417Z" fill="#9B9B9B"/>
<path d="M379.143 174.147L395.03 164.988C395.697 164.607 396.938 164.797 397.844 165.37L413.635 176.437C414.494 177.057 414.684 177.868 414.017 178.249L394.505 189.507C393.837 189.889 392.597 189.698 391.69 189.126L375.899 178.059C375.041 177.438 374.85 176.628 375.518 176.246L376.758 175.53L375.184 174.433C369.078 170.14 367.933 164.463 372.655 161.744C375.899 159.884 381.243 159.836 386.442 161.601L385.679 163.843C380.288 161.983 375.041 162.985 373.944 166.085C373.228 168.232 374.659 170.903 377.617 173.002L379.143 174.147ZM379.859 177.772L392.501 186.645L409.58 176.771L396.938 167.898L379.859 177.772ZM390.688 177.534L395.554 174.719L398.703 176.914L393.837 179.728L390.688 177.534Z" fill="#9B9B9B"/>
<path d="M601.644 60.806L602.884 60.0905L594.965 54.557L597.398 53.1259L605.317 58.6594L606.558 57.9439C604.84 56.5128 603.982 54.9863 603.505 53.0782C603.457 52.8397 603.171 51.5518 603.075 51.361C601.501 47.02 595.061 43.1561 588.62 42.6791C582.18 42.2021 578.22 45.3504 579.795 49.6437C581.13 53.3168 586.044 56.7513 591.626 57.9439C591.912 57.9916 593.963 58.3255 594.297 58.3732C597.303 58.8979 599.593 59.5658 601.644 60.806ZM604.84 63.0004L606.415 64.0975L611.281 61.2831L609.706 60.1859L604.84 63.0004ZM591.769 60.4721C582.943 58.6117 575.692 52.6489 575.549 47.1154C575.406 41.6297 582.418 38.6721 591.244 40.5802C598.734 42.1544 605.27 46.7815 607.035 51.6472C607.512 52.9351 607.464 55.4634 609.802 57.0852L613.761 59.852C615.526 61.0923 615.813 62.7141 614.477 63.4774L609.611 66.2918C608.275 67.0551 605.747 66.7211 604.029 65.4809L600.07 62.7141C597.684 61.0923 593.772 60.8537 591.769 60.4721Z" fill="#9B9B9B"/>
<path d="M173.578 290.78L183.358 285.151L194.855 308.811L180.639 298.841L172.1 303.755L159.41 280.81L173.578 290.78ZM174.294 294.405L168.331 290.207L173.245 299.032L179.923 295.168L186.841 300.034L181.975 289.969L174.294 294.405Z" fill="#9B9B9B"/>
<path d="M395.335 780.895L328.925 733.418L329.084 733.31L328.343 732.771L328.185 732.879L261.775 685.402C245.477 673.749 224.946 665.441 204.52 662.257L203.303 661.394L216.955 653.356L216.215 652.816L202.933 660.639L199.123 641.325L198.223 641.217L202.033 660.531L185.841 648.932L185.259 649.255L201.98 661.178L201.028 661.718C181.078 659.074 163.087 661.664 150.758 668.893L47.2539 729.803C34.9245 737.087 29.2625 748.416 31.3791 761.526L30.4267 762.12L13.7052 750.197L13.1231 750.52L29.3154 762.12L0 757.75L0.105806 758.343L29.4212 762.713L16.986 770.051L17.7268 770.59L30.5854 763.037L31.8025 763.9C34.7128 777.442 45.5077 791.469 61.7529 803.122L195.26 898.615C211.558 910.268 232.089 918.576 252.515 921.759L253.732 922.623L240.873 930.176L241.614 930.715L254.049 923.378L257.859 942.692L258.759 942.8L254.949 923.486L271.141 935.085L271.723 934.761L255.002 922.838L255.954 922.245C275.904 924.888 293.895 922.299 306.224 915.069L409.728 854.159C422.057 846.876 427.719 835.546 425.603 822.382L426.555 821.843L443.277 833.766L443.859 833.442L427.667 821.843L456.982 826.213L456.876 825.62L427.561 821.25L441.001 813.319L440.261 812.779L426.45 820.926L425.232 820.063C422.375 806.575 411.633 792.548 395.335 780.895ZM394.753 781.218C410.575 792.548 421.105 806.197 424.227 819.361L361.31 774.367L374.222 766.76L373.481 766.22L360.569 773.827L315.273 741.403L328.343 733.688L394.753 781.218ZM309.77 803.77L308.87 803.662C308.659 802.691 308.447 801.666 308.129 800.694L311.252 802.906L309.77 803.77ZM311.992 803.446L313.209 804.309L311.093 803.985L311.992 803.446ZM237.593 846.283L234.947 844.394C236.164 844.61 237.381 844.826 238.651 844.988L238.757 845.581L237.593 846.283ZM238.915 846.444L239.074 847.362L238.28 846.822L238.915 846.444ZM147.371 780.247L148.27 780.355C148.429 781.164 148.641 781.974 148.852 782.783L146.207 780.895L147.371 780.247ZM145.519 780.409L144.725 779.87L146.101 780.085L145.519 780.409ZM219.919 737.572L223.041 739.784C221.559 739.515 220.024 739.245 218.543 739.029L218.437 738.436L219.919 737.572ZM218.278 737.626L218.014 736.224L219.231 737.087L218.278 737.626ZM265.215 769.997L263.892 770.752C251.774 762.174 236.587 756.077 221.453 753.757L218.649 739.622C220.448 739.892 222.3 740.216 224.099 740.594L265.215 769.997ZM225.581 740.917C244.154 744.748 262.304 752.571 277.068 763.037L265.797 769.673L225.581 740.917ZM221.559 754.351C236.428 756.617 251.404 762.605 263.31 771.076L228.861 791.361L221.559 754.351ZM227.909 791.199L183.195 759.206C192.402 753.919 205.843 752.139 220.659 754.243L227.909 791.199ZM227.38 791.523L171.395 783.214C169.596 773.449 173.617 764.979 182.666 759.53L227.38 791.523ZM227.486 792.116L193.037 812.402C181.237 803.877 173.511 793.627 171.448 783.808L227.486 792.116ZM228.226 792.656L235.529 829.612C220.659 827.346 205.684 821.357 193.778 812.887L228.226 792.656ZM229.126 792.764L273.999 824.864C264.791 830.151 251.351 831.932 236.534 829.828L229.126 792.764ZM229.655 792.44L285.64 800.748C287.545 810.513 283.524 819.092 274.528 824.541L229.655 792.44ZM229.549 791.847L263.998 771.561C275.798 780.085 283.524 790.336 285.587 800.155L229.549 791.847ZM217.749 739.515L220.554 753.65C208.859 751.977 197.959 752.678 189.227 755.646L216.849 739.353L217.749 739.515ZM182.454 758.667L165.362 746.42C177.745 739.245 195.683 736.655 215.527 739.191L182.454 758.667ZM181.872 758.991L148.8 778.467C146.842 765.411 152.504 754.081 164.727 746.798L181.872 758.991ZM176.633 763.091C171.183 768.432 169.066 775.446 170.495 783.107L149.064 779.923L148.958 779.33L176.633 763.091ZM149.17 780.517L170.601 783.7C172.665 793.681 180.549 804.093 192.508 812.725L191.503 813.319L149.964 783.592C149.699 782.621 149.435 781.542 149.17 780.517ZM190.974 813.643L179.385 820.44C164.516 809.758 154.197 797.026 150.281 784.509L190.974 813.643ZM191.661 814.182L232.354 843.315C213.516 839.539 194.995 831.662 180.073 821.034L191.661 814.182ZM192.244 813.858L193.249 813.265C205.367 821.843 220.554 827.939 235.688 830.259L238.492 844.394C236.958 844.179 235.37 843.909 233.836 843.585L192.244 813.858ZM239.445 844.556L236.64 830.421C248.282 832.094 259.235 831.392 267.966 828.425L240.344 844.718L239.445 844.556ZM274.687 825.35L291.778 837.597C279.396 844.772 261.458 847.362 241.614 844.826L274.687 825.35ZM275.269 825.026L308.341 805.55C310.299 818.606 304.584 829.936 292.413 837.219L275.269 825.026ZM280.56 820.98C286.011 815.639 288.127 808.625 286.699 800.964L308.129 804.147L308.235 804.741L280.56 820.98ZM307.971 803.5L286.54 800.317C284.476 790.336 276.592 779.923 264.633 771.291L265.955 770.536L307.018 799.885C307.389 801.126 307.706 802.313 307.971 803.5ZM266.538 770.212L277.809 763.576C292.466 774.097 302.679 786.613 306.754 798.968L266.538 770.212ZM277.65 762.713C262.463 751.923 243.625 743.885 224.469 740.108L220.501 737.249L250.345 719.661C269.977 726.351 288.445 735.738 304.214 747.014L277.65 762.713ZM219.76 736.763L217.802 735.36L212.881 710.489C224.999 712.324 237.222 715.291 249.287 719.337L219.76 736.763ZM216.797 734.605L180.232 708.439C190.392 708.115 201.081 708.709 211.981 710.327L216.797 734.605ZM216.955 735.468L217.484 738.058L216.373 738.705C195.895 735.9 177.374 738.489 164.621 745.881L130.067 721.171C142.979 713.618 159.912 709.248 179.279 708.493L216.955 735.468ZM164.039 746.258C151.445 753.757 145.73 765.465 148.006 778.952L146.895 779.6L143.667 779.114L105.303 751.707C108.425 739.407 116.733 729.048 129.432 721.549L164.039 746.258ZM142.397 778.952L104.932 773.395C103.504 766.058 103.609 758.991 105.197 752.355L142.397 778.952ZM143.455 779.708L144.937 780.787L115.039 798.375C110.012 790.228 106.626 782.028 104.985 774.043L143.455 779.708ZM145.678 781.272L149.117 783.754C152.927 796.648 163.457 809.812 178.803 820.818L152.239 836.464C136.47 825.188 123.876 812.348 115.515 799.022L145.678 781.272ZM179.544 821.357C194.942 832.309 214.151 840.402 233.518 844.125L237.01 846.606L206.848 864.356C187.217 857.666 168.749 848.279 152.98 837.003L179.544 821.357ZM237.751 847.146L239.233 848.225L244.26 873.582C232.142 871.747 219.919 868.78 207.854 864.734L237.751 847.146ZM240.291 848.926L277.491 875.524C267.173 875.901 256.272 875.308 245.16 873.689L240.291 848.926ZM240.132 848.117L239.709 846.013L240.82 845.365C261.299 848.171 279.819 845.581 292.519 838.19L327.073 862.899C314.321 870.344 297.546 874.714 278.444 875.578L240.132 848.117ZM293.101 837.812C305.695 830.313 311.41 818.606 309.135 805.118L310.246 804.471L314.215 805.064L351.891 831.986C348.822 844.394 340.514 854.915 327.655 862.522L293.101 837.812ZM315.538 805.226L352.261 810.675C353.637 817.851 353.584 824.81 352.103 831.338L315.538 805.226ZM314.479 804.471L312.522 803.068L342.049 785.696C347.076 793.843 350.462 802.043 352.103 810.028L314.479 804.471ZM311.834 802.583L307.865 799.777C303.896 787.045 293.472 774.097 278.338 763.253L304.902 747.607C320.671 758.883 333.212 771.723 341.625 785.049L311.834 802.583ZM305.484 747.229L314.744 741.78L360.04 774.151L342.26 784.617C333.847 771.345 321.2 758.505 305.484 747.229ZM304.743 746.69C288.974 735.414 270.506 726.027 250.927 719.283L268.707 708.817L314.003 741.187L304.743 746.69ZM249.922 718.959C237.645 714.805 225.157 711.73 212.775 709.896L203.462 662.689H203.515C203.779 662.743 204.044 662.797 204.361 662.851L268.019 708.331L249.922 718.959ZM202.509 662.581L211.875 709.788C200.71 708.169 189.809 707.522 179.385 707.9L154.567 690.15L201.61 662.473L202.509 662.581ZM178.433 707.9C159.118 708.709 142.238 713.133 129.327 720.632L117.262 712L153.985 690.366L178.433 707.9ZM116.574 711.568L100.117 699.807L136.841 678.173L153.297 689.934L116.574 711.568ZM115.992 711.892L79.5856 733.31L63.1287 721.549L99.5349 700.131L115.992 711.892ZM116.733 712.431L128.797 721.063C116.098 728.563 107.79 738.921 104.562 751.168L80.3793 733.85L116.733 712.431ZM104.35 751.761C102.657 758.505 102.551 765.788 103.98 773.288L32.4904 762.659L32.3845 762.066L79.7443 734.173L104.35 751.761ZM32.5962 763.253L104.086 773.827C105.726 781.974 109.218 790.39 114.404 798.698L96.3599 809.326L32.702 763.792C32.702 763.63 32.6491 763.469 32.5962 763.253ZM114.88 799.4C123.347 812.725 135.941 825.512 151.657 836.787L142.397 842.236L97.1007 809.866L114.88 799.4ZM152.398 837.327C168.167 848.602 186.634 857.99 206.213 864.734L188.434 875.2L143.138 842.776L152.398 837.327ZM207.219 865.057C219.495 869.212 231.983 872.287 244.366 874.121L253.732 921.328H253.679C253.414 921.274 253.15 921.22 252.832 921.166L189.174 875.686L207.219 865.057ZM254.631 921.49L245.265 874.283C256.642 875.955 267.755 876.549 278.285 876.171L302.891 893.759L255.531 921.651L254.631 921.49ZM279.29 876.117C298.393 875.2 315.061 870.83 327.814 863.385L339.879 872.017L303.473 893.435L279.29 876.117ZM340.62 872.503L357.077 884.264L320.671 905.682L304.214 893.921L340.62 872.503ZM341.149 872.179L377.873 850.545L394.33 862.306L357.606 883.94L341.149 872.179ZM340.461 871.639L328.396 863.007C341.202 855.4 349.563 844.934 352.738 832.525L377.132 850.005L340.461 871.639ZM352.896 831.932C354.484 825.242 354.59 818.174 353.161 810.783L424.65 821.411L424.756 822.005L377.714 849.681L352.896 831.932ZM424.545 820.764L353.055 810.19C351.415 802.043 347.922 793.627 342.737 785.319L360.781 774.69L424.439 820.224L424.545 820.764ZM261.299 685.78L327.708 733.256L314.638 740.971L269.342 708.547L282.254 700.94L281.513 700.4L268.601 708.007L205.737 663.067C225.528 666.304 245.424 674.45 261.299 685.78ZM200.287 662.257L153.827 689.61L137.37 677.849L151.551 669.487C163.563 662.473 180.973 659.884 200.287 662.257ZM48.0476 730.397L62.5995 721.819L79.0564 733.58L32.2787 761.095C30.4796 748.47 36.0886 737.464 48.0476 730.397ZM195.895 898.291L62.3879 802.798C46.566 791.469 36.0357 777.819 32.9137 764.655L95.7778 809.65L82.9193 817.257L83.6601 817.797L96.5187 810.19L141.815 842.56L128.903 850.167L129.644 850.706L142.556 843.099L187.852 875.524L174.993 883.131L175.734 883.67L188.592 876.063L251.457 921.058C231.613 917.713 211.717 909.62 195.895 898.291ZM256.907 921.813L303.685 894.299L320.141 906.06L305.642 914.584C293.578 921.597 276.168 924.187 256.907 921.813ZM409.146 853.62L394.912 861.982L378.455 850.221L424.915 822.868C426.714 835.6 421.052 846.552 409.146 853.62Z" fill="#FFBDBD"/>
<path d="M341.202 758.505C345.065 761.311 345.753 764.979 342.79 766.76L244.048 824.918C241.032 826.699 235.476 825.889 231.56 823.084L224.417 817.959L323.105 759.854L240.133 700.508L247.329 762.821L128.692 749.495L118.056 741.888C114.14 739.083 113.399 735.36 116.468 733.58L215.156 675.475C218.173 673.695 223.835 674.504 227.75 677.31L341.202 758.505ZM138.481 739.083L228.227 749.226L221.4 690.258L138.481 739.083ZM185.1 804.147L228.967 778.359L243.149 788.502L199.282 814.29L185.1 804.147ZM149.646 778.791L177.057 762.659L191.238 772.802L163.828 788.933L149.646 778.791Z" fill="#9B9B9B"/>
<path d="M240.027 825.943C237.222 825.943 233.994 824.972 231.507 823.192L224.258 818.013L224.364 817.959L322.893 759.962L240.186 700.832L247.382 763.091L128.639 749.549L118.003 741.942C115.727 740.324 114.404 738.274 114.51 736.439C114.563 735.198 115.251 734.173 116.415 733.472L215.103 675.367C218.172 673.587 223.834 674.396 227.75 677.202L341.255 758.397C343.53 760.016 344.8 762.012 344.747 763.846C344.694 765.033 344.059 766.058 342.895 766.76L244.154 824.918C242.99 825.62 241.614 825.943 240.027 825.943ZM224.575 817.959L231.613 822.976C235.476 825.727 241.032 826.537 243.995 824.81L342.737 766.652C343.848 766.004 344.483 765.033 344.536 763.846C344.589 762.12 343.319 760.124 341.149 758.559L227.644 677.364C223.782 674.612 218.172 673.749 215.156 675.529L116.468 733.688C115.304 734.335 114.669 735.306 114.669 736.493C114.616 738.22 115.886 740.216 118.108 741.834L128.744 749.441L247.276 762.821L240.08 700.4L240.238 700.508L323.316 759.908L323.211 759.962L224.575 817.959ZM199.281 814.398L184.941 804.147L185.047 804.093L228.967 778.251L229.02 778.305L243.308 788.556L243.202 788.609L199.281 814.398ZM185.259 804.147L199.281 814.182L242.99 788.448L228.967 778.413L185.259 804.147ZM163.828 789.041L149.488 778.79L149.593 778.737L177.057 762.551L177.11 762.605L191.397 772.856L191.291 772.91L163.828 789.041ZM149.805 778.79L163.828 788.825L191.079 772.802L177.057 762.767L149.805 778.79ZM228.332 749.334L138.164 739.191L138.375 739.029L221.453 690.15V690.312L228.332 749.334ZM138.746 739.029L228.121 749.118L221.347 690.42L138.746 739.029Z" fill="white"/>
</g>
<defs>
<clipPath id="clip0">
<rect width="948" height="922.521" fill="white"/>
</clipPath>
</defs>
<!-- Code injected by live-server -->
<script type="text/javascript">
	// <![CDATA[  <-- For SVG support
	if ('WebSocket' in window) {
		(function () {
			function refreshCSS() {
				var sheets = [].slice.call(document.getElementsByTagName("link"));
				var head = document.getElementsByTagName("head")[0];
				for (var i = 0; i < sheets.length; ++i) {
					var elem = sheets[i];
					var parent = elem.parentElement || head;
					parent.removeChild(elem);
					var rel = elem.rel;
					if (elem.href && typeof rel != "string" || rel.length == 0 || rel.toLowerCase() == "stylesheet") {
						var url = elem.href.replace(/(&|\?)_cacheOverride=\d+/, '');
						elem.href = url + (url.indexOf('?') >= 0 ? '&' : '?') + '_cacheOverride=' + (new Date().valueOf());
					}
					parent.appendChild(elem);
				}
			}
			var protocol = window.location.protocol === 'http:' ? 'ws://' : 'wss://';
			var address = protocol + window.location.host + window.location.pathname + '/ws';
			var socket = new WebSocket(address);
			socket.onmessage = function (msg) {
				if (msg.data == 'reload') window.location.reload();
				else if (msg.data == 'refreshcss') refreshCSS();
			};
			if (sessionStorage && !sessionStorage.getItem('IsThisFirstTime_Log_From_LiveServer')) {
				console.log('Live reload enabled.');
				sessionStorage.setItem('IsThisFirstTime_Log_From_LiveServer', true);
			}
		})();
	}
	else {
		console.error('Upgrade your browser. This Browser is NOT supported WebSocket for Live-Reloading.');
	}
	// ]]>
</script></svg>
