<svg width="84" height="25" viewBox="0 0 84 25" fill="none" xmlns="http://www.w3.org/2000/svg">
<path d="M20.4633 0.983612C20.4633 10.3108 8.88931 12.7155 1.12876 12.752C1.10447 12.752 1.09233 12.752 1.06804 12.752C1.0316 12.752 0.983022 12.752 0.946587 12.752H0.873718V3.89837C0.873718 2.28311 2.17322 0.983612 3.78848 0.983612H20.4633Z" fill="white"/>
<path d="M20.4633 24.4838H0.873718V12.7519H1.06804C1.09233 12.7519 1.10447 12.7519 1.12876 12.7519C8.88931 12.7884 20.439 15.1809 20.4633 24.4838Z" fill="white"/>
<path d="M40.0529 0.983612V12.752H39.9801C39.9193 12.752 39.8586 12.752 39.7979 12.752C32.0252 12.7155 20.4633 10.3108 20.4633 0.983612H40.0529Z" fill="white"/>
<path d="M40.0529 12.7519V21.5691C40.0529 23.1843 38.7534 24.4838 37.1382 24.4838H20.4633C20.4876 15.1809 32.0373 12.7884 39.7979 12.7519H40.0529Z" fill="white"/>
<path d="M83.1429 3.91052V9.20567C83.1429 10.5902 82.1713 11.7804 80.8232 12.0597L52.9508 17.8406L51.7363 11.999L76.0746 6.95887H49.9267V18.545H83.1429V24.5082H46.8784C45.2631 24.5082 43.9636 23.2087 43.9636 21.5934V3.91052C43.9636 2.29526 45.2631 0.995758 46.8784 0.995758H80.2281C81.8434 0.995758 83.1429 2.3074 83.1429 3.91052Z" fill="white"/>
</svg>
